<?xml version="1.0" encoding="utf-8"?>
<!-- Generator: Adobe Illustrator 24.2.0, SVG Export Plug-In . SVG Version: 6.00 Build 0)  -->
<svg version="1.1" id="Layer_1" xmlns="http://www.w3.org/2000/svg" xmlns:xlink="http://www.w3.org/1999/xlink" x="0px" y="0px"
	 viewBox="0 0 53.4 60.9" style="enable-background:new 0 0 53.4 60.9;" xml:space="preserve">
<style type="text/css">
	.st0{fill:#333333;}
	.st1{fill:#2F6699;}
</style>
<g>
	<g>
		<path class="st0" d="M49.6,17.3c0-0.3-0.2-0.6-0.4-0.8L35.3,2.5c-0.1-0.1-0.2-0.1-0.3-0.2c0,0-0.1,0-0.1,0c-0.1,0-0.2,0-0.3-0.1
			c0,0,0,0-0.1,0h-22c-1.7,0-3,1.3-3,3v2h-3c-1.7,0-3,1.3-3,3v45c0,1.7,1.3,3,3,3h32c1.7,0,3-1.3,3-3v-2h5c1.7,0,3-1.3,3-3
			L49.6,17.3C49.6,17.3,49.6,17.3,49.6,17.3z M35.6,5.7l10.6,10.6h-9.6c-0.6,0-1-0.4-1-1V5.7z M39.6,55.3c0,0.6-0.4,1-1,1h-32
			c-0.6,0-1-0.4-1-1v-45c0-0.6,0.4-1,1-1h3v41c0,1.7,1.3,3,3,3h27V55.3z M46.6,51.3h-34c-0.6,0-1-0.4-1-1v-45c0-0.6,0.4-1,1-1h21v11
			c0,1.7,1.3,3,3,3h11v32C47.6,50.8,47.2,51.3,46.6,51.3z"/>
		<path class="st1" d="M36.6,32.3h-6v-6c0-0.6-0.4-1-1-1s-1,0.4-1,1v6h-6c-0.6,0-1,0.4-1,1s0.4,1,1,1h6v6c0,0.6,0.4,1,1,1s1-0.4,1-1
			v-6h6c0.6,0,1-0.4,1-1S37.2,32.3,36.6,32.3z"/>
	</g>
</g>
</svg>
