<?xml version="1.0" encoding="utf-8"?>
<!-- Generator: Adobe Illustrator 24.2.0, SVG Export Plug-In . SVG Version: 6.00 Build 0)  -->
<svg version="1.1" id="Layer_1" xmlns="http://www.w3.org/2000/svg" xmlns:xlink="http://www.w3.org/1999/xlink" x="0px" y="0px"
	 viewBox="0 0 100 100" style="enable-background:new 0 0 100 100;" xml:space="preserve">
<style type="text/css">
	.st0{fill:#2F6699;}
</style>
<path class="st0" d="M92.5,79.9c3.1,3.9,2.5,9.5-1.3,12.7c-3.3,2.7-8,2.7-11.3,0L50,62.7L20.1,92.5c-3.9,3.1-9.5,2.5-12.7-1.3
	c-2.7-3.3-2.7-8,0-11.3L37.3,50L7.5,20.1C4.4,16.2,5,10.6,8.8,7.4c3.3-2.7,8-2.7,11.3,0L50,37.3L79.9,7.5c3.9-3.1,9.5-2.5,12.7,1.3
	c2.7,3.3,2.7,8,0,11.3L62.7,50L92.5,79.9z"/>
</svg>
