<?xml version="1.0" encoding="utf-8"?>
<!-- Generator: Adobe Illustrator 24.2.0, SVG Export Plug-In . SVG Version: 6.00 Build 0)  -->
<svg version="1.1" id="Layer_1" xmlns="http://www.w3.org/2000/svg" xmlns:xlink="http://www.w3.org/1999/xlink" x="0px" y="0px"
	 viewBox="0 0 459 470" style="enable-background:new 0 0 459 470;" xml:space="preserve">
<style type="text/css">
	.st0{fill:#333333;}
	.st1{fill-rule:evenodd;clip-rule:evenodd;fill:#333333;}
</style>
<g>
	<path class="st0" d="M230,0c126,0,229,103,229,230c0,126-103,229-229,229c-38,0-76-9-109-27L19,462c-11,3-22-8-18-19l29-100
		C10,309,0,270,0,230C0,103,103,0,230,0z M230,30C119,30,30,119,30,230c0,36,10,72,29,103c2,4,3,8,1,13l-23,80l81-24c4-1,8-1,12,1
		c30,18,65,27,100,27c110,0,200-90,200-200C430,119,340,30,230,30z"/>
	<path class="st0" d="M152,165c8-36,40-62,77-62c43,0,78,35,78,79c0,36-26,68-61,76v34h-34v-46c0-10,8-19,19-20c24-1,42-21,42-44
		c0-25-20-45-44-45c-21,0-39,14-44,35L152,165z"/>
	<path class="st1" d="M229,316c11,0,20,9,20,20s-9,20-20,20s-20-9-20-20S218,316,229,316z"/>
</g>
</svg>
