<?xml version="1.0" encoding="utf-8"?>
<!-- Generator: Adobe Illustrator 25.2.0, SVG Export Plug-In . SVG Version: 6.00 Build 0)  -->
<svg version="1.1" id="Layer_1" xmlns="http://www.w3.org/2000/svg" xmlns:xlink="http://www.w3.org/1999/xlink" x="0px" y="0px"
	 viewBox="0 0 40 40" style="enable-background:new 0 0 40 40;" xml:space="preserve">
<style type="text/css">
	.st0{fill:#FFFFFF;}
	.st1{fill:none;stroke:#313132;stroke-width:2;}
	.st2{fill:#313132;}
</style>
<g transform="matrix(1 0 0 1 -19 -281 )">
	<path class="st0" d="M39,282c10.6,0,19,8.4,19,19s-8.4,19-19,19s-19-8.4-19-19S28.4,282,39,282z"/>
	<path class="st1" d="M39,282c10.6,0,19,8.4,19,19s-8.4,19-19,19s-19-8.4-19-19S28.4,282,39,282z"/>
</g>
<g transform="matrix(1 0 0 1 -28 -290 )">
	<path class="st2" d="M58.4,301.2c0.8,0.8,0.8,2.1,0,2.9l-2,2c-0.2,0.2-0.5,0.2-0.7,0l-4.8-4.8c-0.2-0.2-0.2-0.5,0-0.7l2-2
		c0.8-0.8,2.1-0.8,2.9,0L58.4,301.2z M49.9,302.3c-0.2-0.2-0.5-0.2-0.7,0l-11.3,11.3l-0.9,5.2c-0.1,0.7,0.5,1.3,1.2,1.2l5.2-0.9
		l11.3-11.3c0.2-0.2,0.2-0.5,0-0.7L49.9,302.3z M43.2,312.6c-0.2,0.2-0.6,0.2-0.9,0s-0.2-0.6,0-0.8l6.6-6.6c0.2-0.2,0.6-0.2,0.9,0
		s0.2,0.6,0,0.8L43.2,312.6z M40.8,314.1v2.1h2.1v1.6l-2.8,0.5l-1.3-1.3l0.5-2.8H40.8z"/>
</g>
</svg>
