<?xml version="1.0" encoding="UTF-8"?>
<svg width="1200pt" height="1200pt" version="1.1" viewBox="0 0 1200 1200" xmlns="http://www.w3.org/2000/svg">
 <g fill="#333">
  <path d="m600 40c-148.52 0-290.96 59-395.98 164.02s-164.02 247.46-164.02 395.98 59 290.96 164.02 395.98 247.46 164.02 395.98 164.02 290.96-59 395.98-164.02 164.02-247.46 164.02-395.98c-0.16016-148.47-59.211-290.82-164.2-395.8-104.98-104.98-247.33-164.04-395.8-164.2zm0 1040c-127.3 0-249.39-50.57-339.41-140.59-90.02-90.016-140.59-212.11-140.59-339.41s50.57-249.39 140.59-339.41c90.016-90.02 212.11-140.59 339.41-140.59s249.39 50.57 339.41 140.59c90.02 90.016 140.59 212.11 140.59 339.41-0.13672 127.26-50.754 249.27-140.74 339.26-89.984 89.988-212 140.61-339.26 140.74z"/>
  <path d="m851.72 371.72-371.72 371.72-131.72-131.72c-7.4531-7.7148-17.695-12.117-28.426-12.207-10.727-0.09375-21.043 4.125-28.633 11.711-7.5859 7.5898-11.805 17.906-11.711 28.633 0.089843 10.73 4.4922 20.973 12.207 28.426l160 160c7.5039 7.4961 17.676 11.711 28.281 11.711s20.777-4.2148 28.281-11.711l400-400c9.8125-10.16 13.539-24.742 9.8047-38.367-3.7344-13.621-14.379-24.266-28-28-13.625-3.7344-28.207-0.007812-38.367 9.8047z"/>
 </g>
</svg>
