<?xml version="1.0" encoding="utf-8"?>
<!-- Generator: Adobe Illustrator 24.3.0, SVG Export Plug-In . SVG Version: 6.00 Build 0)  -->
<svg version="1.1" id="Layer_1" xmlns="http://www.w3.org/2000/svg" xmlns:xlink="http://www.w3.org/1999/xlink" x="0px" y="0px"
	 viewBox="0 0 76.8 78" style="enable-background:new 0 0 76.8 78;" xml:space="preserve">
<style type="text/css">
	.st0{fill:#797979;}
</style>
<g>
	<path class="st0" d="M71.7,71.6c-0.8,0.8-1.8,1.1-2.8,1.1s-2-0.4-2.8-1.1L38.8,44.3L11.5,71.6c-0.8,0.8-1.8,1.2-2.8,1.2
		s-2-0.4-2.8-1.1c-1.5-1.5-1.5-4,0-5.5l27.4-27.4L5.9,11.5c-1.5-1.5-1.5-4,0-5.5s4-1.5,5.5,0l27.4,27.3L66.1,5.9
		c1.5-1.5,4-1.5,5.5,0s1.5,4,0,5.5L44.3,38.8l27.4,27.3C73.2,67.6,73.2,70.1,71.7,71.6z"/>
</g>
</svg>
