<?xml version="1.0" encoding="utf-8"?>
<!-- Generator: Adobe Illustrator 24.3.0, SVG Export Plug-In . SVG Version: 6.00 Build 0)  -->
<svg version="1.1" id="Layer_1" xmlns="http://www.w3.org/2000/svg" xmlns:xlink="http://www.w3.org/1999/xlink" x="0px" y="0px"
	 viewBox="0 0 50 50" style="enable-background:new 0 0 50 50;" xml:space="preserve">
<style type="text/css">
	.st0{fill:#169BD5;}
	.st1{fill:#FFFFFF;}
</style>
<g>
	<circle class="st0" cx="25" cy="25" r="23"/>
</g>
<path class="st1" d="M37.8,14.5l-1.4-1.4c-1.5-1.5-4-1.5-5.5,0L14.3,29.8c-0.5,0.5-0.8,1.1-1,1.8L12,37.9c-0.1,0.3,0,0.6,0.3,0.9
	c0.2,0.2,0.4,0.3,0.7,0.3c0.1,0,0.1,0,0.2,0l6.2-1.3c0.7-0.1,1.3-0.5,1.8-1l16.7-16.7C39.3,18.5,39.3,16.1,37.8,14.5z M30.7,15.2
	l2,2L17.1,32.9l-2-2c0-0.1,0.1-0.1,0.1-0.1L30.7,15.2z M13.8,35.9l0.7-3.6l4.1,4.1l-3.6,0.7L13.8,35.9z M20.2,35.7
	c-0.1,0.1-0.1,0.1-0.1,0.1l-2-2l15.7-15.7l2,2L20.2,35.7z M36.8,19.1l-0.2,0.2l-5-5l0.2-0.2c0.5-0.5,1.1-0.7,1.8-0.7
	s1.3,0.3,1.8,0.7l1.4,1.4C37.8,16.5,37.8,18.1,36.8,19.1z"/>
</svg>
