<?xml version="1.0" encoding="utf-8"?>
<!-- Generator: Adobe Illustrator 25.2.0, SVG Export Plug-In . SVG Version: 6.00 Build 0)  -->
<svg version="1.1" id="Layer_1" xmlns="http://www.w3.org/2000/svg" xmlns:xlink="http://www.w3.org/1999/xlink" x="0px" y="0px"
	 viewBox="0 0 89.5 91.8" style="enable-background:new 0 0 89.5 91.8;" xml:space="preserve">
<style type="text/css">
	.st0{fill:#FEDD44;}
	.st1{fill:#333333;stroke:#333333;stroke-width:2;stroke-miterlimit:10;}
</style>
<rect x="-5.9" y="-5.7" class="st0" width="98.4" height="102.2"/>
<path class="st1" d="M45.3,23.3c-1.1,0-2,0.9-2,2v28c0,1.1,0.9,2,2,2s2-0.9,2-2v-28C47.3,24.1,46.4,23.3,45.3,23.3z"/>
<path class="st1" d="M45.3,62.3c-1.1,0-2,0.9-2,2v4c0,1.1,0.9,2,2,2s2-0.9,2-2v-4C47.3,63.1,46.4,62.3,45.3,62.3z"/>
<path class="st1" d="M45.3,3.3c-22.8,0-42,19.2-42,42s19.2,42,42,42s42-19.2,42-42S68,3.3,45.3,3.3z M45.3,83.3
	c-20.6,0-38-17.4-38-38s17.4-38,38-38s38,17.4,38,38S65.8,83.3,45.3,83.3z"/>
</svg>
