<?xml version="1.0" encoding="UTF-8"?>
<svg width="1200pt" height="1200pt" version="1.1" viewBox="0 0 1200 1200" xmlns="http://www.w3.org/2000/svg">
 <path d="m1064.4 456.75c-3.5703-4.2852-8.8594-6.7578-14.438-6.75h-393.75v-75h225c4.9727 0 9.7422-1.9766 13.258-5.4922 3.5156-3.5156 5.4922-8.2852 5.4922-13.258v-225c0-4.9727-1.9766-9.7422-5.4922-13.258-3.5156-3.5156-8.2852-5.4922-13.258-5.4922h-225v-56.25c0-4.9727-1.9766-9.7422-5.4922-13.258-3.5156-3.5156-8.2852-5.4922-13.258-5.4922h-75c-4.9727 0-9.7422 1.9766-13.258 5.4922-3.5156 3.5156-5.4922 8.2852-5.4922 13.258v56.25h-393.75c-5.5781-0.007812-10.867 2.4648-14.438 6.75l-93.75 112.5c-2.8047 3.3711-4.3438 7.6172-4.3438 12s1.5391 8.6289 4.3438 12l93.75 112.5c3.5703 4.2852 8.8594 6.7578 14.438 6.75h393.75v75h-225c-4.9727 0-9.7422 1.9766-13.258 5.4922-3.5156 3.5156-5.4922 8.2852-5.4922 13.258v225c0 4.9727 1.9766 9.7422 5.4922 13.258 3.5156 3.5156 8.2852 5.4922 13.258 5.4922h225v412.5h-318.75v37.5h750v-37.5h-318.75v-412.5h393.75c5.5781 0.007812 10.867-2.4648 14.438-6.75l93.75-112.5c2.8047-3.3711 4.3438-7.6172 4.3438-12s-1.5391-8.6289-4.3438-12zm-483.19-381.75h37.5v37.5h-37.5zm-500.62 168.75 78.188-93.75h703.69v187.5h-703.69zm500.62 131.25h37.5v75h-37.5zm37.5 750h-37.5v-412.5h37.5zm422.44-450h-703.69v-187.5h703.69l78.188 93.75z" fill="#333"/>
</svg>
