<?xml version="1.0" encoding="UTF-8"?>
<svg width="1200pt" height="1200pt" version="1.1" viewBox="0 0 1200 1200" xmlns="http://www.w3.org/2000/svg">
 <path d="m399.05 497.26c3.1875 2.7656 7.125 4.1719 11.062 4.1719s7.875-1.4062 11.062-4.1719l179.9-157.31c5.25-4.5938 7.125-12 4.6875-18.562s-8.7188-10.875-15.75-10.875h-104.67v-100.59c0-73.219-59.578-132.74-132.74-132.74h-69.328c-9.2812 0-16.781 7.5469-16.781 16.781 0 9.2812 7.5469 16.781 16.781 16.781 13.031 0 25.406 5.1094 34.641 14.25 9.2812 9.4219 14.391 21.75 14.391 34.781v150.71l-102.23 0.046876c-6.9844 0-13.266 4.3594-15.75 10.875-2.4375 6.5625-0.60938 13.969 4.6875 18.562zm-49.969-153.14c9.2812 0 16.781-7.5469 16.781-16.781v-167.53c0-17.766-5.625-34.781-16.125-49.078h2.8125c54.656 0 99.141 44.484 99.141 99.141v117.42c0 9.2812 7.5469 16.781 16.781 16.781h76.734l-135.19 118.17-135.24-118.12zm588.66 353.34v-145.45c0-54.938-37.172-102.19-90.234-114.89-2.7656-0.70312-5.5781-1.2656-8.3438-1.7344-6.2344-1.125-12.984-1.6875-20.062-1.6875l-242.68-0.046875c-9.2812 0-16.781 7.5469-16.781 16.781 0 9.2812 7.5469 16.781 16.781 16.781h242.68c5.0625 0 9.7969 0.375 14.156 1.1719 2.0625 0.375 4.0781 0.75 6.1875 1.3125 37.219 8.9062 63.422 41.484 64.547 79.734-15.094-15.375-34.359-26.766-56.531-32.109-2.7656-0.70312-5.625-1.2656-8.2969-1.7344-6.2812-1.125-12.844-1.6875-20.062-1.6875h-485.44c-6.0469 0-11.953 0.42188-18.141 1.3594-3.5625 0.51562-7.0781 1.2656-9.9375 2.0625-22.219 5.3438-41.578 16.734-56.672 32.109 0.75-24.891 12.094-47.906 31.594-63.469 7.2656-5.7656 8.4375-16.359 2.6719-23.625s-16.359-8.4375-23.625-2.6719c-28.219 22.5-44.391 56.156-44.391 92.344v452.39c0 65.297 53.156 118.45 118.55 118.45h485.44c65.391 0 118.59-53.156 118.59-118.45v-80.391c27.844-5.0625 49.078-29.484 49.078-58.781v-108.94c-0.046875-29.344-21.234-53.766-49.078-58.828zm-118.64 391.78h-485.44c-46.828 0-84.938-38.062-84.938-84.844v-372.1c0-39.328 26.578-73.172 65.156-82.406 2.1094-0.5625 4.3125-1.0312 6.5156-1.3594 4.5469-0.65625 8.8594-0.98438 13.266-0.98438h485.44c5.1562 0 9.75 0.375 14.203 1.1719 2.0156 0.32812 4.0312 0.75 6.1406 1.3125 38.062 9.1406 64.641 42.938 64.641 82.266v64.172h-189.84c-51.094 0-92.672 41.625-92.672 92.719v43.078c0 51.141 41.578 92.719 92.672 92.719h189.84l0.046875 79.406c0 46.781-38.156 84.844-85.031 84.844zm134.06-224.02c0 14.438-11.719 26.203-26.109 26.203h-2.2969c-1.2656-0.28125-2.5312-0.46875-3.8438-0.46875-1.2656 0-2.4844 0.1875-3.7031 0.46875h-202.92c-32.578 0-59.062-26.531-59.062-59.156v-43.078c0-32.625 26.484-59.156 59.062-59.156h204.56c0.70312 0.09375 1.3594 0.1875 2.1094 0.1875 0.70312 0 1.3125-0.14062 1.9688-0.1875h4.1719c14.391 0 26.109 11.766 26.109 26.203zm-215.34-102.98c-26.719 0-48.469 21.75-48.469 48.469s21.75 48.469 48.469 48.469 48.469-21.75 48.469-48.469-21.75-48.469-48.469-48.469zm0 63.375c-8.2031 0-14.859-6.6562-14.859-14.906 0-8.2031 6.6562-14.906 14.859-14.906 8.2031 0 14.859 6.6562 14.859 14.906s-6.6562 14.906-14.859 14.906z" fill="#333"/>
</svg>
