<?xml version="1.0" encoding="utf-8"?>
<!-- Generator: Adobe Illustrator 24.3.0, SVG Export Plug-In . SVG Version: 6.00 Build 0)  -->
<svg version="1.1" id="Layer_1" xmlns="http://www.w3.org/2000/svg" xmlns:xlink="http://www.w3.org/1999/xlink" x="0px" y="0px"
	 viewBox="0 0 100 103.5" style="enable-background:new 0 0 100 103.5;" xml:space="preserve">
<style type="text/css">
	.st0{fill:#234075;stroke:#234075;stroke-miterlimit:10;}
</style>
<path class="st0" d="M46.9,76.9L36.3,93.1c-1.3,1.9-3.2,3.2-5.5,3.7c-0.5,0.1-1.1,0.2-1.6,0.2c-1.6,0-3.1-0.5-4.4-1.3
	c-1.9-1.2-3.1-3.2-3.5-5.4c-0.4-2.2,0.2-4.5,1.6-6.2l14.6-19c0.7-0.9,1.9-1,2.8-0.4c0.9,0.7,1,1.9,0.4,2.8l0,0l-14.6,19
	c-1.4,1.8-1,4.4,0.8,5.8c0.1,0.1,0.1,0.1,0.2,0.1c0.9,0.6,2,0.8,3,0.6c1.2-0.2,2.2-0.9,2.9-1.9l10.6-16.2c0.6-0.9,1.9-1.1,2.8-0.5
	C47.2,74.8,47.5,76,46.9,76.9L46.9,76.9z M89,5.2c-3.7-2.7-8.8-2.9-14.3-0.6c-5.6,2.6-10.5,6.6-13.9,11.7
	c-5.1,7.1-7.4,15.2-6.3,21.8c0.2,1.5,0.1,3.1-0.4,4.5c-0.4,1,0.2,2.2,1.3,2.5s2.2-0.2,2.5-1.3l0,0c0.7-2.1,0.9-4.3,0.5-6.5
	c-0.9-5.4,1.3-12.6,5.6-18.8c3.1-4.5,7.3-8.1,12.2-10.4c4.1-1.7,7.8-1.7,10.4,0.1s3.8,5.3,3.5,9.8c-0.5,5.4-2.6,10.6-5.8,14.9
	C80,39.4,73.9,43.8,68.4,44.7c-2.1,0.4-4.1,1.2-5.8,2.5c-0.5,0.4-0.9,0.7-1.3,1.2c-0.8,0.8-0.7,2.1,0.1,2.8s1.9,0.7,2.7,0
	c0.3-0.3,0.6-0.6,1-0.8c1.2-0.9,2.6-1.5,4.1-1.8c6.5-1.1,13.4-6,18.5-13.1c3.7-5,6-10.8,6.6-17C94.6,12.6,92.7,7.9,89,5.2z
	 M45.3,41.6c-0.1-0.2-0.1-0.4,0-0.5c1.8-4,1.3-8.7-1.2-12.2l-17.8-25c-0.6-0.9-1.9-1.1-2.8-0.5S22.4,5.3,23,6.2c0,0,0,0.1,0.1,0.1
	l17.8,24.9c1.7,2.4,2,5.6,0.8,8.3C41,41,41.2,42.7,42.2,44l33,42.7c1.3,1.7,1.1,4.1-0.6,5.4s-4.1,1.1-5.4-0.6
	c-0.1-0.1-0.2-0.2-0.2-0.3L39,46.3c-0.9-1.4-2.5-2.2-4.2-2c-3,0.3-5.8-1-7.6-3.4L9.4,16c-0.6-0.9-1.9-1.1-2.8-0.5s-1.1,1.9-0.5,2.8
	c0,0,0,0.1,0.1,0.1L24,43.2c2.6,3.6,6.8,5.5,11.2,5.1c0.2,0,0.4,0,0.5,0.2l29.9,44.9c1.2,1.8,3,3,5.1,3.4c0.5,0.1,1,0.1,1.4,0.1
	c4.3,0,7.8-3.5,7.8-7.9c0-1.7-0.6-3.4-1.6-4.8L45.3,41.6z M32.6,36.2c1.1,0,2-0.9,2-2c0-0.4-0.1-0.8-0.4-1.2L17.9,9.8
	c-0.6-0.9-1.9-1.1-2.8-0.5c-0.9,0.6-1.1,1.9-0.5,2.8l16.3,23.3C31.3,35.9,31.9,36.2,32.6,36.2z"/>
</svg>
