<?xml version="1.0" encoding="utf-8"?>
<!-- Generator: Adobe Illustrator 24.3.0, SVG Export Plug-In . SVG Version: 6.00 Build 0)  -->
<svg version="1.1" id="Layer_1" xmlns="http://www.w3.org/2000/svg" xmlns:xlink="http://www.w3.org/1999/xlink" x="0px" y="0px"
	 viewBox="0 0 79.5 53.4" style="enable-background:new 0 0 79.5 53.4;" xml:space="preserve">
<style type="text/css">
	.st0{fill:none;stroke:#234075;stroke-width:3;stroke-linecap:round;stroke-linejoin:round;}
</style>
<line class="st0" x1="55" y1="37.3" x2="24.5" y2="37.3"/>
<circle class="st0" cx="18" cy="37.3" r="6.5"/>
<circle class="st0" cx="61.5" cy="37.3" r="6.5"/>
<line class="st0" x1="55" y1="36.8" x2="24.5" y2="36.9"/>
<path class="st0" d="M11.6,36.9L11.6,36.9c-3-0.5-5.1-1.8-5.1-3.5v-9.7c0-0.6,0.3-1.2,0.7-1.6l0,0l9.6-11c0.8-0.9,1.9-1.4,3.1-1.4
	h26c1.4,0,2.6,0.7,3.4,1.8l7.9,11.3c0.2,0.3,0.5,0.4,0.8,0.4h7c4,0,7.3,1.6,7.3,3.6v6.6c0,1.5-1.8,2.8-4.4,3.3"/>
<line class="st0" x1="58.1" y1="23.3" x2="7.2" y2="22.2"/>
<line class="st0" x1="33.6" y1="22.7" x2="33.6" y2="10.2"/>
</svg>
