<?xml version="1.0" encoding="UTF-8"?>
<svg width="1200pt" height="1200pt" version="1.1" viewBox="0 0 1200 1200" xmlns="http://www.w3.org/2000/svg">
 <g fill="#333">
  <path d="m468.4 287.5c220.85 0 400 179.1 400 400s-179.1 400-400 400c-220.9 0-400-179.1-400-400s179.1-400 400-400zm0-50c-248.1 0-450 201.85-450 450s201.9 450 450 450c248.1 0 450-201.85 450-450s-201.9-450-450-450z"/>
  <path d="m1068.4 712.5c-13.75 0-25-11.25-25-25 0-317.05-257.9-575-575-575-13.801 0-25-11.25-25-25s11.199-25 25-25c344.65 0 625 280.35 625 625 0 13.75-11.199 25-25 25z"/>
  <path d="m1068.4 725c-7.6016 0-14.75-3.3984-19.648-9.3984l-129.6-162.5c-8.6992-10.852-6.9492-26.5 3.8984-35.148 10.75-8.5 26.551-6.8984 35.051 4l104.6 131.05 71.301-151.85c5.9492-12.602 20.801-17.898 33.199-12.102 12.5 5.9492 17.852 20.801 12 33.301l-88.301 188.3c-3.6992 7.8516-11.25 13.301-19.801 14.199-0.75 0.10156-1.6992 0.14844-2.6992 0.14844z"/>
  <path d="m468.4 712.5c-6.3984 0-12.801-2.4492-17.699-7.3008-9.75-9.6484-9.75-25.602 0-35.352l200-200c9.75-9.6484 25.602-9.6484 35.352 0 9.75 9.75 9.75 25.699 0 35.352l-200 200c-4.8516 4.8516-11.25 7.3008-17.648 7.3008z"/>
  <path d="m468.4 712.5c-6.3984 0-12.801-2.4492-17.699-7.3008l-150-150c-9.75-9.6484-9.75-25.602 0-35.352 9.75-9.6484 25.602-9.6484 35.352 0l150 150c9.75 9.75 9.75 25.699 0 35.352-4.8516 4.8516-11.25 7.3008-17.648 7.3008z"/>
 </g>
</svg>
