<svg height='100px' width='100px'  fill="#234075" xmlns="http://www.w3.org/2000/svg" viewBox="0 0 32 32" x="0px" y="0px"><title>menu_1</title><g data-name="menu"><path d="M12.18,4H6.82A2.83,2.83,0,0,0,4,6.82v5.36A2.83,2.83,0,0,0,6.82,15h5.36A2.83,2.83,0,0,0,15,12.18V6.82A2.83,2.83,0,0,0,12.18,4ZM13,12.18a.82.82,0,0,1-.82.82H6.82A.82.82,0,0,1,6,12.18V6.82A.82.82,0,0,1,6.82,6h5.36a.82.82,0,0,1,.82.82Z"></path><path d="M25.18,4H19.82A2.83,2.83,0,0,0,17,6.82v5.36A2.83,2.83,0,0,0,19.82,15h5.36A2.83,2.83,0,0,0,28,12.18V6.82A2.83,2.83,0,0,0,25.18,4ZM26,12.18a.82.82,0,0,1-.82.82H19.82a.82.82,0,0,1-.82-.82V6.82A.82.82,0,0,1,19.82,6h5.36a.82.82,0,0,1,.82.82Z"></path><path d="M12.18,17H6.82A2.83,2.83,0,0,0,4,19.82v5.36A2.83,2.83,0,0,0,6.82,28h5.36A2.83,2.83,0,0,0,15,25.18V19.82A2.83,2.83,0,0,0,12.18,17ZM13,25.18a.82.82,0,0,1-.82.82H6.82A.82.82,0,0,1,6,25.18V19.82A.82.82,0,0,1,6.82,19h5.36a.82.82,0,0,1,.82.82Z"></path><path d="M25.18,17H19.82A2.83,2.83,0,0,0,17,19.82v5.36A2.83,2.83,0,0,0,19.82,28h5.36A2.83,2.83,0,0,0,28,25.18V19.82A2.83,2.83,0,0,0,25.18,17ZM26,25.18a.82.82,0,0,1-.82.82H19.82a.82.82,0,0,1-.82-.82V19.82a.82.82,0,0,1,.82-.82h5.36a.82.82,0,0,1,.82.82Z"></path></g></svg>