<?xml version="1.0" encoding="UTF-8"?>
<svg xmlns="http://www.w3.org/2000/svg" xmlns:xlink="http://www.w3.org/1999/xlink" width="100px" height="100px" viewBox="0 0 100 100" version="1.1">
<g id="surface1">
<path style=" stroke:none;fill-rule:nonzero;fill:rgb(13.333333%,24.705882%,45.882353%);fill-opacity:1;" d="M 85.785156 18.75 L 85.699219 15.5 L 83.066406 15.289062 C 69.902344 14.234375 59.410156 10.546875 51.878906 4.328125 L 49.984375 2.761719 L 48.109375 4.347656 C 47.792969 4.617188 47.464844 4.882812 47.125 5.144531 C 39.972656 10.707031 28.980469 14.402344 16.964844 15.285156 L 14.3125 15.480469 L 14.234375 18.40625 C 13.148438 58.460938 12.742188 73.445312 48.441406 95.898438 L 50.007812 96.882812 L 51.574219 95.894531 C 87.230469 73.417969 86.835938 58.53125 85.78125 18.75 Z M 50.003906 89.921875 C 19.363281 70.265625 19.058594 58.125 20.050781 20.914062 C 31.914062 19.664062 42.445312 15.953125 50.015625 10.332031 C 57.746094 16.035156 67.789062 19.582031 79.953125 20.898438 C 80.933594 58.113281 80.710938 70.183594 50.003906 89.921875 Z M 50.003906 89.921875 "/>
<path style=" stroke:none;fill-rule:nonzero;fill:rgb(13.333333%,24.705882%,45.882353%);fill-opacity:1;" d="M 45.421875 56.429688 L 35.871094 46.523438 L 31.636719 50.605469 L 45.433594 64.914062 L 68.371094 41.007812 L 64.125 36.933594 Z M 45.421875 56.429688 "/>
</g>
</svg>
