<?xml version="1.0" encoding="utf-8"?>
<svg version="1.1" xmlns:xlink="http://www.w3.org/1999/xlink" width="26px" height="26px" xmlns="http://www.w3.org/2000/svg">
  <g transform="matrix(1 0 0 1 -33 -23 )">
    <path d="M 25.3382977791406 12.6691488895703  C 25.2972972972973 5.65806649437119  19.6392308029261 0  12.6691488895703 0  C 5.65806649437119 0  0 5.65806649437119  0 12.6691488895703  C 0 19.6392308029261  5.65806649437119 25.3382977791406  12.6691488895703 25.3382977791406  C 19.6802312847694 25.3382977791406  25.3382977791406 19.6802312847694  25.3382977791406 12.6691488895703  Z M 23.7802794690963 12.6691488895703  C 23.7802794690963 15.4161811730693  22.7552674230146 17.9172105655088  21.1152481492838 19.8442332121424  C 19.8442332121424 17.8352096018222  17.8762100836655 16.3591922554645  15.662184064129 15.6211835822857  C 16.8101975557405 14.7191729817338  17.5892067107626 13.3251565990626  17.5892067107626 11.7261378071751  C 17.5892067107626 9.02010600551929  15.3751806912261 6.76507950413947  12.628148407727 6.76507950413947  C 9.92211660607123 6.76507950413947  7.6670901046914 8.97910552367602  7.6670901046914 11.7261378071751  C 7.6670901046914 13.3251565990626  8.44609925971352 14.7191729817338  9.59411275132507 15.6211835822857  C 7.38008673178851 16.3181917736213  5.41206360331158 17.794209119979  4.14104866617022 19.8442332121424  C 2.50102939243944 17.9172105655088  1.4760173463577 15.4161811730693  1.4760173463577 12.6691488895703  C 1.4760173463577 6.51907661307985  6.47807613123658 1.55801831004424  12.5871479258837 1.55801831004424  C 18.6962197205309 1.55801831004424  23.7802794690963 6.51907661307985  23.7802794690963 12.6691488895703  Z M 20.0492356213588 20.9512462219107  C 18.0812124928819 22.7142669411713  15.4981821367559 23.7802794690963  12.6691488895703 23.7802794690963  C 9.84011564238468 23.7802794690963  7.2570852862587 22.7142669411713  5.28906215778177 20.9512462219107  C 5.28906215778177 20.9102457400675  5.33006263962504 20.9102457400675  5.37106312146831 20.8692452582242  C 6.88808094966928 18.2862149020982  9.67611371501161 16.6871961102107  12.6691488895703 16.6871961102107  C 15.662184064129 16.6871961102107  18.4502168294713 18.2862149020982  19.9672346576723 20.8692452582242  C 19.9672346576723 20.9102457400675  20.0082351395155 20.9102457400675  20.0492356213588 20.9512462219107  Z M 12.6691488895703 15.1291778001665  C 10.7831267247799 15.1291778001665  9.26610889657891 13.6121599719655  9.26610889657891 11.7261378071751  C 9.26610889657891 9.84011564238468  10.7831267247799 8.32309781418371  12.6691488895703 8.32309781418371  C 14.5551710543607 8.32309781418371  16.0721888825617 9.84011564238468  16.0721888825617 11.7261378071751  C 16.0721888825617 13.6121599719655  14.5551710543607 15.1291778001665  12.6691488895703 15.1291778001665  Z " fill-rule="nonzero" fill="#234075" stroke="none" transform="matrix(1 0 0 1 33 23 )" />
  </g>
</svg>