<?xml version="1.0" encoding="utf-8"?>
<svg version="1.1" xmlns:xlink="http://www.w3.org/1999/xlink" width="10px" height="30px" xmlns="http://www.w3.org/2000/svg">
  <g transform="matrix(1 0 0 1 -35 -21 )">
    <path d="M 9.80891719745223 0.859872611464968  C 9.76645435244161 0.520169851380042  9.4692144373673 0.265392781316348  9.12951167728238 0.265392781316348  C 8.74734607218684 0.265392781316348  8.53503184713376 0.520169851380042  8.53503184713376 0.859872611464968  L 8.53503184713376 7.56900212314225  L 6.92144373673036 7.56900212314225  L 6.92144373673036 0.859872611464968  C 6.92144373673036 0.477707006369426  6.66666666666667 0.265392781316348  6.32696390658174 0.265392781316348  C 5.9447983014862 0.265392781316348  5.73248407643312 0.520169851380042  5.73248407643312 0.859872611464968  L 5.73248407643312 7.56900212314225  L 4.11889596602972 7.56900212314225  L 4.11889596602972 0.859872611464968  C 4.11889596602972 0.520169851380042  3.86411889596603 0.265392781316348  3.48195329087049 0.265392781316348  C 3.14225053078556 0.265392781316348  2.88747346072187 0.520169851380042  2.88747346072187 0.859872611464968  L 2.88747346072187 7.56900212314225  L 1.23142250530786 7.56900212314225  L 1.23142250530786 0.859872611464968  C 1.23142250530786 0.520169851380042  0.976645435244161 0.265392781316348  0.59447983014862 0.265392781316348  C 0.212314225053079 0.265392781316348  0 0.520169851380042  0 0.859872611464968  L 0 8.16348195329087  C 0 10.244161358811  1.27388535031847 11.9851380042463  3.14225053078556 12.7070063694268  L 2.50530785562633 27.2717622080679  C 2.46284501061571 27.9511677282378  2.67515923566879 28.5456475583864  3.18471337579618 28.9702760084926  C 3.60934182590234 29.47983014862  4.24628450106157 29.692144373673  4.88322717622081 29.692144373673  C 5.56263269639066 29.692144373673  6.15711252653928 29.4373673036093  6.58174097664544 28.9702760084926  C 7.00636942675159 28.5031847133758  7.26114649681529 27.8662420382166  7.26114649681529 27.2717622080679  L 6.66666666666667 12.7070063694268  C 8.49256900212314 11.9851380042463  9.80891719745223 10.244161358811  9.80891719745223 8.16348195329087  L 9.80891719745223 0.859872611464968  Z M 5.47770700636943 13.0042462845011  L 6.02972399150743 27.3142250530786  C 6.02972399150743 27.6114649681529  5.90233545647558 27.9087048832272  5.73248407643312 28.1634819532909  C 5.30785562632696 28.588110403397  4.50106157112527 28.588110403397  4.07643312101911 28.1634819532909  C 3.82165605095541 27.9087048832272  3.7791932059448 27.6114649681529  3.7791932059448 27.3142250530786  L 4.37367303609342 13.0042462845011  C 4.54352441613588 13.0042462845011  4.75583864118896 13.0467091295117  4.92569002123142 13.0467091295117  C 5.09554140127389 13.0467091295117  5.30785562632697 13.0467091295117  5.47770700636943 13.0042462845011  Z M 8.45010615711253 8.80042462845011  C 8.15286624203822 10.4564755838641  6.70912951167728 11.8152866242038  4.84076433121019 11.8152866242038  C 3.05732484076433 11.8152866242038  1.52866242038217 10.5414012738854  1.27388535031847 8.80042462845011  L 8.45010615711253 8.80042462845011  Z " fill-rule="nonzero" fill="#234075" stroke="none" transform="matrix(1 0 0 1 35 21 )" />
  </g>
</svg>