<?xml version="1.0" encoding="utf-8"?>
<!-- Generator: Adobe Illustrator 24.3.0, SVG Export Plug-In . SVG Version: 6.00 Build 0)  -->
<svg version="1.1"
	 id="Layer_1" xmlns:cc="http://creativecommons.org/ns#" xmlns:dc="http://purl.org/dc/elements/1.1/" xmlns:inkscape="http://www.inkscape.org/namespaces/inkscape" xmlns:rdf="http://www.w3.org/1999/02/22-rdf-syntax-ns#" xmlns:sodipodi="http://sodipodi.sourceforge.net/DTD/sodipodi-0.dtd" xmlns:svg="http://www.w3.org/2000/svg"
	 xmlns="http://www.w3.org/2000/svg" xmlns:xlink="http://www.w3.org/1999/xlink" x="0px" y="0px" viewBox="0 0 100 98"
	 style="enable-background:new 0 0 100 98;" xml:space="preserve">
<style type="text/css">
	.st0{fill:#234075;}
</style>
<g transform="translate(0,-952.36218)">
	<path class="st0" d="M28.9,962.4c-0.6,0-1.1,0.3-1.5,0.7L6.5,986.7c-0.7,0.8-0.6,2.1,0.1,2.8l11.7,11c0.8,0.8,2.3,0.6,3-0.3
		l4.8-6.5v46.7c0,1,1,2,2,2H72c1,0,2-1,2-2v-46.7l4.8,6.5c0.7,0.9,2.1,1,3,0.3l11.7-11c0.7-0.7,0.8-2,0.1-2.8l-21-23.7
		c-0.4-0.4-0.9-0.7-1.5-0.7C57,962.4,43,962.4,28.9,962.4z M29.8,966.4h8.8v0.3c0,6.3,5.1,11.4,11.4,11.4s11.4-5.1,11.4-11.4v-0.3
		h8.8l19,21.5l-8.6,8.1l-7-9.7c-0.5-0.7-1.4-1-2.2-0.7c-0.8,0.3-1.4,1.1-1.4,1.9v12.3H30.1v-12.3c0-0.8-0.6-1.7-1.4-1.9
		s-1.8,0-2.2,0.7l-7,9.7l-8.6-8.1L29.8,966.4z M42.6,966.4h14.8v0.3c0,4.1-3.3,7.4-7.4,7.4s-7.4-3.3-7.4-7.4
		C42.6,966.7,42.6,966.4,42.6,966.4z M30.1,1003.8H70v4.8H30.1V1003.8z M30.1,1012.5H70v25.8H30.1V1012.5z"/>
</g>
</svg>
