<?xml version="1.0" encoding="utf-8"?>
<!-- Generator: Adobe Illustrator 24.3.0, SVG Export Plug-In . SVG Version: 6.00 Build 0)  -->
<svg version="1.1"
	 id="Layer_1" xmlns:cc="http://creativecommons.org/ns#" xmlns:dc="http://purl.org/dc/elements/1.1/" xmlns:inkscape="http://www.inkscape.org/namespaces/inkscape" xmlns:rdf="http://www.w3.org/1999/02/22-rdf-syntax-ns#" xmlns:sodipodi="http://sodipodi.sourceforge.net/DTD/sodipodi-0.dtd" xmlns:svg="http://www.w3.org/2000/svg"
	 xmlns="http://www.w3.org/2000/svg" xmlns:xlink="http://www.w3.org/1999/xlink" x="0px" y="0px" viewBox="0 0 100 89"
	 style="enable-background:new 0 0 100 89;" xml:space="preserve">
<style type="text/css">
	.st0{fill:#234075;stroke:#FFFFFF;stroke-miterlimit:10;}
</style>
<g transform="translate(0,-952.36218)">
	<path class="st0" d="M50,964.4c-0.6,0-1.2,0.2-1.8,0.6l-38,30c-1,1-1.7,3.1-0.7,4.3c1,1.3,3.1,1.5,4.3,0.4L50,971.2l36.2,28.5
		c1.2,1.1,3.4,0.9,4.3-0.4c0.8-1.2,0.6-3.4-0.7-4.3l-38-30C51.2,964.5,50.6,964.4,50,964.4z M26,993.6l-6,4.8v29c0,1.7,1.3,3,3,3h19
		c1.7,0,3-1.3,3-3v-12c0-2.8,2.2-5,5-5s5,2.2,5,5v12c0,1.7,1.3,3,3,3h19c1.7,0,3-1.3,3-3v-29l-6-4.8v30.7H61v-9c0-6-5-11-11-11
		s-11,5-11,11v9H26V993.6z"/>
</g>
</svg>
