<?xml version="1.0" encoding="utf-8"?>
<!-- Generator: Adobe Illustrator 24.3.0, SVG Export Plug-In . SVG Version: 6.00 Build 0)  -->
<svg version="1.1" id="Layer_1" xmlns="http://www.w3.org/2000/svg" xmlns:xlink="http://www.w3.org/1999/xlink" x="0px" y="0px"
	 viewBox="0 0 67.7 104.3" style="enable-background:new 0 0 67.7 104.3;" xml:space="preserve">
<style type="text/css">
	.st0{fill:#234075;}
</style>
<g>
	<path class="st0" d="M32.3,23.2c0-2-1.6-3.6-3.6-3.7V12c0-1.9-1.6-3.5-3.5-3.5H15.1c-1.9,0-3.5,1.6-3.5,3.5v7.5
		c-2,0.1-3.6,1.7-3.6,3.7L7,87.7c0,1,0.4,1.9,1.1,2.7c0.7,0.7,1.6,1.1,2.6,1.1h19c1,0,1.9-0.4,2.6-1.1c0.7-0.7,1.1-1.7,1.1-2.7
		L32.3,23.2L32.3,23.2z M25.7,12v7.5h-2.2v-8h1.7C25.5,11.5,25.7,11.7,25.7,12z M21.6,19.5h-2.8v-8h2.8V19.5z M14.6,12
		c0-0.3,0.2-0.5,0.5-0.5h1.7v8h-2.2C14.6,19.5,14.6,12,14.6,12z M11.1,23.2c0-0.4,0.3-0.7,0.7-0.7h16.9c0.4,0,0.7,0.3,0.7,0.7l0,0
		l1,58.4H10.1L11.1,23.2z M30.2,88.3c-0.1,0.1-0.2,0.2-0.5,0.2h-19c-0.3,0-0.4-0.1-0.5-0.2S10,88.1,10,87.8l0.1-3.2h20.3l0.1,3.2
		C30.4,88.1,30.3,88.2,30.2,88.3z"/>
	<path class="st0" d="M57.1,8.5H43.8c-1.9,0-3.5,1.6-3.5,3.5v76c0,1.9,1.6,3.5,3.5,3.5h2.5c1.9,0,3.5-1.6,3.5-3.5V35.7H57
		c1.9,0,3.5-1.6,3.5-3.5V12C60.6,10.1,59,8.5,57.1,8.5z M46.9,88c0,0.3-0.2,0.5-0.5,0.5h-2.5c-0.3,0-0.5-0.2-0.5-0.5V12
		c0-0.3,0.2-0.5,0.5-0.5h2.5c0.3,0,0.5,0.2,0.5,0.5V88z M57.6,13.1H52c-0.6,0-1,0.4-1,1s0.4,1,1,1h5.6v2H52c-0.6,0-1,0.4-1,1
		s0.4,1,1,1h5.6v2H52c-0.6,0-1,0.4-1,1s0.4,1,1,1h5.6v2H52c-0.6,0-1,0.4-1,1s0.4,1,1,1h5.6v2H52c-0.6,0-1,0.4-1,1s0.4,1,1,1h5.6v1.1
		c0,0.3-0.2,0.5-0.5,0.5h-7.2V12c0-0.2,0-0.3-0.1-0.5h7.3c0.3,0,0.5,0.2,0.5,0.5V13.1z"/>
</g>
</svg>
