<?xml version="1.0" encoding="UTF-8"?>
<svg version="1.1" viewBox="0 0 1200 1200" xmlns="http://www.w3.org/2000/svg">
 <g fill="#223f75">
  <path d="m1029.4 225-1.0312-39-31.594-2.5312c-157.97-12.656-283.87-56.906-374.21-131.53l-22.734-18.797-22.5 19.031c-3.7969 3.2344-7.7344 6.4219-11.812 9.5625-85.828 66.75-217.74 111.09-361.92 121.69l-31.828 2.3438-0.9375 35.109c-13.031 480.66-17.906 660.47 410.48 929.9l18.797 11.812 18.797-11.859c427.87-269.72 423.14-448.36 410.48-925.74zm-429.37 854.06c-367.69-235.87-371.34-381.56-359.44-828.1 142.4-15 268.74-59.531 359.58-126.98 92.766 68.438 213.32 111 359.26 126.79 11.766 446.58 9.0938 591.42-359.39 828.28z"/>
  <path d="m545.06 677.16-114.61-118.88-50.812 48.984 165.56 171.71 275.26-286.87-50.953-48.891z"/>
 </g>
</svg>
