<svg height='100px' width='100px'  fill="#333333" xmlns="http://www.w3.org/2000/svg" data-name="Layer 1" viewBox="0 0 100 100" x="0px" y="0px"><title>Artboard 4</title><path d="M93,38.5l-12.8-1.66-3.41-8.39a14.52,14.52,0,0,0-1-2A12.82,12.82,0,1,0,62.5,16.18a.81.81,0,0,1-.47-.1A100.32,100.32,0,0,0,45.36,9l-1.44-.47a7.17,7.17,0,0,0-7.26,1.73L24.38,22.36a7.34,7.34,0,0,0-.52,10,7.22,7.22,0,0,0,10.52.4l9-8.9,4.35,2.28L40.65,37l-.06.1a16,16,0,0,0-2.07,6.08L24.43,56.09,11.77,51.48A8.43,8.43,0,0,0,1.31,55.59a8.16,8.16,0,0,0-.19,6.68,8.26,8.26,0,0,0,4.81,4.62l17.57,6.4a8.2,8.2,0,0,0,2.84.5,8.16,8.16,0,0,0,5.38-2L46.44,61l6.84,8.7L45.22,87.25a8.42,8.42,0,0,0,2,9.95A8.25,8.25,0,0,0,50.76,99a8,8,0,0,0,1,.16,8.34,8.34,0,0,0,.89,0,8.24,8.24,0,0,0,7.49-4.81L70.35,72a8.22,8.22,0,0,0-.77-8.19L62.44,50.35l4.26-7.45,1.56,3.19a7.2,7.2,0,0,0,5.12,4.4c.23.05.46.09.67.12L91.3,52.85a7.07,7.07,0,0,0,5.53-1.55,7.17,7.17,0,0,0,2.65-5.06A7.43,7.43,0,0,0,93,38.5ZM28.66,67.82l-.2.16a3.18,3.18,0,0,1-2.87.73l-.38-.11L7.64,62.19a3.25,3.25,0,0,1-1.89-1.82,3.18,3.18,0,0,1,.08-2.64,3.43,3.43,0,0,1,4.24-1.56l14.08,5.13a2.5,2.5,0,0,0,2.54-.5L39,49.56a16,16,0,0,0,2.82,5.51l1.54,2Zm65-20.41a2.13,2.13,0,0,1-1.69.48l-17.3-2.25-.2,0a2.21,2.21,0,0,1-1.59-1.39,2.41,2.41,0,0,0-.1-.23l-3.68-7.53a2.5,2.5,0,0,0-4.42-.14L57.42,49.06a2.5,2.5,0,0,0,0,2.41l7.88,14.84a2.51,2.51,0,0,0,.23.36,3.16,3.16,0,0,1,.31,3.23L55.55,92.28a3.3,3.3,0,0,1-3.3,1.87l-.37-.06a3.31,3.31,0,0,1-1.41-.71,3.42,3.42,0,0,1-.71-4l8.7-19a2.5,2.5,0,0,0-.31-2.59L45.74,52a10.89,10.89,0,0,1-.87-12.26l8.57-13.13A2.5,2.5,0,0,0,52.51,23l-8.4-4.4a2.5,2.5,0,0,0-2.92.44L30.87,29.23a2.24,2.24,0,0,1-2.07.59,2.19,2.19,0,0,1-1.18-.71,2.34,2.34,0,0,1,.27-3.18L40.17,13.81a2.19,2.19,0,0,1,2.22-.53l1.44.47a95.25,95.25,0,0,1,15.83,6.74,5.77,5.77,0,0,0,7-1.16,3.85,3.85,0,0,0,.88-3.67,7.74,7.74,0,0,1,.14-4.53,7.9,7.9,0,0,1,8.24-5.24,7.8,7.8,0,0,1,6.74,9.49,7.79,7.79,0,0,1-8.32,6l-.9-.18a3.59,3.59,0,0,0-3.3,6,9.65,9.65,0,0,1,2,3.1l4,9.75a2.5,2.5,0,0,0,2,1.54l14.25,1.85a2.41,2.41,0,0,1,2.16,2.4A2.18,2.18,0,0,1,93.68,47.42Z"></path><path d="M3,29.68h9.63a2.5,2.5,0,1,0,0-5H3a2.5,2.5,0,0,0,0,5Z"></path><path d="M11.19,15.36h9.63a2.5,2.5,0,0,0,0-5H11.19a2.5,2.5,0,0,0,0,5Z"></path><path d="M8.69,41.49a2.5,2.5,0,0,0,2.5,2.5h9.63a2.5,2.5,0,0,0,0-5H11.19A2.5,2.5,0,0,0,8.69,41.49Z"></path></svg>