<?xml version="1.0" encoding="utf-8"?>
<svg version="1.1" xmlns:xlink="http://www.w3.org/1999/xlink" width="9px" height="30px" xmlns="http://www.w3.org/2000/svg">
  <g transform="matrix(1 0 0 1 -46 -21 )">
    <path d="M 6.55732484076433 12.6220806794055  C 8.04777070063694 11.6029723991507  9 9.26751592356688  9 6.71974522292994  C 9 3.06794055201698  7.13694267515924 0.265392781316348  4.81847133757962 0.265392781316348  C 2.5 0.265392781316348  0.636942675159234 3.06794055201698  0.636942675159234 6.71974522292994  C 0.636942675159234 9.30997876857749  1.58917197452229 11.6454352441614  3.0796178343949 12.6220806794055  L 2.5 27.2292993630573  C 2.45859872611465 27.9087048832272  2.6656050955414 28.5031847133758  3.1624203821656 28.927813163482  C 3.57643312101911 29.4373673036093  4.19745222929936 29.6496815286624  4.81847133757962 29.6496815286624  C 5.48089171974522 29.6496815286624  6.06050955414013 29.3949044585987  6.47452229299363 28.927813163482  C 6.88853503184713 28.4182590233546  7.13694267515924 27.8237791932059  7.13694267515924 27.2292993630573  L 6.55732484076433 12.6220806794055  Z M 7.84076433121019 6.67728237791932  C 7.79936305732484 8.97027600849257  6.92993630573249 11.0509554140127  5.64649681528662 11.7303609341826  C 5.48089171974522 11.8577494692144  5.27388535031847 12.0276008492569  5.35668789808917 12.2823779193206  L 5.93630573248408 27.2717622080679  C 5.93630573248408 27.5690021231423  5.81210191082802 27.8662420382166  5.64649681528662 28.1210191082803  C 5.23248407643312 28.5456475583864  4.44585987261146 28.5456475583864  4.03184713375796 28.1210191082803  C 3.78343949044586 27.8662420382166  3.74203821656051 27.5690021231423  3.74203821656051 27.2717622080679  L 4.32165605095541 12.2823779193206  C 4.32165605095541 12.0276008492569  4.19745222929936 11.7728237791932  4.03184713375795 11.7303609341826  C 2.78980891719745 11.0509554140127  1.87898089171974 9.01273885350318  1.87898089171974 6.67728237791932  C 1.87898089171974 3.87473460721868  3.2452229299363 1.45435244161359  4.85987261146496 1.45435244161359  C 6.47452229299362 1.45435244161359  7.84076433121019 3.83227176220807  7.84076433121019 6.67728237791932  Z " fill-rule="nonzero" fill="#ffffff" stroke="none" transform="matrix(1 0 0 1 46 21 )" />
  </g>
</svg>