<svg height='100px' width='100px'  fill="#ffffff" xmlns="http://www.w3.org/2000/svg" xmlns:xlink="http://www.w3.org/1999/xlink" version="1.1" x="0px" y="0px" viewBox="0 0 48 48" enable-background="new 0 0 48 48" xml:space="preserve"><g><path d="M40.3,10.5c0-5.9-3.1-10.5-7-10.5c-3.9,0-7,4.6-7,10.5c0,4.2,1.6,8,4.1,9.6l-1,23.8c-0.1,1.1,0.3,2.1,1.1,2.8   c0.7,0.8,1.7,1.2,2.8,1.2c1.1,0,2.1-0.4,2.8-1.2c0.7-0.8,1.1-1.8,1.1-2.8l-1-23.8C38.7,18.5,40.3,14.7,40.3,10.5z M34.7,18.7   c-0.3,0.2-0.6,0.5-0.5,0.9l1,24.4c0,0.5-0.2,1-0.5,1.4c-0.7,0.7-2,0.7-2.7,0c-0.4-0.4-0.5-0.9-0.5-1.4l1-24.4   c0-0.4-0.2-0.8-0.5-0.9c-2.1-1.1-3.6-4.4-3.6-8.2c0-4.6,2.3-8.5,5-8.5c2.7,0,5,3.9,5,8.5C38.3,14.2,36.8,17.6,34.7,18.7z"></path><path d="M22.6,0c-0.6,0-1,0.4-1,1v10.9h-2.6V1c0-0.6-0.4-1-1-1c-0.6,0-1,0.4-1,1v10.9h-2.6V1c0-0.6-0.4-1-1-1c-0.6,0-1,0.4-1,1   v10.9H9.7V1c0-0.6-0.4-1-1-1c-0.6,0-1,0.4-1,1v11.9c0,3.4,2.1,6.2,5.1,7.4l-1,23.7c-0.1,1.1,0.3,2.1,1.1,2.8   c0.7,0.8,1.7,1.2,2.8,1.2c1.1,0,2.1-0.4,2.8-1.2s1.1-1.8,1.1-2.8l-1-23.7c3-1.2,5.1-4,5.1-7.4V1C23.6,0.4,23.1,0,22.6,0z    M17.5,44.1c0,0.5-0.2,1-0.5,1.4c-0.7,0.7-2,0.7-2.7,0c-0.4-0.4-0.5-0.9-0.5-1.4l1-23.3c0.3,0,0.6,0.1,0.9,0.1s0.6,0,0.9-0.1   L17.5,44.1z M15.6,18.8c-2.9,0-5.4-2.1-5.8-4.9h11.7C21,16.6,18.6,18.8,15.6,18.8z"></path></g></svg>