<!-- Generator: Adobe Illustrator 25.1.0, SVG Export Plug-In  -->
<svg version="1.1" xmlns="http://www.w3.org/2000/svg" xmlns:xlink="http://www.w3.org/1999/xlink" x="0px" y="0px" width="86.6px"
	 height="86.6px" viewBox="0 0 86.6 86.6" style="overflow:visible;enable-background:new 0 0 86.6 86.6;" xml:space="preserve">
<style type="text/css">
	.st0{fill:#333333;}
</style>
<defs>
</defs>
<g>
	<path class="st0" d="M31.4,71.4c-1,0-2.1-0.1-3-0.4c-3.6-0.9-5.9-3.4-5.9-6.7c0-4.5,1.1-12.7,8.3-16.8c1.1-0.6,1.9-1.6,2.3-2.8
		c1.5-4.8,5.6-8,10.3-8s8.8,3.2,10.3,8c0.4,1.2,1.2,2.2,2.3,2.8c5.3,3,8.2,8.8,8.3,16.8c0,3.2-2.2,5.7-5.9,6.7c-0.9,0.2-2,0.3-3,0.3
		c-4.9,0-9.4-2.5-11.4-6.4c-0.2-0.3-0.6-0.3-0.6-0.3c0,0-0.3,0-0.5,0.4C40.7,68.9,36.2,71.4,31.4,71.4z M43.3,60.8
		c1.6,0,3.2,1,4,2.5c1.6,3,5.1,4.3,7.9,4.3c0.7,0,1.4-0.1,2.1-0.2c0.9-0.2,2.8-0.9,2.8-2.9c0-4.5-1.1-10.5-6.2-13.4
		c-2-1-3.5-2.9-4.1-5.1c-0.9-3.1-3.5-5.1-6.4-5.1s-5.5,2.1-6.4,5.1c-0.8,2.2-2.2,4-4.1,5.1c-5.2,3-6.3,8.9-6.3,13.4
		c0,1.7,1.5,2.5,2.8,2.8c0.6,0.2,1.3,0.2,2.1,0.2c2.8,0,6.3-1.3,7.9-4.2C40,61.7,41.6,60.8,43.3,60.8z"/>
	<path class="st0" d="M55.6,48c-1.2-0.7-2.1-1.8-2.5-3.1c-1.4-4.5-5.3-7.6-9.8-7.6s-8.4,3.1-9.8,7.6c-0.4,1.3-1.3,2.4-2.5,3.1
		c-7,4-8,12-8,16.4c0,3,2.1,5.4,5.5,6.2c4.7,1.2,11.1-0.7,13.9-5.8c0.3-0.5,0.7-0.6,0.9-0.6s0.7,0.1,1,0.6c2.2,4.1,6.8,6.1,11,6.1
		c1,0,2-0.1,2.9-0.3c3.4-0.9,5.5-3.2,5.5-6.2C63.6,60,62.6,52,55.6,48z M57.4,67.8c-3.5,0.9-8.5-0.5-10.5-4.3
		c-0.7-1.3-2.1-2.2-3.6-2.2s-2.9,0.8-3.6,2.2c-2,3.7-7,5.1-10.5,4.2C28,67.4,26,66.6,26,64.4c0-3.8,0.8-10.5,6.5-13.8
		c1.9-1.1,3.2-2.8,3.9-4.8c1-3.3,3.8-5.5,6.9-5.5s5.9,2.2,6.9,5.5c0.6,2,2,3.8,3.9,4.8c5.7,3.2,6.5,10,6.5,13.8
		C60.6,66.6,58.6,67.5,57.4,67.8z"/>
	<path class="st0" d="M22.1,50.2c-3.1,0-6.4-1.5-9-4C11,44,9.6,41.4,9.2,38.8c-0.4-3,0.3-5.5,2-7.2c1.4-1.4,3.3-2.1,5.5-2.1
		c3.1,0,6.4,1.5,9,4c2.1,2.1,3.5,4.7,3.9,7.4c0.4,3-0.3,5.5-2,7.2C26.3,49.4,24.3,50.2,22.1,50.2z M16.8,33.5c-1.2,0-2.1,0.3-2.7,1
		c-0.9,0.9-1.2,2.2-1,3.8c0.3,1.8,1.3,3.6,2.8,5.1c1.8,1.8,4.1,2.9,6.2,2.9c1.1,0,2.1-0.3,2.7-1c0.9-0.9,1.2-2.2,1-3.8
		c-0.3-1.8-1.3-3.6-2.8-5.1C21.1,34.6,18.8,33.5,16.8,33.5z"/>
	<path class="st0" d="M27.3,47.7c1.7-1.7,2.3-4.1,1.9-6.8c-0.4-2.5-1.7-5-3.8-7.1c-4.3-4.3-10.5-5.2-13.8-1.9
		c-1.7,1.7-2.3,4.1-1.9,6.8c0.4,2.5,1.7,5,3.8,7.1c2.5,2.5,5.7,3.9,8.6,3.9C24,49.7,25.9,49.1,27.3,47.7L27.3,47.7z M25.1,45.6
		c-2.1,2.1-6.5,1.2-9.6-1.9c-1.6-1.6-2.6-3.5-2.9-5.4c-0.3-1.7,0.1-3.2,1.1-4.2c0.8-0.8,1.9-1.1,3.1-1.1c2.1,0,4.5,1.1,6.5,3
		c1.6,1.6,2.6,3.5,2.9,5.4C26.5,43.1,26.1,44.6,25.1,45.6z"/>
	<path class="st0" d="M64.5,50.3c-2.3,0-4.1-0.7-5.6-2.1c-1.7-1.8-2.5-4.4-2-7.2c0.4-2.6,1.8-5.2,3.9-7.4c2.5-2.6,5.8-4.1,8.9-4.1
		c2.2,0,4.2,0.8,5.6,2.2c1.8,1.8,2.6,4.4,2,7.2c-0.4,2.6-1.8,5.2-3.9,7.4C71,48.8,67.7,50.3,64.5,50.3z M69.8,33.5
		c-2.1,0-4.4,1.1-6.2,2.8c-1.5,1.5-2.5,3.3-2.8,5.1c-0.2,1.7,0.1,2.9,1,3.8c0.6,0.6,1.6,0.9,2.7,0.9c2.1,0,4.4-1.1,6.2-2.8
		c1.5-1.5,2.5-3.3,2.8-5.1c0.1-1.1,0.1-2.7-1-3.8C71.9,33.8,70.9,33.5,69.8,33.5z"/>
	<path class="st0" d="M75,32c-3.3-3.3-9.5-2.5-13.8,1.9c-2,2-3.4,4.5-3.8,7.1c-0.4,2.7,0.3,5.1,1.9,6.8l0,0c1.4,1.4,3.2,2,5.2,2
		c2.9,0,6.1-1.3,8.6-3.9c2-2,3.4-4.5,3.8-7.1C77.4,36.1,76.7,33.7,75,32z M74,38.3c-0.3,1.9-1.3,3.8-2.9,5.4
		c-3.1,3.1-7.5,3.9-9.6,1.9l0,0c-1-1-1.3-2.4-1.1-4.2c0.3-1.9,1.3-3.8,2.9-5.4c3.1-3.1,7.5-3.9,9.6-1.9C73.9,35.1,74.2,36.6,74,38.3
		z"/>
	<path class="st0" d="M34.4,37.9c-1.2,0-2.5-0.3-3.9-1.1c-2.8-1.5-4.8-4.3-5.6-7.5c-1.7-6,0.9-12.2,5.6-13.8
		c0.8-0.2,1.6-0.4,2.4-0.4c1.3,0,2.7,0.3,3.9,1c2.6,1.5,4.7,4.3,5.6,7.6c1.6,6-1,12.2-5.7,13.8C36,37.8,35.2,37.9,34.4,37.9z
		 M32.8,19.1c-0.3,0-0.7,0.1-1.2,0.2c-2.7,0.9-4.1,5-2.9,8.9c0.6,2.2,1.9,4.1,3.7,5.1c0.7,0.4,1.4,0.5,2,0.5c0.4,0,0.7-0.1,1.1-0.2
		c2.8-0.9,4.1-4.9,3.1-8.9c-0.6-2.2-1.9-4.1-3.7-5.1C34.1,19.3,33.5,19.1,32.8,19.1z"/>
	<path class="st0" d="M30.7,36.4c1.2,0.6,2.4,1,3.7,1c0.7,0,1.5-0.1,2.2-0.3c4.5-1.5,6.9-7.4,5.4-13.2c-0.9-3.2-2.9-5.9-5.4-7.3
		c-1.9-1-4-1.2-5.9-0.6c-4.5,1.5-6.9,7.4-5.3,13.2C26.1,32.4,28.1,35,30.7,36.4z M31.5,18.8c0.4-0.1,0.9-0.2,1.3-0.2
		c0.9,0,1.7,0.3,2.3,0.6c1.8,1,3.3,3,3.9,5.4c1.1,4.2-0.4,8.5-3.4,9.5c-1.4,0.5-2.7,0-3.5-0.4c-1.8-1-3.3-3-3.9-5.4
		C27,24.1,28.5,19.8,31.5,18.8z"/>
	<path class="st0" d="M52.3,37.8c-0.8,0-1.6-0.1-2.3-0.3c-4.9-1.6-7.4-7.8-5.6-13.9c0.9-3.3,3-6.1,5.6-7.6c1.2-0.7,2.6-1,3.9-1
		c0.8,0,1.6,0.1,2.4,0.4c4.8,1.6,7.3,7.8,5.6,13.8c-0.9,3.3-3,6.1-5.6,7.6C55.1,37.4,53.7,37.8,52.3,37.8z M53.8,19.1
		c-0.6,0-1.3,0.2-2.1,0.6c-1.6,0.8-2.9,2.7-3.6,5.1c-1,4,0.4,8.1,3.1,8.9c0.4,0.1,0.7,0.2,1.1,0.2c0.6,0,1.3-0.2,2.1-0.6
		c1.6-0.8,2.9-2.7,3.6-5.1c1-4-0.3-8-3.1-8.9C54.5,19.2,54.1,19.1,53.8,19.1z"/>
	<path class="st0" d="M50.1,37c0.7,0.2,1.4,0.3,2.2,0.3c1.2,0,2.5-0.3,3.7-1c2.5-1.4,4.5-4,5.4-7.3c1.6-5.8-0.8-11.7-5.3-13.2
		c-1.9-0.6-4-0.4-5.9,0.6c-2.5,1.4-4.5,4-5.4,7.3C43.1,29.6,45.5,35.5,50.1,37z M47.6,24.6c0.7-2.4,2.1-4.5,3.9-5.4
		c0.8-0.4,2.1-0.9,3.5-0.4c3,1,4.5,5.3,3.4,9.5c-0.7,2.4-2.1,4.5-3.9,5.4c-0.8,0.4-2.1,0.9-3.5,0.4C48,33.2,46.5,28.8,47.6,24.6z"/>
	<path class="st0" d="M43.3,86.6C19.4,86.6,0,67.2,0,43.3C0,19.4,19.4,0,43.3,0s43.3,19.4,43.3,43.3C86.6,67.2,67.2,86.6,43.3,86.6z
		 M43.3,4C21.6,4,4,21.6,4,43.3s17.6,39.3,39.3,39.3S82.6,65,82.6,43.3S65,4,43.3,4z"/>
	<path class="st0" d="M43.3,0.5C19.7,0.5,0.5,19.7,0.5,43.3s19.2,42.8,42.8,42.8s42.8-19.2,42.8-42.8S66.9,0.5,43.3,0.5z M43.3,83.1
		c-22,0-39.8-17.8-39.8-39.8S21.3,3.5,43.3,3.5s39.8,17.8,39.8,39.8S65.3,83.1,43.3,83.1z"/>
</g>
</svg>
