<!-- Generator: Adobe Illustrator 25.1.0, SVG Export Plug-In  -->
<svg version="1.1" xmlns="http://www.w3.org/2000/svg" xmlns:xlink="http://www.w3.org/1999/xlink" x="0px" y="0px" width="47.5px"
	 height="45.6px" viewBox="0 0 47.5 45.6" style="overflow:visible;enable-background:new 0 0 47.5 45.6;" xml:space="preserve">
<style type="text/css">
	.st0{fill:#333333;}
</style>
<defs>
</defs>
<g>
	<path class="st0" d="M42.2,3.7h-7v-2c0-0.9-0.8-1.7-1.7-1.7s-1.7,0.8-1.7,1.7v2H15.6v-2C15.6,0.8,14.9,0,14,0s-1.6,0.8-1.6,1.7v2
		h-7C2.4,3.7,0,6.1,0,9v31.3c0,3,2.4,5.3,5.3,5.3h36.8c3,0,5.3-2.4,5.3-5.3V8.9C47.5,6.1,45.1,3.7,42.2,3.7z M44.2,40.2
		c0,1.1-0.9,2-2,2H5.3c-1.1,0-2-0.9-2-2V19h40.8L44.2,40.2L44.2,40.2z M44.2,15.7H3.3V8.9c0-1.1,0.9-2,2.1-2h6.9v2
		c0,0.9,0.8,1.6,1.6,1.6c0.9,0,1.7-0.8,1.7-1.6v-2h16.2v2c0,0.9,0.8,1.6,1.7,1.6s1.7-0.8,1.7-1.6v-2h7c1.1,0,2,0.9,2,2L44.2,15.7
		L44.2,15.7z"/>
	<path class="st0" d="M17.6,32.3h4.4v4.5c0,0.9,0.8,1.7,1.6,1.7s1.6-0.8,1.6-1.7v-4.5h4.5c0.9,0,1.7-0.8,1.7-1.7
		c0-0.9-0.8-1.6-1.6-1.6h-4.4v-4.5c0-0.9-0.8-1.6-1.6-1.6s-1.6,0.8-1.6,1.6V29h-4.5c-0.9,0-1.6,0.8-1.6,1.7
		C16,31.6,16.8,32.3,17.6,32.3z"/>
</g>
</svg>
