<!-- Generator: Adobe Illustrator 25.1.0, SVG Export Plug-In  -->
<svg version="1.1" xmlns="http://www.w3.org/2000/svg" xmlns:xlink="http://www.w3.org/1999/xlink" x="0px" y="0px" width="63px"
	 height="63px" viewBox="0 0 63 63" style="overflow:visible;enable-background:new 0 0 63 63;" xml:space="preserve">
<style type="text/css">
	.st0{fill:#169BD5;}
</style>
<defs>
</defs>
<g>
	<path class="st0" d="M42.8,28.5H20.2c-1.7,0-3,1.3-3,3s1.3,3,3,3h22.6c1.7,0,3-1.3,3-3S44.5,28.5,42.8,28.5z"/>
	<path class="st0" d="M31.5,0C14.1,0,0,14.1,0,31.5S14.1,63,31.5,63S63,48.9,63,31.5S48.9,0,31.5,0z M31.5,56.9
		C17.4,56.9,6,45.5,6,31.4S17.4,5.9,31.5,5.9S57,17.3,57,31.4c0,0,0,0.1,0,0.1C57,45.6,45.6,57,31.5,56.9L31.5,56.9z"/>
</g>
</svg>
