<svg height='100px' width='100px'  fill="#333333" xmlns:dc="http://purl.org/dc/elements/1.1/" xmlns:cc="http://creativecommons.org/ns#" xmlns:rdf="http://www.w3.org/1999/02/22-rdf-syntax-ns#" xmlns:svg="http://www.w3.org/2000/svg" xmlns="http://www.w3.org/2000/svg" xmlns:sodipodi="http://sodipodi.sourceforge.net/DTD/sodipodi-0.dtd" xmlns:inkscape="http://www.inkscape.org/namespaces/inkscape" version="1.1" x="0px" y="0px" viewBox="0 0 100 100"><g transform="translate(0,-952.36218)"><path style="text-indent:0;text-transform:none;direction:ltr;block-progression:tb;baseline-shift:baseline;color:#000000;enable-background:accumulate;" d="m 12,973.36217 c -3.2893,0 -6,2.7107 -6,6 l 0,46.00003 c 0,3.2893 2.7107,6 6,6 l 76,0 c 3.2893,0 6,-2.7107 6,-6 l 0,-46.00003 c 0,-3.2893 -2.7107,-6 -6,-6 l -76,0 z m 1.125,4 73.75,0 -35.0625,31.37503 c -0.8513,0.762 -2.7737,0.762 -3.625,0 L 13.125,977.36217 z M 10,979.92467 34.875,1002.206 10,1024.7372 10,979.92467 z m 80,0 0,44.81253 L 65.125,1002.206 90,979.92467 z m -52.125,24.96873 7.625,6.8126 c 2.5435,2.2768 6.4565,2.2768 9,0 l 7.625,-6.8126 24.8125,22.4688 -73.875,0 24.8125,-22.4688 z" fill="#333333" fill-opacity="1" stroke="none" marker="none" visibility="visible" display="inline" overflow="visible"></path></g></svg>