<?xml version="1.0" encoding="utf-8"?>
<svg version="1.1" xmlns:xlink="http://www.w3.org/1999/xlink" width="14px" height="17px" xmlns="http://www.w3.org/2000/svg">
  <g transform="matrix(1 0 0 1 -52 -19 )">
    <path d="M 9.66145833333333 0.645089285714286  L 13.3802083333333 4.515625  C 13.4652777777778 4.60416666666667  13.5503472222222 4.71800595238095  13.6354166666667 4.85714285714286  L 9.33333333333333 4.85714285714286  L 9.33333333333333 0.379464285714286  C 9.46701388888889 0.468005952380952  9.57638888888889 0.556547619047617  9.66145833333333 0.645089285714286  Z M 8.421875 5.80580357142857  C 8.59201388888889 5.9828869047619  8.79861111111111 6.07142857142857  9.04166666666667 6.07142857142857  L 14 6.07142857142857  L 14 16.0892857142857  C 14 16.3422619047619  13.9149305555556 16.5572916666667  13.7447916666667 16.734375  C 13.5746527777778 16.9114583333333  13.3680555555556 17  13.125 17  L 0.875 17  C 0.631944444444445 17  0.425347222222222 16.9114583333333  0.255208333333333 16.734375  C 0.0850694444444444 16.5572916666667  0 16.3422619047619  0 16.0892857142857  L 0 0.910714285714286  C 0 0.657738095238095  0.0850694444444444 0.442708333333333  0.255208333333333 0.265625  C 0.425347222222222 0.0885416666666673  0.631944444444445 0  0.875 0  L 8.16666666666667 0  L 8.16666666666667 5.16071428571429  C 8.16666666666667 5.41369047619047  8.25173611111111 5.62872023809524  8.421875 5.80580357142857  Z M 10.41796875 13.2717633928571  C 10.47265625 13.21484375  10.5 13.1421130952381  10.5 13.0535714285714  L 10.5 12.4464285714286  C 10.5 12.3578869047619  10.47265625 12.28515625  10.41796875 12.2282366071429  C 10.36328125 12.1713169642857  10.2934027777778 12.1428571428571  10.2083333333333 12.1428571428571  L 3.79166666666667 12.1428571428571  C 3.70659722222222 12.1428571428571  3.63671875 12.1713169642857  3.58203125 12.2282366071429  C 3.52734375 12.28515625  3.5 12.3578869047619  3.5 12.4464285714286  L 3.5 13.0535714285714  C 3.5 13.1421130952381  3.52734375 13.21484375  3.58203125 13.2717633928571  C 3.63671875 13.3286830357143  3.70659722222222 13.3571428571429  3.79166666666667 13.3571428571429  L 10.2083333333333 13.3571428571429  C 10.2934027777778 13.3571428571429  10.36328125 13.3286830357143  10.41796875 13.2717633928571  Z M 10.41796875 10.8431919642857  C 10.47265625 10.7862723214286  10.5 10.7135416666667  10.5 10.625  L 10.5 10.0178571428571  C 10.5 9.92931547619048  10.47265625 9.85658482142857  10.41796875 9.79966517857143  C 10.36328125 9.74274553571429  10.2934027777778 9.71428571428571  10.2083333333333 9.71428571428571  L 3.79166666666667 9.71428571428571  C 3.70659722222222 9.71428571428571  3.63671875 9.74274553571429  3.58203125 9.79966517857143  C 3.52734375 9.85658482142857  3.5 9.92931547619048  3.5 10.0178571428571  L 3.5 10.625  C 3.5 10.7135416666667  3.52734375 10.7862723214286  3.58203125 10.8431919642857  C 3.63671875 10.9001116071429  3.70659722222222 10.9285714285714  3.79166666666667 10.9285714285714  L 10.2083333333333 10.9285714285714  C 10.2934027777778 10.9285714285714  10.36328125 10.9001116071429  10.41796875 10.8431919642857  Z M 10.41796875 8.41462053571429  C 10.47265625 8.35770089285714  10.5 8.28497023809524  10.5 8.19642857142857  L 10.5 7.58928571428571  C 10.5 7.50074404761905  10.47265625 7.42801339285714  10.41796875 7.37109375  C 10.36328125 7.31417410714286  10.2934027777778 7.28571428571429  10.2083333333333 7.28571428571429  L 3.79166666666667 7.28571428571429  C 3.70659722222222 7.28571428571429  3.63671875 7.31417410714286  3.58203125 7.37109375  C 3.52734375 7.42801339285714  3.5 7.50074404761905  3.5 7.58928571428571  L 3.5 8.19642857142857  C 3.5 8.28497023809524  3.52734375 8.35770089285714  3.58203125 8.41462053571429  C 3.63671875 8.47154017857143  3.70659722222222 8.5  3.79166666666667 8.5  L 10.2083333333333 8.5  C 10.2934027777778 8.5  10.36328125 8.47154017857143  10.41796875 8.41462053571429  Z " fill-rule="nonzero" fill="#333333" stroke="none" transform="matrix(1 0 0 1 52 19 )" />
  </g>
</svg>