<?xml version="1.0" encoding="utf-8"?>
<svg version="1.1" xmlns:xlink="http://www.w3.org/1999/xlink" width="17px" height="22px" xmlns="http://www.w3.org/2000/svg">
  <g transform="matrix(1 0 0 1 -82 -575 )">
    <path d="M 10.9791666666667 6.875  C 10.3947916666667 6.875  9.91666666666667 6.4109375  9.91666666666667 5.84375  L 9.91666666666667 0  L 1.0625 0  C 0.473697916666667 0  0 0.459765625  0 1.03125  L 0 20.96875  C 0 21.540234375  0.473697916666667 22  1.0625 22  L 15.9375 22  C 16.5263020833333 22  17 21.540234375  17 20.96875  L 17 6.875  L 10.9791666666667 6.875  Z M 5.66666666666667 11.34375  L 5.66666666666667 12.03125  C 5.66666666666667 12.221171875  5.50817708333333 12.375  5.3125 12.375  L 4.95833333333333 12.375  C 4.56697916666667 12.375  4.25 12.68265625  4.25 13.0625  L 4.25 14.4375  C 4.25 14.81734375  4.56697916666667 15.125  4.95833333333333 15.125  L 5.3125 15.125  C 5.50817708333333 15.125  5.66666666666667 15.278828125  5.66666666666667 15.46875  L 5.66666666666667 16.15625  C 5.66666666666667 16.346171875  5.50817708333333 16.5  5.3125 16.5  L 4.95833333333333 16.5  C 3.78471354166667 16.5  2.83333333333333 15.5766015625  2.83333333333333 14.4375  L 2.83333333333333 13.0625  C 2.83333333333333 11.9233984375  3.78471354166667 11  4.95833333333333 11  L 5.3125 11  C 5.50817708333333 11  5.66666666666667 11.153828125  5.66666666666667 11.34375  Z M 9.50317708333333 14.840546875  C 9.50361979166667 15.7553515625  8.66203125 16.5  7.62653645833333 16.5  L 7.08333333333333 16.5  C 6.88765625 16.5  6.72916666666667 16.346171875  6.72916666666667 16.15625  L 6.72916666666667 15.46875  C 6.72916666666667 15.278828125  6.88765625 15.125  7.08333333333333 15.125  L 7.62653645833333 15.125  C 7.88994791666667 15.125  8.08739583333333 14.974609375  8.08739583333333 14.840546875  C 8.08739583333333 14.7846875  8.05419270833333 14.72625  7.99354166666667 14.675546875  L 7.024453125 13.8690234375  C 6.64947916666667 13.5587890625  6.43432291666667 13.1179296875  6.43432291666667 12.6598828125  C 6.43432291666667 11.7446484375  7.27635416666667 11.0004296875  8.31184895833333 11.0004296875  L 8.85416666666667 11.0004296875  C 9.04984375 11.0004296875  9.20833333333333 11.1542578125  9.20833333333333 11.3441796875  L 9.20833333333333 12.0316796875  C 9.20833333333333 12.2216015625  9.04984375 12.3754296875  8.85416666666667 12.3754296875  L 8.31096354166667 12.3754296875  C 8.04755208333333 12.3754296875  7.85010416666667 12.5258203125  7.85010416666667 12.6598828125  C 7.85010416666667 12.7157421875  7.88330729166667 12.7741796875  7.94395833333333 12.8248828125  L 8.913046875 13.63140625  C 9.28802083333333 13.941640625  9.50317708333333 14.3825  9.50317708333333 14.840546875  Z M 10.9791666666667 11  C 11.17484375 11  11.3333333333333 11.153828125  11.3333333333333 11.34375  L 11.3333333333333 12.2375  C 11.3333333333333 13.1084765625  11.5856770833333 13.9635546875  12.0416666666667 14.6815625  C 12.49765625 13.963984375  12.75 13.1084765625  12.75 12.2375  L 12.75 11.34375  C 12.75 11.153828125  12.9084895833333 11  13.1041666666667 11  L 13.8125 11  C 14.0081770833333 11  14.1666666666667 11.153828125  14.1666666666667 11.34375  L 14.1666666666667 12.2375  C 14.1666666666667 13.76203125  13.5964583333333 15.1976171875  12.5605208333333 16.2804296875  C 12.4268229166667 16.420078125  12.238671875 16.5  12.0416666666667 16.5  C 11.8446614583333 16.5  11.6565104166667 16.420078125  11.5228125 16.2804296875  C 10.486875 15.1976171875  9.91666666666667 13.76203125  9.91666666666667 12.2375  L 9.91666666666667 11.34375  C 9.91666666666667 11.153828125  10.07515625 11  10.2708333333333 11  L 10.9791666666667 11  Z M 17 5.237890625  C 17 4.9671875  16.8893229166667 4.705078125  16.6901041666667 4.51171875  L 12.3559895833333 0.30078125  C 12.1567708333333 0.107421875  11.88671875 0  11.6033854166667 0  L 11.3333333333333 0  L 11.3333333333333 5.5  L 17 5.5  L 17 5.237890625  Z " fill-rule="nonzero" fill="#ffffff" stroke="none" transform="matrix(1 0 0 1 82 575 )" />
  </g>
</svg>