<?xml version="1.0" encoding="utf-8"?>
<!-- Generator: Adobe Illustrator 25.0.1, SVG Export Plug-In . SVG Version: 6.00 Build 0)  -->
<svg version="1.1" id="Layer_1" xmlns="http://www.w3.org/2000/svg" xmlns:xlink="http://www.w3.org/1999/xlink" x="0px" y="0px"
	 viewBox="0 0 48 39" style="enable-background:new 0 0 48 39;" xml:space="preserve">
<style type="text/css">
	.st0{fill:#FCBA19;}
</style>
<path class="st0" d="M6.5,17.5c0.8,2.8,1.9,5.1,3.3,7.1c0.3-0.5,0.6-1.1,0.7-1.6c0.5-1.8,3.3-4.8,4.8-6.3l3.1-3.1
	c0.3-0.3,0.9-0.3,1.2,0c0.3,0.3,0.3,0.9,0,1.2l-3.1,3.1l0.5,0.5l3.9-3.9c0.4-0.4,1-0.4,1.4,0c0.4,0.4,0.4,1,0,1.4l-3.9,3.9l0.4,0.4
	l4.1-4.1c0.4-0.4,1.1-0.4,1.5,0c0.4,0.4,0.4,1.1,0,1.5l-4.1,4.1l0.4,0.4l3.5-3.5c0.4-0.4,1-0.4,1.3,0c0.4,0.4,0.4,1,0,1.3l-3.5,3.5
	l-1.3,1.3l-1.2,1.2c0,0,2.8-0.5,4,1c0.4,0.5,0.8,1.5-2,1.3c-2.6-0.1-4.1-0.1-7.1,1.4c4.7,3.8,9.4,5,9.4,5s13.6-3.4,17.5-17.4
	c0.3-1.1,0.5-2.3,0.5-3.3c-0.8,1.8-3.3,4.5-4.6,5.8l-3.1,3.1c-0.3,0.3-0.9,0.3-1.2,0c-0.3-0.3-0.3-0.9,0-1.2l3.1-3.1l-0.5-0.5
	l-3.9,3.9c-0.4,0.4-1,0.4-1.4,0c-0.4-0.4-0.4-1,0-1.4l3.9-3.9l-0.4-0.4l-4.1,4.1c-0.4,0.4-1.1,0.4-1.5,0c-0.4-0.4-0.4-1.1,0-1.5
	l4.1-4.1l-0.4-0.4l-3.5,3.5c-0.4,0.4-1,0.4-1.3,0c-0.4-0.4-0.4-1,0-1.3l3.5-3.5l1.3-1.3l1.2-1.2c0,0-2.8,0.5-4-1
	C28.6,9,28.3,8,31,8.2c2.9,0.2,4.4,0.1,7.9-1.8c-1.3-1.4-2.9-2.3-4.5-2.5C29,3,26.6,5.3,24,7.7C21.4,5.3,19,3,13.5,3.8
	C9,4.5,4.6,10.5,6.5,17.5z"/>
</svg>
