<?xml version="1.0" encoding="utf-8"?>
<svg version="1.1" xmlns:xlink="http://www.w3.org/1999/xlink" width="12px" height="7px" xmlns="http://www.w3.org/2000/svg">
  <g transform="matrix(1 0 0 1 -407 -37 )">
    <path d="M 11.77734375 0.230902777777778  C 11.92578125 0.384837962962962  12 0.567129629629628  12 0.777777777777778  C 12 0.988425925925925  11.92578125 1.17071759259259  11.77734375 1.32465277777778  L 6.52734375 6.76909722222222  C 6.37890625 6.92303240740741  6.203125 7  6 7  C 5.796875 7  5.62109375 6.92303240740741  5.47265625 6.76909722222222  L 0.22265625 1.32465277777778  C 0.07421875 1.17071759259259  0 0.988425925925925  0 0.777777777777778  C 0 0.567129629629628  0.07421875 0.384837962962962  0.22265625 0.230902777777778  C 0.37109375 0.0769675925925917  0.546875 0  0.75 0  L 11.25 0  C 11.453125 0  11.62890625 0.0769675925925917  11.77734375 0.230902777777778  Z " fill-rule="nonzero" fill="#ffffff" stroke="none" transform="matrix(1 0 0 1 407 37 )" />
  </g>
</svg>