<?xml version="1.0" encoding="utf-8"?>
<!-- Generator: Adobe Illustrator 25.2.0, SVG Export Plug-In . SVG Version: 6.00 Build 0)  -->
<svg version="1.1" id="Layer_1" xmlns="http://www.w3.org/2000/svg" xmlns:xlink="http://www.w3.org/1999/xlink" x="0px" y="0px"
	 viewBox="0 0 40 40" style="enable-background:new 0 0 40 40;" xml:space="preserve">
<style type="text/css">
	.st0{fill:#234075;}
	.st1{fill:#FFFFFF;}
</style>
<circle class="st0" cx="20" cy="20" r="20"/>
<g transform="matrix(1 0 0 1 -10 -10 )">
	<path class="st1" d="M42.9,20.6c0.9,0.9,0.9,2.4,0,3.4l-2.3,2.3c-0.2,0.2-0.6,0.2-0.8,0l-5.5-5.5c-0.2-0.2-0.2-0.6,0-0.8l2.3-2.3
		c0.9-0.9,2.4-0.9,3.4,0L42.9,20.6z M33.1,21.8c-0.2-0.2-0.6-0.2-0.8,0l-13.1,13l-1.1,6c-0.1,0.8,0.6,1.5,1.4,1.4l6-1.1l13.1-13
		c0.2-0.2,0.2-0.6,0-0.8L33.1,21.8z M25.3,33.7c-0.3,0.3-0.7,0.3-1,0c-0.3-0.3-0.3-0.7,0-1l7.7-7.6c0.3-0.3,0.7-0.3,1,0s0.3,0.7,0,1
		L25.3,33.7z M22.5,35.5v2.4h2.4v1.8l-3.2,0.6l-1.5-1.5l0.6-3.2H22.5z"/>
</g>
</svg>
