<?xml version="1.0" encoding="utf-8"?>
<svg version="1.1" xmlns:xlink="http://www.w3.org/1999/xlink" width="60px" height="57px" xmlns="http://www.w3.org/2000/svg">
  <g transform="matrix(1 0 0 1 -58 -940 )">
    <path d="M 31.551724137931 56.7976673427992  C 31.4367816091954 56.7976673427992  31.3793103448276 56.7976673427992  31.264367816092 56.7976673427992  C 31.2068965517241 56.7976673427992  31.0919540229885 56.7976673427992  31.0344827586207 56.7976673427992  C 30.8620689655172 56.7976673427992  30.6896551724138 56.7398580121704  30.4597701149425 56.6820486815416  C 29.7126436781609 56.5086206896552  29.0229885057471 56.1617647058824  28.448275862069 55.6414807302231  C 26.8965517241379 54.2540567951319  26.4367816091954 51.9416835699797  27.2988505747126 50.0339756592292  L 31.9540229885057 39.801724137931  L 27.9310344827586 34.6566937119675  L 19.4252873563218 41.0157200811359  C 18.5632183908046 41.7672413793103  17.5287356321839 42.171906693712  16.4367816091954 42.171906693712  C 15.8620689655172 42.171906693712  15.3448275862069 42.0562880324544  14.8275862068966 41.882860040568  L 4.71264367816092 38.1830628803245  C 3.50574712643678 37.7205882352941  2.52873563218391 36.7956389452333  2.01149425287356 35.5816430020284  C 1.49425287356322 34.3676470588235  1.55172413793103 32.9802231237323  2.1264367816092 31.8240365111562  C 2.93103448275862 30.2053752535497  4.54022988505747 29.22261663286  6.37931034482759 29.22261663286  C 6.95402298850575 29.22261663286  7.47126436781609 29.3382352941177  8.04597701149425 29.5116632860041  L 15.4022988505747 32.2287018255578  L 23.5632183908046 24.7134888438134  L 23.5632183908046 24.6556795131846  C 23.735632183908 23.4416835699797  24.1379310344828 22.2276876267748  24.7126436781609 21.1871196754564  L 24.7701149425287 21.1293103448276  L 28.9080459770115 14.7702839756592  L 26.2068965517241 13.382860040568  L 20.9770114942529 18.5856997971602  C 20.9195402298851 18.6435091277891  20.8620689655172 18.7013184584179  20.8045977011494 18.7591277890467  C 20.0574712643678 19.3950304259635  19.1379310344828 19.7418864097363  18.1609195402299 19.7418864097363  C 17.0114942528736 19.7418864097363  15.8620689655172 19.2216024340771  15.1149425287356 18.354462474645  C 13.735632183908 16.6779918864097  13.8505747126437 14.25  15.4022988505747 12.7469574036511  L 22.4137931034483 5.63640973630831  C 23.1609195402299 4.88488843813387  24.1954022988506 4.48022312373225  25.2298850574713 4.48022312373225  C 25.632183908046 4.48022312373225  26.0919540229885 4.53803245436105  26.4367816091954 4.65365111561866  L 27.2413793103448 4.94269776876267  C 30.5172413793103 5.98326572008113  33.7356321839081 7.37068965517241  36.7816091954023 9.0471602434077  C 36.8390804597701 9.10496957403651  36.9540229885057 9.10496957403651  37.0689655172414 9.10496957403651  L 37.2988505747126 9.10496957403651  L 37.2988505747126 8.9893509127789  C 37.2413793103448 8.64249492900608  37.183908045977 8.29563894523326  37.183908045977 7.94878296146044  C 37.0689655172414 5.98326572008113  37.7011494252874 4.07555780933063  39.0229885057471 2.63032454361054  C 40.2873563218391 1.18509127789046  42.0689655172414 0.317951318458415  44.0229885057471 0.202332657200808  C 44.1379310344828 0.202332657200808  44.3103448275862 0.202332657200808  44.4252873563218 0.202332657200808  C 48.2758620689655 0.202332657200808  51.4367816091954 3.20841784989858  51.6666666666667 7.08164300202839  C 51.8965517241379 11.0704868154158  48.8505747126437 14.539046653144  44.8275862068966 14.7702839756592  L 44.6551724137931 14.7702839756592  L 44.7701149425287 14.9437119675456  C 45 15.2905679513185  45.1724137931035 15.6952332657201  45.3448275862069 16.0998985801217  L 47.3563218390805 21.01369168357  L 54.7701149425287 21.9964503042596  C 56.8965517241379 22.2854969574037  58.5057471264368 24.1932048681542  58.3908045977011 26.3321501014199  C 58.3333333333333 27.4305273833671  57.7586206896552 28.4710953346856  56.8965517241379 29.1648073022312  C 56.2068965517241 29.7429006085193  55.2873563218391 30.0897565922921  54.367816091954 30.0897565922921  C 54.1954022988506 30.0897565922921  53.9655172413793 30.0897565922921  53.7931034482759 30.0319472616633  L 43.8505747126437 28.7601419878296  C 43.7356321839081 28.7601419878296  43.6206896551724 28.7023326572008  43.448275862069 28.7023326572008  C 42.1264367816092 28.4132860040568  41.0919540229885 27.4883367139959  40.5747126436782 26.2165314401623  L 39.5977011494253 24.1353955375254  L 37.0114942528736 28.7023326572008  L 41.1494252873563 36.5644016227181  C 42.1264367816092 37.9518255578093  42.2988505747126 39.6861054766734  41.6091954022989 41.1891480730223  L 35.7471264367816 54.0806288032454  C 35 55.7570993914807  33.3333333333333 56.7976673427992  31.551724137931 56.7976673427992  Z M 25 10.723630831643  C 25.2873563218391 10.434584178499  25.5747126436782 10.3189655172414  25.9770114942529 10.3189655172414  C 26.2068965517241 10.3189655172414  26.3793103448276 10.3767748478702  26.6091954022989 10.4923935091278  L 31.4367816091954 13.0360040567951  C 31.4942528735632 13.0360040567951  31.551724137931 13.0938133874239  31.551724137931 13.0938133874239  C 31.8390804597701 13.2672413793103  32.0689655172414 13.6140973630832  32.1264367816092 13.960953346856  C 32.183908045977 14.3078093306288  32.1264367816092 14.6546653144016  31.9540229885057 14.9437119675456  L 26.9540229885057 22.5167342799189  C 25.632183908046 24.829107505071  25.8045977011494 27.6617647058824  27.4712643678161 29.7429006085193  L 34.5977011494253 38.8767748478702  C 34.8850574712644 39.2814401622718  34.9425287356322 39.801724137931  34.7701149425287 40.2641987829615  L 29.7701149425287 51.2479716024341  C 29.367816091954 52.0573022312373  29.5402298850575 53.040060851927  30.2298850574713 53.6759634888438  C 30.4597701149425 53.907200811359  30.8045977011494 54.0228194726166  31.0919540229885 54.1384381338742  L 31.3218390804598 54.196247464503  C 31.3793103448276 54.196247464503  31.4367816091954 54.196247464503  31.551724137931 54.196247464503  C 32.2988505747126 54.196247464503  33.0459770114942 53.7337728194726  33.3908045977011 53.040060851927  L 39.1954022988506 40.0907707910751  C 39.4827586206897 39.4548681541582  39.4252873563218 38.7033468559838  39.0229885057471 38.1252535496957  C 38.9655172413793 38.0674442190669  38.9080459770115 38.0096348884381  38.9080459770115 37.9518255578093  L 34.367816091954 29.3960446247464  C 34.1379310344828 28.9913793103448  34.1379310344828 28.5289046653144  34.367816091954 28.1242393509128  L 38.5632183908046 20.7824543610548  C 38.6781609195402 20.5512170385396  38.9080459770115 20.3777890466531  39.1379310344828 20.2621703853955  C 39.3103448275862 20.1465517241379  39.5402298850575 20.1465517241379  39.7126436781609 20.1465517241379  C 40.2298850574713 20.1465517241379  40.6896551724138 20.4355983772819  40.9195402298851 20.8980730223124  L 43.0459770114943 25.2337728194726  C 43.0459770114943 25.2915821501014  43.1034482758621 25.2915821501014  43.1034482758621 25.3493914807302  C 43.2758620689655 25.8118661257606  43.6206896551724 26.1009127789047  44.0804597701149 26.2165314401623  L 44.1954022988506 26.2165314401623  L 54.1379310344827 27.4883367139959  C 54.1954022988506 27.4883367139959  54.2528735632184 27.4883367139959  54.3103448275862 27.4883367139959  C 54.5977011494253 27.4883367139959  54.8850574712644 27.3727180527383  55.1149425287356 27.1992900608519  L 55.1724137931035 27.1414807302231  C 55.5172413793103 26.9102434077079  55.6896551724138 26.5633874239351  55.6896551724138 26.1587221095335  C 55.6896551724138 25.3493914807302  55.1149425287356 24.7134888438134  54.367816091954 24.6556795131846  L 46.2068965517241 23.6151115618661  C 45.7471264367816 23.5573022312373  45.3448275862069 23.2682555780933  45.1724137931035 22.8057809330629  L 42.8735632183908 17.1404665314402  C 42.5862068965517 16.4467545638945  42.183908045977 15.8686612576065  41.7241379310345 15.2905679513185  C 41.264367816092 14.828093306288  41.0919540229885 14.1921906693712  41.2068965517241 13.5562880324544  C 41.3793103448276 12.6313387423935  42.183908045977 11.9954361054767  43.1034482758621 11.9954361054767  C 43.2183908045977 11.9954361054767  43.3333333333333 11.9954361054767  43.5057471264368 12.0532454361055  L 44.0229885057471 12.1688640973631  C 44.1954022988506 12.1688640973631  44.3103448275862 12.1688640973631  44.4827586206897 12.1688640973631  C 46.6091954022989 12.1688640973631  48.448275862069 10.723630831643  48.9655172413793 8.58468559837728  C 49.0229885057471 8.41125760649087  49.0229885057471 8.23782961460446  49.0804597701149 8.06440162271805  C 49.1954022988506 6.85040567951318  48.8505747126437 5.63640973630831  48.1034482758621 4.65365111561866  C 47.3563218390805 3.670892494929  46.2643678160919 3.09279918864097  45 2.91937119675456  C 44.8275862068966 2.91937119675456  44.7126436781609 2.91937119675456  44.5402298850575 2.91937119675456  C 42.5862068965517 2.91937119675456  40.8045977011494 4.19117647058823  40.1724137931035 6.04107505070993  C 39.8850574712644 6.90821501014198  39.8275862068966 7.83316430020283  40.1149425287356 8.70030425963488  C 40.2873563218391 9.39401622718052  40.1149425287356 10.2033468559838  39.6551724137931 10.723630831643  C 39.0229885057471 11.3595334685598  38.2183908045977 11.7641987829615  37.2988505747127 11.7641987829615  C 36.7816091954023 11.7641987829615  36.264367816092 11.6485801217038  35.7471264367816 11.3595334685598  C 32.816091954023 9.79868154158215  29.7701149425287 8.46906693711967  26.6091954022989 7.42849898580121  L 25.8045977011494 7.1394523326572  C 25.6896551724138 7.08164300202839  25.5172413793103 7.08164300202839  25.4022988505747 7.08164300202839  C 25.0574712643678 7.08164300202839  24.7126436781609 7.197261663286  24.4252873563218 7.48630831643002  L 17.2413793103448 14.539046653144  C 16.6666666666667 15.0593306288032  16.6091954022989 15.9264705882353  17.0689655172414 16.5045638945233  C 17.2413793103448 16.7358012170385  17.5287356321839 16.9092292089249  17.816091954023 16.9670385395538  C 17.9310344827586 16.9670385395538  18.0459770114943 17.0248478701826  18.1034482758621 17.0248478701826  C 18.448275862069 17.0248478701826  18.8505747126437 16.9092292089249  19.0804597701149 16.6201825557809  L 25 10.723630831643  Z M 7.06896551724138 31.9974645030426  C 6.83908045977012 31.881845841785  6.60919540229885 31.8240365111562  6.32183908045977 31.8240365111562  C 5.57471264367816 31.8240365111562  4.82758620689655 32.2287018255578  4.48275862068965 32.9224137931034  C 4.25287356321839 33.4426977687627  4.19540229885057 34.0207910750507  4.42528735632184 34.5410750507099  C 4.6551724137931 35.0613590263692  5.05747126436782 35.4660243407708  5.57471264367816 35.6394523326572  L 15.6896551724138 39.3392494929006  L 15.9195402298851 39.3970588235294  C 16.0919540229885 39.4548681541582  16.2068965517241 39.4548681541582  16.3793103448276 39.4548681541582  C 16.8390804597701 39.4548681541582  17.2988505747126 39.2814401622718  17.7011494252874 38.934584178499  L 17.816091954023 38.8189655172414  L 26.3793103448276 32.5177484787018  L 25.4022988505747 31.2459432048681  C 24.6551724137931 30.3209939148073  24.1379310344828 29.22261663286  23.7931034482759 28.1242393509128  L 23.735632183908 27.9508113590264  L 16.551724137931 34.6566937119675  C 16.3218390804598 34.8879310344828  15.9770114942529 35.0035496957404  15.6896551724138 35.0035496957404  C 15.5172413793103 35.0035496957404  15.4022988505747 35.0035496957404  15.2298850574713 34.9457403651116  L 7.06896551724138 31.9974645030426  Z " fill-rule="nonzero" fill="#333333" stroke="none" transform="matrix(1 0 0 1 58 940 )" />
  </g>
</svg>