<!-- Generator: Adobe Illustrator 25.1.0, SVG Export Plug-In  -->
<svg version="1.1" xmlns="http://www.w3.org/2000/svg" xmlns:xlink="http://www.w3.org/1999/xlink" x="0px" y="0px" width="54.7px"
	 height="89.5px" viewBox="0 0 54.7 89.5" style="overflow:visible;enable-background:new 0 0 54.7 89.5;" xml:space="preserve">
<style type="text/css">
	.st0{fill:#333333;}
</style>
<defs>
</defs>
<path class="st0" d="M27.3,40.8c-7.4,0-13.4-6-13.4-13.4s6-13.4,13.4-13.4s13.4,6,13.4,13.4S34.7,40.8,27.3,40.8z M27.3,19.9
	c-4.1,0-7.5,3.3-7.5,7.5c0,4.1,3.3,7.5,7.5,7.5s7.5-3.3,7.5-7.5C34.8,23.2,31.4,19.9,27.3,19.9z"/>
<path class="st0" d="M27.3,89.5C13.8,89.5,0,84.9,0,76c0-5.3,5.2-9.7,13.9-11.7l0.7-0.2l-0.3-0.6C7.2,51.3,0,34.4,0,27.3
	C0,12.3,12.3,0,27.3,0s27.3,12.3,27.3,27.3c0,7.1-7.2,24-14.2,36.3l-0.3,0.6l0.7,0.2c8.7,2,13.9,6.4,13.9,11.7
	C54.7,84.9,40.9,89.5,27.3,89.5z M17.5,69.6C10,71,6,74.2,6,76c0,3,8.5,7.5,21.4,7.5S48.7,79,48.7,76c0-1.8-4-5-11.5-6.4l-0.3-0.1
	l-0.2,0.3c-4.2,6.1-7.3,9.2-9.3,9.2s-5.1-3.1-9.3-9.2l-0.2-0.3L17.5,69.6z M27.3,6C15.5,6,6,15.5,6,27.3c0,10.3,15.1,37.5,21,44.5
	l0.4,0.5l0.4-0.5c0.7-0.9,1.7-2.4,2.8-4.1c0.7-1,1.4-2.1,2.1-3.2c6.2-9.6,16.1-28.3,16.1-37.2C48.7,15.5,39.1,6,27.3,6z"/>
</svg>
