<?xml version="1.0" encoding="utf-8"?>
<svg version="1.1" xmlns:xlink="http://www.w3.org/1999/xlink" width="10px" height="12px" xmlns="http://www.w3.org/2000/svg">
  <g transform="matrix(1 0 0 1 -217 -30 )">
    <path d="M 2.77777777777778 3.81818181818182  L 2.77777777777778 5.45454545454546  L 7.22222222222222 5.45454545454546  L 7.22222222222222 3.81818181818182  C 7.22222222222222 3.21590909090909  7.00520833333333 2.70170454545455  6.57118055555556 2.27556818181818  C 6.13715277777778 1.84943181818182  5.61342592592593 1.63636363636364  5 1.63636363636364  C 4.38657407407407 1.63636363636364  3.86284722222222 1.84943181818182  3.42881944444444 2.27556818181818  C 2.99479166666667 2.70170454545455  2.77777777777778 3.21590909090909  2.77777777777778 3.81818181818182  Z M 9.75694444444444 5.69318181818182  C 9.91898148148148 5.85227272727273  10 6.04545454545454  10 6.27272727272727  L 10 11.1818181818182  C 10 11.4090909090909  9.91898148148148 11.6022727272727  9.75694444444444 11.7613636363636  C 9.59490740740741 11.9204545454545  9.39814814814815 12  9.16666666666667 12  L 0.833333333333333 12  C 0.601851851851852 12  0.405092592592593 11.9204545454545  0.243055555555556 11.7613636363636  C 0.0810185185185185 11.6022727272727  0 11.4090909090909  0 11.1818181818182  L 0 6.27272727272727  C 0 6.04545454545454  0.0810185185185185 5.85227272727273  0.243055555555556 5.69318181818182  C 0.405092592592593 5.53409090909091  0.601851851851852 5.45454545454546  0.833333333333333 5.45454545454546  L 1.11111111111111 5.45454545454546  L 1.11111111111111 3.81818181818182  C 1.11111111111111 2.77272727272727  1.49305555555556 1.875  2.25694444444444 1.125  C 3.02083333333333 0.375  3.93518518518519 0  5 0  C 6.06481481481481 0  6.97916666666667 0.375  7.74305555555556 1.125  C 8.50694444444444 1.875  8.88888888888889 2.77272727272727  8.88888888888889 3.81818181818182  L 8.88888888888889 5.45454545454546  L 9.16666666666667 5.45454545454546  C 9.39814814814815 5.45454545454546  9.59490740740741 5.53409090909091  9.75694444444444 5.69318181818182  Z " fill-rule="nonzero" fill="#234075" stroke="none" transform="matrix(1 0 0 1 217 30 )" />
  </g>
</svg>