<svg height='100px' width='100px'  fill="#169bd5" xmlns="http://www.w3.org/2000/svg" xmlns:xlink="http://www.w3.org/1999/xlink" version="1.1" x="0px" y="0px" viewBox="0 0 32 32" style="enable-background:new 0 0 32 32;" xml:space="preserve"><g><path d="M30,10h-5.07129V2c0-0.55273-0.44775-1-1-1H8.07129c-0.55225,0-1,0.44727-1,1v8H2c-0.55225,0-1,0.44727-1,1v12.92969   c0,0.55273,0.44775,1,1,1h5.06982V30c0,0.55273,0.44775,1,1,1h15.86035c0.55225,0,1-0.44727,1-1v-5.07031H30   c0.55225,0,1-0.44727,1-1V11C31,10.44727,30.55225,10,30,10z M9.07129,3h13.85742v7H9.07129V3z M22.93018,29H9.06982V18.76953   h13.86035V29z M29,22.92969h-4.06982v-4.16211h0.28418c0.55225,0,1-0.44727,1-1s-0.44775-1-1-1H6.78564c-0.55225,0-1,0.44727-1,1   s0.44775,1,1,1h0.28418v4.16211H3V12h26V22.92969z"></path><path d="M26.04102,14.91211h1.04736c0.55225,0,1-0.44727,1-1s-0.44775-1-1-1h-1.04736c-0.55225,0-1,0.44727-1,1   S25.48877,14.91211,26.04102,14.91211z"></path><path d="M19.53564,20.6709h-7.07129c-0.55225,0-1,0.44727-1,1s0.44775,1,1,1h7.07129c0.55225,0,1-0.44727,1-1   S20.08789,20.6709,19.53564,20.6709z"></path><path d="M19.53564,25.09961h-7.07129c-0.55225,0-1,0.44727-1,1s0.44775,1,1,1h7.07129c0.55225,0,1-0.44727,1-1   S20.08789,25.09961,19.53564,25.09961z"></path></g></svg>