<?xml version="1.0" encoding="utf-8"?>
<svg version="1.1" xmlns:xlink="http://www.w3.org/1999/xlink" width="20px" height="20px" xmlns="http://www.w3.org/2000/svg">
  <g transform="matrix(1 0 0 1 -993 -236 )">
    <path d="M 20 2.14285714285714  C 20 0.959821428571429  19.16015625 0  18.125 0  L 1.875 0  C 0.83984375 0  0 0.959821428571429  0 2.14285714285714  L 0 17.8571428571429  C 0 19.0401785714286  0.83984375 20  1.875 20  L 18.125 20  C 19.16015625 20  20 19.0401785714286  20 17.8571428571429  L 20 2.14285714285714  Z M 18 2.41071428571429  L 18 17.5892857142857  C 18.125 17.7366071428571  18.01953125 17.8571428571429  17.890625 17.8571428571429  L 2.109375 17.8571428571429  C 1.98046875 17.8571428571429  1.875 17.7366071428571  2 17.5892857142857  L 2 2.41071428571429  C 1.875 2.26339285714286  1.98046875 2.14285714285714  2.109375 2.14285714285714  L 17.890625 2.14285714285714  C 18.01953125 2.14285714285714  18.125 2.26339285714286  18 2.41071428571429  Z M 13.92578125 6.50892857142857  C 14.109375 6.71428571428571  14.109375 7.04910714285714  13.92578125 7.25892857142857  L 11.52734375 10  L 13.92578125 12.7410714285714  C 14.10546875 12.9464285714286  14.10546875 13.28125  13.92578125 13.4910714285714  L 13.0546875 14.4866071428571  C 12.875 14.6919642857143  12.58203125 14.6919642857143  12.3984375 14.4866071428571  L 10 11.7455357142857  L 7.6015625 14.4866071428571  C 7.421875 14.6919642857143  7.12890625 14.6919642857143  6.9453125 14.4866071428571  L 6.07421875 13.4910714285714  C 5.89453125 13.2857142857143  5.89453125 12.9508928571429  6.07421875 12.7410714285714  L 8.47265625 10  L 6.07421875 7.25892857142857  C 5.89453125 7.05357142857143  5.89453125 6.71875  6.07421875 6.50892857142857  L 6.9453125 5.51339285714286  C 7.125 5.30803571428571  7.41796875 5.30803571428571  7.6015625 5.51339285714286  L 10 8.25446428571428  L 12.3984375 5.51339285714286  C 12.578125 5.30803571428571  12.87109375 5.30803571428571  13.0546875 5.51339285714286  L 13.92578125 6.50892857142857  Z " fill-rule="nonzero" fill="#31b0e6" stroke="none" transform="matrix(1 0 0 1 993 236 )" />
  </g>
</svg>