<?xml version="1.0" encoding="utf-8"?>
<svg version="1.1" xmlns:xlink="http://www.w3.org/1999/xlink" width="25px" height="34px" xmlns="http://www.w3.org/2000/svg">
  <g transform="matrix(1 0 0 1 -347 -136 )">
    <path d="M 23 7.0032722513089  L 19.9934554973822 7.0032722513089  L 19.9934554973822 9.4901832460733  C 19.9934554973822 9.94829842931937  19.6335078534031 10.3082460732984  19.1753926701571 10.3082460732984  L 5.82460732984293 10.3082460732984  C 5.36649214659686 10.3082460732984  5.0065445026178 9.94829842931937  5.0065445026178 9.4901832460733  L 5.0065445026178 7.0032722513089  L 2 7.0032722513089  L 2 32  L 23 32  L 23 7.0032722513089  Z M 19.9934554973822 4.4836387434555  L 19.9934554973822 5.33442408376963  L 24.1492146596859 5.33442408376963  C 24.6073298429319 5.33442408376963  24.967277486911 5.69437172774869  25 6.15248691099477  L 25 32.821335078534  C 24.967277486911 33.2794502617801  24.6073298429319 33.6393979057592  24.1492146596859 33  L 0.818062827225131 33  C 0.359947643979058 33.6393979057592  0 33.2794502617801  0 32.821335078534  L 0 6.15248691099477  C 0 5.69437172774869  0.359947643979058 5.33442408376963  0.818062827225131 5.33442408376963  L 4.97382198952879 5.33442408376963  L 4.97382198952879 4.5163612565445  C 4.97382198952879 4.05824607329843  5.33376963350785 3.69829842931937  5.79188481675393 3.69829842931937  L 8.37696335078534 3.69829842931937  C 8.80235602094241 1.76767015706806  10.4712041884817 0.327879581151833  12.5 0.327879581151833  C 14.5287958115183 0.327879581151833  16.1976439790576 1.76767015706806  16.5903141361257 3.66557591623037  L 19.1753926701571 3.66557591623037  C 19.6335078534031 3.66557591623037  19.9934554973822 4.02552356020942  19.9934554973822 4.4836387434555  Z M 11.0602094240838 16.9836387434555  L 16.0013089005236 16.9836387434555  L 16.6884816753927 14.2676701570681  C 16.7866492146597 13.809554973822  17.2447643979058 13.5477748691099  17.7028795811518 13.645942408377  C 18.1609947643979 13.744109947644  18.4227748691099 14.2022251308901  18.3246073298429 14.6603403141361  L 17.7356020942408 16.9509162303665  L 19.1753926701571 16.9509162303665  C 19.6335078534031 16.9509162303665  19.9934554973822 17.3108638743456  19.9934554973822 17.7689790575916  C 19.9934554973822 18.2270942408377  19.6335078534031 18.6524869109948  19.1753926701571 18.6524869109948  L 17.3102094240838 18.6524869109948  L 16.0667539267016 23.6590314136126  L 19.1753926701571 23.6590314136126  C 19.6335078534031 23.6590314136126  19.9934554973822 24.0189790575916  19.9934554973822 24.4770942408377  C 19.9934554973822 24.9352094240838  19.6335078534031 25.2951570680628  19.1753926701571 25.2951570680628  L 15.6413612565445 25.2951570680628  L 14.9541884816754 28.0111256544503  C 14.8560209424084 28.4692408376963  14.3979057591623 28.7310209424084  13.9397905759162 28.6328534031414  C 13.4816753926702 28.5346858638743  13.2198952879581 28.0765706806283  13.3180628272251 27.6184554973822  L 13.9070680628272 25.3278795811518  L 8.99869109947644 25.3278795811518  L 8.31151832460733 28.0438481675393  C 8.21335078534031 28.5019633507853  7.75523560209424 28.7637434554974  7.29712041884817 28.6655759162304  C 6.83900523560209 28.5674083769634  6.57722513089005 28.1092931937173  6.67539267015707 27.6511780104712  L 7.26439790575916 25.3606020942408  L 5.82460732984293 25.3606020942408  C 5.36649214659686 25.3606020942408  5.0065445026178 25.0006544502618  5.0065445026178 24.5425392670157  C 5.0065445026178 24.0844240837696  5.36649214659686 23.7244764397906  5.82460732984293 23.7244764397906  L 7.68979057591623 23.7244764397906  L 8.93324607329843 18.6524869109948  L 5.82460732984293 18.6524869109948  C 5.36649214659686 18.6524869109948  5.0065445026178 18.2925392670157  5.0065445026178 17.8344240837696  C 5.0065445026178 17.3763089005236  5.36649214659686 17.0163612565445  5.82460732984293 17.0163612565445  L 9.32591623036649 17.0163612565445  L 10.0130890052356 14.3003926701571  C 10.1112565445026 13.842277486911  10.5693717277487 13.580497382199  11.0274869109948 13.678664921466  C 11.4856020942408 13.776832460733  11.7473821989529 14.2349476439791  11.6492146596859 14.6930628272251  L 11.0602094240838 16.9836387434555  Z M 10.6675392670157 18.6524869109948  L 9.42408376963351 23.6590314136126  L 14.3651832460733 23.6590314136126  L 15.6086387434555 18.6524869109948  L 10.6675392670157 18.6524869109948  Z M 18.3246073298429 9  L 18.3246073298429 5.33442408376963  L 15.8376963350785 5.33442408376963  C 15.3795811518325 5.33442408376963  15.0196335078534 4.97447643979058  15.0196335078534 4.5163612565445  C 15.0196335078534 3.14201570680628  13.9070680628272 2.02945026178011  12.532722513089 2.02945026178011  C 11.1583769633508 2.02945026178011  10.0458115183246 3.14201570680628  10.0458115183246 4.5163612565445  C 10.0458115183246 4.97447643979058  9.68586387434555 5.33442408376963  9.22774869109947 5.33442408376963  L 6.74083769633508 5.33442408376963  L 6.74083769633508 9  L 18.3246073298429 9  Z " fill-rule="nonzero" fill="#333333" stroke="none" transform="matrix(1 0 0 1 347 136 )" />
  </g>
</svg>