<?xml version="1.0" encoding="utf-8"?>
<!-- Generator: Adobe Illustrator 25.2.0, SVG Export Plug-In . SVG Version: 6.00 Build 0)  -->
<svg version="1.1" id="Layer_1" xmlns="http://www.w3.org/2000/svg" xmlns:xlink="http://www.w3.org/1999/xlink" x="0px" y="0px"
	 viewBox="0 0 40 40" style="enable-background:new 0 0 40 40;" xml:space="preserve">
<style type="text/css">
	.st0{fill:#979696;}
	.st1{fill:#FFFFFF;}
</style>
<circle class="st0" cx="20" cy="20" r="20"/>
<path class="st1" d="M11.4,25.7l2.8-2.6c-0.6-0.9-1-2-1-3.1c0-3.4,3-6.1,6.8-6.1c1.3,0,2.5,0.3,3.5,0.9l2.3-2.1
	C24,12,22.1,11.4,20,11.4c-8.1,0-14.2,7.8-14.4,8.2c-0.2,0.2-0.2,0.6,0,0.8C5.7,20.6,7.9,23.4,11.4,25.7z"/>
<path class="st1" d="M34.4,19.6c-0.2-0.2-2.4-3-5.8-5.3l-2.8,2.6c0.6,0.9,1,2,1,3.1c0,3.4-3,6.1-6.8,6.1c-1.3,0-2.5-0.3-3.5-0.9
	l-2.3,2.1c1.7,0.8,3.7,1.3,5.8,1.3c8.1,0,14.2-7.8,14.4-8.2C34.6,20.2,34.6,19.8,34.4,19.6z"/>
<path class="st1" d="M32.7,8.5c-0.3-0.3-0.8-0.3-1.1,0l-24.3,22c-0.3,0.3-0.3,0.7,0,1c0.2,0.1,0.4,0.2,0.6,0.2
	c0.2,0,0.4-0.1,0.6-0.2l24.3-22C33,9.3,33,8.8,32.7,8.5z"/>
<path class="st1" d="M16,20c0,0.5,0.1,0.9,0.3,1.3l5.2-4.7c-0.4-0.2-0.9-0.2-1.4-0.2C17.8,16.4,16,18,16,20z"/>
<path class="st1" d="M20,23.6c2.2,0,4-1.6,4-3.6c0-0.5-0.1-0.9-0.3-1.3l-5.2,4.7C19,23.5,19.5,23.6,20,23.6z"/>
</svg>
