<!-- Generator: Adobe Illustrator 25.1.0, SVG Export Plug-In  -->
<svg version="1.1" xmlns="http://www.w3.org/2000/svg" xmlns:xlink="http://www.w3.org/1999/xlink" x="0px" y="0px" width="34.7px"
	 height="52.1px" viewBox="0 0 34.7 52.1" style="overflow:visible;enable-background:new 0 0 34.7 52.1;" xml:space="preserve">
<style type="text/css">
	.st0{fill:#333333;}
</style>
<defs>
</defs>
<path class="st0" d="M17.4,4.3h0.2c4.7,0,8.6,3.8,8.6,8.6h4.3C30.5,5.8,24.7,0,17.6,0h-0.2C10.3,0,4.5,5.8,4.5,12.9v8.8H4.3
	C2,21.7,0,23.7,0,26v21.7c0,2.4,2,4.3,4.3,4.3h26c2.4,0,4.3-2,4.3-4.3V26c0-2.4-2-4.3-4.3-4.3H8.8v-8.8C8.8,8.2,12.7,4.3,17.4,4.3z
	 M30.4,47.7h-26V26h26V47.7z"/>
<path class="st0" d="M17.4,43.4c3.6,0,6.5-2.9,6.5-6.5s-2.9-6.5-6.5-6.5s-6.5,2.9-6.5,6.5S13.8,43.4,17.4,43.4z M17.4,34.7
	c1.2,0,2.2,1,2.2,2.2s-1,2.2-2.2,2.2s-2.2-1-2.2-2.2S16.2,34.7,17.4,34.7z"/>
</svg>
