<?xml version="1.0" encoding="utf-8"?>
<!-- Generator: Adobe Illustrator 25.2.0, SVG Export Plug-In . SVG Version: 6.00 Build 0)  -->
<svg version="1.1" id="Layer_1" xmlns="http://www.w3.org/2000/svg" xmlns:xlink="http://www.w3.org/1999/xlink" x="0px" y="0px"
	 viewBox="0 0 100 100" style="enable-background:new 0 0 100 100;" xml:space="preserve">
<style type="text/css">
	.st0{fill:#333333;}
</style>
<g>
	<g>
		<g>
			<path class="st0" d="M58.4,79.3c-3.1,2-6.2,3.9-9.3,5.9c-0.4,0.3-0.9,0.6-1.3,0.8c1.5,0,3,0,4.4,0c-3.4-2.2-6.9-4.4-10.3-6.5
				c-1.4-0.9-2.7-1.8-4-2.8c0.3,0.2,0.6,0.5,0.9,0.7c-3.3-2.6-6.3-5.5-8.8-8.8c0.2,0.3,0.5,0.6,0.7,0.9c-2.6-3.4-4.8-7.1-6.5-11.1
				c0.1,0.4,0.3,0.7,0.4,1c-1.7-4-2.8-8.1-3.4-12.4c0,0.4,0.1,0.8,0.2,1.2c-0.5-3.7-0.4-7.5-0.4-11.2c0-4.3,0-8.6,0-12.9
				c0-1.1,0-2.2,0-3.3c-1.5,1.5-2.9,2.9-4.4,4.4c11-0.9,21.7-3.9,31.5-8.9c1.4-0.7,2.8-1.5,4.2-2.3c-1.5,0-3,0-4.4,0
				c3.7,2,7.4,3.9,11.3,5.5c4.8,2,9.8,3.4,14.9,4.4c3.1,0.6,6.3,1,9.5,1.3c-1.5-1.5-2.9-2.9-4.4-4.4c0,2.9,0,5.8,0,8.7
				c0,3.8,0,7.6,0,11.4c0,2.5-0.1,4.9-0.4,7.3c0-0.4,0.1-0.8,0.2-1.2c-0.6,4.3-1.7,8.5-3.4,12.4c0.1-0.4,0.3-0.7,0.4-1
				c-1.7,3.9-3.8,7.7-6.5,11.1c0.2-0.3,0.5-0.6,0.7-0.9c-2.6,3.3-5.5,6.3-8.8,8.8c0.3-0.2,0.6-0.5,0.9-0.7
				C60.9,77.6,59.7,78.5,58.4,79.3c-1,0.6-1.7,1.5-2,2.6c-0.3,1.1-0.2,2.5,0.4,3.4c0.6,0.9,1.5,1.8,2.6,2c1.1,0.3,2.4,0.2,3.4-0.4
				c5.9-3.8,11-8.6,15.1-14.3c3.8-5.3,6.6-11.4,8.3-17.7c1.2-4.7,1.7-9.6,1.7-14.5c0-3.6,0-7.1,0-10.7c0-2.9,0-5.9,0-8.8
				c0,0,0-0.1,0-0.1c0-1.1-0.5-2.4-1.3-3.1c-0.9-0.8-1.9-1.2-3.1-1.3c-1.3-0.1-2.7-0.3-4-0.4c0.4,0,0.8,0.1,1.2,0.2
				c-6.9-0.9-13.7-2.8-20.2-5.5c0.4,0.1,0.7,0.3,1,0.4c-2.9-1.2-5.7-2.6-8.4-4.2c-0.3-0.2-0.6-0.3-0.9-0.5c-1.5-0.8-3-0.7-4.5,0
				c-0.2,0.1-0.3,0.2-0.5,0.3c-1,0.5-1.9,1.1-2.9,1.6c-1.9,1-3.9,1.9-5.9,2.8c0.4-0.1,0.7-0.3,1-0.4c-6.5,2.7-13.3,4.6-20.2,5.5
				c0.4,0,0.8-0.1,1.2-0.2c-1.3,0.2-2.7,0.3-4,0.4c-1.1,0.1-2.3,0.4-3.1,1.3c-0.8,0.9-1.3,1.9-1.3,3.1c0,3.7,0,7.4,0,11.1
				c0,4-0.1,7.9,0,11.9c0.4,8.8,2.9,17.4,7.4,25c4.3,7.4,10.5,13.6,17.7,18.2c3.4,2.2,6.8,4.3,10.2,6.5c0.1,0.1,0.2,0.1,0.3,0.2
				c1.3,0.8,3.2,0.8,4.4,0c3.1-2,6.2-3.9,9.3-5.9c0.4-0.3,0.9-0.6,1.3-0.8c1-0.6,1.7-1.5,2-2.6c0.3-1.1,0.2-2.5-0.4-3.4
				c-0.6-0.9-1.5-1.8-2.6-2C60.6,78.6,59.4,78.7,58.4,79.3z"/>
		</g>
	</g>
</g>
<path class="st0" d="M38.7,31.3c-1,0-2,0.4-2.8,1.2c-1.5,1.5-1.5,4.1,0,5.6l8.5,8.5l-8.5,8.5c-1.5,1.5-1.5,4.1,0,5.6
	c0.8,0.8,1.8,1.2,2.8,1.2c1,0,2.1-0.4,2.8-1.2l8.5-8.5l8.5,8.5c0.8,0.8,1.8,1.2,2.8,1.2s2.1-0.4,2.8-1.2c1.5-1.5,1.5-4.1,0-5.6
	l-8.5-8.5l8.5-8.5c1.5-1.5,1.5-4.1,0-5.6c-1.5-1.5-4.1-1.5-5.6,0L50,41l-8.5-8.5C40.7,31.7,39.7,31.3,38.7,31.3z"/>
</svg>
