<?xml version="1.0" encoding="utf-8"?>
<!-- Generator: Adobe Illustrator 24.3.0, SVG Export Plug-In . SVG Version: 6.00 Build 0)  -->
<svg version="1.1" id="Layer_1" xmlns="http://www.w3.org/2000/svg" xmlns:xlink="http://www.w3.org/1999/xlink" x="0px" y="0px"
	 viewBox="0 0 316 378" style="enable-background:new 0 0 316 378;" xml:space="preserve">
<style type="text/css">
	.st0{fill:#FCBA19;}
	.st1{fill:#FFFFFF;}
</style>
<g>
	<path class="st0" d="M236,329.5c-24,13-51,20-78,20c-87,0-158-71-158-158c0-28,8-56,22-81c3-4,9-6,14-3c4,3,6,9,3,14
		c-12,21-19,45-19,70c0,76,62,138,138,138c23,0,45-5,65-16l-32-5c-6,0-9-6-9-11c1-5,6-9,12-8l57,8c5,1,9,6,8,12l-8,57c-1,5-6,9-12,8
		c-5-1-9-6-8-11L236,329.5z"/>
	<path class="st1" d="M86,50.5c22-11,47-17,72-17c88,0,158,71,158,158c0,28-7,56-22,80c-3,5-9,7-13,4c-5-3-7-9-4-14
		c13-21,19-45,19-70c0-76-62-138-138-138c-19,0-38,4-56,11l29,5c6,1,10,6,9,11c-1,6-6,9-12,9l-57-9c-5-1-9-6-8-11l8-57
		c1-6,6-10,12-9c5,1,9,6,8,11L86,50.5z"/>
</g>
</svg>
