<?xml version="1.0" encoding="utf-8"?>
<svg version="1.1" xmlns:xlink="http://www.w3.org/1999/xlink" width="34px" height="34px" xmlns="http://www.w3.org/2000/svg">
  <g transform="matrix(1 0 0 1 87 -21 )">
    <path d="M 10.3973214285714 1.34709821428571  C 12.4970238095238 0.449032738095238  14.6979166666667 0  17 0  C 19.3020833333333 0  21.5029761904762 0.449032738095238  23.6026785714286 1.34709821428571  C 25.702380952381 2.24516369047619  27.5111607142857 3.453125  29.0290178571429 4.97098214285714  C 30.546875 6.48883928571429  31.7548363095238 8.29761904761904  32.6529017857143 10.3973214285714  C 33.5509672619048 12.4970238095238  34 14.6979166666667  34 17  C 34 19.2894345238095  33.5541294642857 21.4840029761905  32.6623883928571 23.5837053571429  C 31.7706473214286 25.6834077380952  30.5658482142857 27.4921875  29.0479910714286 29.0100446428571  C 27.5301339285714 30.5279017857143  25.7213541666667 31.739025297619  23.6216517857143 32.6434151785714  C 21.5219494047619 33.5478050595238  19.3147321428571 34  17 34  C 14.6852678571429 34  12.4780505952381 33.5509672619048  10.3783482142857 32.6529017857143  C 8.27864583333333 31.7548363095238  6.47302827380952 30.543712797619  4.96149553571429 29.01953125  C 3.44996279761905 27.495349702381  2.24516369047619 25.6865699404762  1.34709821428571 23.5931919642857  C 0.449032738095238 21.4998139880952  0 19.3020833333333  0 17  C 0 14.6979166666667  0.449032738095238 12.4970238095238  1.34709821428571 10.3973214285714  C 2.24516369047619 8.29761904761904  3.453125 6.48883928571429  4.97098214285714 4.97098214285714  C 6.48883928571429 3.453125  8.29761904761905 2.24516369047619  10.3973214285714 1.34709821428571  Z M 22.9386160714286 19.4285714285714  C 25.9743303571429 19.4285714285714  27.9095982142857 21.4966517857143  28.7444196428571 25.6328125  C 30.6290922619048 23.039806547619  31.5714285714286 20.1622023809524  31.5714285714286 17  C 31.5714285714286 15.0267857142857  31.1856398809524 13.1421130952381  30.4140625 11.3459821428571  C 29.6424851190476 9.54985119047619  28.6052827380952 8.00037202380952  27.3024553571429 6.69754464285714  C 25.9996279761905 5.39471726190476  24.4501488095238 4.35751488095238  22.6540178571429 3.5859375  C 20.8578869047619 2.81436011904762  18.9732142857143 2.42857142857143  17 2.42857142857143  C 15.0267857142857 2.42857142857143  13.1421130952381 2.81436011904762  11.3459821428571 3.5859375  C 9.54985119047619 4.35751488095238  8.00037202380953 5.39471726190476  6.69754464285714 6.69754464285714  C 5.39471726190476 8.00037202380952  4.35751488095238 9.54985119047619  3.5859375 11.3459821428571  C 2.81436011904762 13.1421130952381  2.42857142857143 15.0267857142857  2.42857142857143 17  C 2.42857142857143 20.1622023809524  3.37090773809524 23.039806547619  5.25558035714286 25.6328125  C 6.09040178571429 21.4966517857143  8.02566964285714 19.4285714285714  11.0613839285714 19.4285714285714  C 12.7183779761905 21.047619047619  14.6979166666667 21.8571428571429  17 21.8571428571429  C 19.3020833333333 21.8571428571429  21.2816220238095 21.047619047619  22.9386160714286 19.4285714285714  Z M 22.1512276785714 18.5083705357143  C 23.57421875 17.0853794642857  24.2857142857143 15.3683035714286  24.2857142857143 13.3571428571429  C 24.2857142857143 11.3459821428571  23.57421875 9.62890625  22.1512276785714 8.20591517857143  C 20.7282366071429 6.78292410714286  19.0111607142857 6.07142857142857  17 6.07142857142857  C 14.9888392857143 6.07142857142857  13.2717633928571 6.78292410714286  11.8487723214286 8.20591517857143  C 10.42578125 9.62890625  9.71428571428571 11.3459821428571  9.71428571428571 13.3571428571429  C 9.71428571428571 15.3683035714286  10.42578125 17.0853794642857  11.8487723214286 18.5083705357143  C 13.2717633928571 19.9313616071429  14.9888392857143 20.6428571428571  17 20.6428571428571  C 19.0111607142857 20.6428571428571  20.7282366071429 19.9313616071429  22.1512276785714 18.5083705357143  Z " fill-rule="nonzero" fill="#ffffff" stroke="none" transform="matrix(1 0 0 1 -87 21 )" />
  </g>
</svg>