<svg height='100px' width='100px'  fill="#333333" xmlns="http://www.w3.org/2000/svg" xmlns:xlink="http://www.w3.org/1999/xlink" version="1.1" x="0px" y="0px" viewBox="0 0 1024 1024" style="enable-background:new 0 0 1024 1024;" xml:space="preserve"><g><g><g><path d="M597.7,812.4c-31.7,20-63.3,40-95,60c-4.5,2.8-9,5.7-13.5,8.5c15.1,0,30.3,0,45.4,0     c-35.3-22.3-70.5-44.6-105.8-66.8c-14.1-8.9-27.9-18.4-41.1-28.6c3,2.3,6.1,4.7,9.1,7c-33.9-26.2-64.3-56.6-90.6-90.4     c2.3,3,4.7,6.1,7,9.1c-26.8-34.7-49.1-72.8-66.1-113.3c1.5,3.6,3,7.2,4.5,10.7C234.7,568,223,525.2,217,481.4c0.5,4,1.1,8,1.6,12     c-5.1-38.3-4.6-76.6-4.6-115.1c0-44.1,0-88.2,0-132.4c0-11.1,0-22.2,0-33.3c-15,15-30,30-45,45c112.6-9.2,222-39.9,322.7-91.3     c14.5-7.4,28.7-15.4,43-23.2c-15.1,0-30.3,0-45.4,0C527,163.9,565.1,183,605,199.3c49.2,20.1,100.4,35.2,152.6,45.2     c32.1,6.1,64.7,10.5,97.3,13.2c-15-15-30-30-45-45c0,29.7,0,59.4,0,89c0,38.9,0,77.8,0,116.8c0,25.1-1.2,50-4.6,74.9     c0.5-4,1.1-8,1.6-12c-6,43.8-17.7,86.6-34.8,127.3c1.5-3.6,3-7.2,4.5-10.7c-17.1,40.4-39.3,78.5-66.1,113.3c2.3-3,4.7-6.1,7-9.1     c-26.3,33.8-56.7,64.2-90.6,90.4c3-2.3,6.1-4.7,9.1-7C623.8,795,610.9,804,597.7,812.4c-9.8,6.2-17.6,15.6-20.7,26.9     c-3,10.8-1.6,25.1,4.5,34.7c6.2,9.6,15.4,18.1,26.9,20.7c11.6,2.6,24.4,2,34.7-4.5c60.9-38.6,112.7-88.1,155-146.4     c39.1-54,68-116.6,84.5-181.2c12.4-48.5,17.4-98.4,17.4-148.4c0-36.5,0-73,0-109.4c0-30.2,0.3-60.3,0-90.5c0-0.5,0-1,0-1.5     c0-11-4.9-24.2-13.2-31.8c-9.2-8.4-19.4-12.2-31.8-13.2c-13.7-1.1-27.4-2.6-41.1-4.4c4,0.5,8,1.1,12,1.6     c-71.1-9.6-140.7-28.6-206.8-56.5c3.6,1.5,7.2,3,10.7,4.5c-29.5-12.5-57.9-27-86-42.5c-3-1.7-6-3.4-9.1-5     c-15.2-7.8-31.1-7.6-46.1,0.4c-1.6,0.8-3.1,1.7-4.7,2.6c-9.9,5.4-19.7,10.9-29.6,16.1c-19.6,10.3-39.7,19.7-60,28.4     c3.6-1.5,7.2-3,10.7-4.5c-66.1,27.9-135.7,46.9-206.8,56.5c4-0.5,8-1.1,12-1.6c-13.7,1.8-27.4,3.3-41.1,4.4     c-11.6,0.9-23.6,4.2-31.8,13.2c-8.1,8.8-13.2,19.6-13.2,31.8c0,38,0,75.9,0,113.9c0,40.5-1.3,81.3,0.5,121.7     c4.1,89.8,29.8,178.3,75.5,255.8c44.5,75.4,107.2,139.3,181.1,186.1c34.9,22.1,69.9,44.2,104.8,66.2c1.1,0.7,2.3,1.4,3.4,2.2     c13.1,8.3,32.3,8.3,45.4,0c31.7-20,63.3-40,95-60c4.5-2.8,9-5.7,13.5-8.5c9.8-6.2,17.6-15.6,20.7-26.9c3-10.8,1.6-25.1-4.5-34.7     c-6.2-9.6-15.4-18.1-26.9-20.7C620.8,805.2,608,805.8,597.7,812.4z"></path></g></g><g><g><path d="M317.2,508.5c32.2,32.2,64.5,64.5,96.7,96.7c4.6,4.6,9.2,9.2,13.8,13.8c17.2,17.2,46.4,17.2,63.6,0     c24.4-24.4,48.8-48.8,73.2-73.2c38.6-38.6,77.1-77.1,115.7-115.7c8.8-8.8,17.6-17.6,26.4-26.4c8.2-8.2,13.2-20.3,13.2-31.8     c0-11-4.9-24.2-13.2-31.8c-8.6-7.9-19.8-13.7-31.8-13.2c-11.9,0.5-23.2,4.6-31.8,13.2c-24.4,24.4-48.8,48.8-73.2,73.2     c-38.6,38.6-77.1,77.1-115.7,115.7c-8.8,8.8-17.6,17.6-26.4,26.4c21.2,0,42.4,0,63.6,0c-32.2-32.2-64.5-64.5-96.7-96.7     c-4.6-4.6-9.2-9.2-13.8-13.8c-8.2-8.2-20.3-13.2-31.8-13.2c-11,0-24.2,4.9-31.8,13.2c-7.9,8.6-13.7,19.8-13.2,31.8     C304.6,488.6,308.6,499.9,317.2,508.5L317.2,508.5z"></path></g></g></g></svg>