<?xml version="1.0" encoding="utf-8"?>
<svg version="1.1" xmlns:xlink="http://www.w3.org/1999/xlink" width="7px" height="21px" xmlns="http://www.w3.org/2000/svg">
  <defs>
    <mask fill="white" id="clip54">
      <path d="M 6.86624203821656 0.449632533072023  C 6.83651804670913 0.208182263596276  6.62845010615711 0.0270945614894653  6.39065817409767 0.0270945614894653  C 6.12314225053079 0.0270945614894653  5.97452229299363 0.208182263596276  5.97452229299363 0.449632533072023  L 5.97452229299363 5.21827535521803  L 4.84501061571125 5.21827535521803  L 4.84501061571125 0.449632533072023  C 4.84501061571125 0.178000979911807  4.66666666666667 0.0270945614894653  4.42887473460722 0.0270945614894653  C 4.16135881104034 0.0270945614894653  4.01273885350318 0.208182263596276  4.01273885350318 0.449632533072023  L 4.01273885350318 5.21827535521803  L 2.88322717622081 5.21827535521803  L 2.88322717622081 0.449632533072023  C 2.88322717622081 0.208182263596276  2.70488322717622 0.0270945614894653  2.43736730360934 0.0270945614894653  C 2.19957537154989 0.0270945614894653  2.02123142250531 0.208182263596276  2.02123142250531 0.449632533072023  L 2.02123142250531 5.21827535521803  L 0.861995753715499 5.21827535521803  L 0.861995753715499 0.449632533072023  C 0.861995753715499 0.208182263596276  0.683651804670913 0.0270945614894653  0.416135881104034 0.0270945614894653  C 0.148619957537155 0.0270945614894653  0 0.208182263596276  0 0.449632533072023  L 0 5.64081332680059  C 0 7.11969622733954  0.89171974522293 8.35712885840274  2.19957537154989 8.8702106810387  L 1.75371549893843 19.2223909848114  C 1.723991507431 19.7052915237629  1.87261146496815 20.1278294953454  2.22929936305732 20.4296423321901  C 2.52653927813163 20.7918177364037  2.9723991507431 20.9427241548261  3.41825902335456 20.9427241548261  C 3.89384288747346 20.9427241548261  4.30997876857749 20.7616364527193  4.6072186836518 20.4296423321901  C 4.90445859872611 20.0976482116609  5.0828025477707 19.6449289563939  5.0828025477707 19.2223909848114  L 4.66666666666667 8.8702106810387  C 5.9447983014862 8.35712885840274  6.86624203821656 7.11969622733954  6.86624203821656 5.64081332680059  L 6.86624203821656 0.449632533072023  Z M 3.8343949044586 9.08147966682998  L 4.2208067940552 19.2525722684958  C 4.2208067940552 19.4638412542871  4.13163481953291 19.6751102400784  4.01273885350318 19.8561979421852  C 3.71549893842887 20.1580107790299  3.15074309978769 20.1580107790299  2.85350318471338 19.8561979421852  C 2.67515923566879 19.6751102400784  2.64543524416136 19.4638412542871  2.64543524416136 19.2525722684958  L 3.06157112526539 9.08147966682998  C 3.18046709129512 9.08147966682998  3.32908704883227 9.11166095051445  3.447983014862 9.11166095051445  C 3.56687898089172 9.11166095051445  3.71549893842888 9.11166095051445  3.8343949044586 9.08147966682998  Z M 5.91507430997877 6.09353258206761  C 5.70700636942675 7.27060264576188  4.6963906581741 8.23640372366487  3.38853503184713 8.23640372366487  C 2.14012738853503 8.23640372366487  1.07006369426752 7.33096521313082  0.89171974522293 6.09353258206761  L 5.91507430997877 6.09353258206761  Z " fill-rule="evenodd" />
    </mask>
  </defs>
  <g transform="matrix(1 0 0 1 -888 -142 )">
    <path d="M 6.86624203821656 0.449632533072023  C 6.83651804670913 0.208182263596276  6.62845010615711 0.0270945614894653  6.39065817409767 0.0270945614894653  C 6.12314225053079 0.0270945614894653  5.97452229299363 0.208182263596276  5.97452229299363 0.449632533072023  L 5.97452229299363 5.21827535521803  L 4.84501061571125 5.21827535521803  L 4.84501061571125 0.449632533072023  C 4.84501061571125 0.178000979911807  4.66666666666667 0.0270945614894653  4.42887473460722 0.0270945614894653  C 4.16135881104034 0.0270945614894653  4.01273885350318 0.208182263596276  4.01273885350318 0.449632533072023  L 4.01273885350318 5.21827535521803  L 2.88322717622081 5.21827535521803  L 2.88322717622081 0.449632533072023  C 2.88322717622081 0.208182263596276  2.70488322717622 0.0270945614894653  2.43736730360934 0.0270945614894653  C 2.19957537154989 0.0270945614894653  2.02123142250531 0.208182263596276  2.02123142250531 0.449632533072023  L 2.02123142250531 5.21827535521803  L 0.861995753715499 5.21827535521803  L 0.861995753715499 0.449632533072023  C 0.861995753715499 0.208182263596276  0.683651804670913 0.0270945614894653  0.416135881104034 0.0270945614894653  C 0.148619957537155 0.0270945614894653  0 0.208182263596276  0 0.449632533072023  L 0 5.64081332680059  C 0 7.11969622733954  0.89171974522293 8.35712885840274  2.19957537154989 8.8702106810387  L 1.75371549893843 19.2223909848114  C 1.723991507431 19.7052915237629  1.87261146496815 20.1278294953454  2.22929936305732 20.4296423321901  C 2.52653927813163 20.7918177364037  2.9723991507431 20.9427241548261  3.41825902335456 20.9427241548261  C 3.89384288747346 20.9427241548261  4.30997876857749 20.7616364527193  4.6072186836518 20.4296423321901  C 4.90445859872611 20.0976482116609  5.0828025477707 19.6449289563939  5.0828025477707 19.2223909848114  L 4.66666666666667 8.8702106810387  C 5.9447983014862 8.35712885840274  6.86624203821656 7.11969622733954  6.86624203821656 5.64081332680059  L 6.86624203821656 0.449632533072023  Z M 3.8343949044586 9.08147966682998  L 4.2208067940552 19.2525722684958  C 4.2208067940552 19.4638412542871  4.13163481953291 19.6751102400784  4.01273885350318 19.8561979421852  C 3.71549893842887 20.1580107790299  3.15074309978769 20.1580107790299  2.85350318471338 19.8561979421852  C 2.67515923566879 19.6751102400784  2.64543524416136 19.4638412542871  2.64543524416136 19.2525722684958  L 3.06157112526539 9.08147966682998  C 3.18046709129512 9.08147966682998  3.32908704883227 9.11166095051445  3.447983014862 9.11166095051445  C 3.56687898089172 9.11166095051445  3.71549893842888 9.11166095051445  3.8343949044586 9.08147966682998  Z M 5.91507430997877 6.09353258206761  C 5.70700636942675 7.27060264576188  4.6963906581741 8.23640372366487  3.38853503184713 8.23640372366487  C 2.14012738853503 8.23640372366487  1.07006369426752 7.33096521313082  0.89171974522293 6.09353258206761  L 5.91507430997877 6.09353258206761  Z " fill-rule="nonzero" fill="#169bd5" stroke="none" transform="matrix(1 0 0 1 888 142 )" />
    <path d="M 6.86624203821656 0.449632533072023  C 6.83651804670913 0.208182263596276  6.62845010615711 0.0270945614894653  6.39065817409767 0.0270945614894653  C 6.12314225053079 0.0270945614894653  5.97452229299363 0.208182263596276  5.97452229299363 0.449632533072023  L 5.97452229299363 5.21827535521803  L 4.84501061571125 5.21827535521803  L 4.84501061571125 0.449632533072023  C 4.84501061571125 0.178000979911807  4.66666666666667 0.0270945614894653  4.42887473460722 0.0270945614894653  C 4.16135881104034 0.0270945614894653  4.01273885350318 0.208182263596276  4.01273885350318 0.449632533072023  L 4.01273885350318 5.21827535521803  L 2.88322717622081 5.21827535521803  L 2.88322717622081 0.449632533072023  C 2.88322717622081 0.208182263596276  2.70488322717622 0.0270945614894653  2.43736730360934 0.0270945614894653  C 2.19957537154989 0.0270945614894653  2.02123142250531 0.208182263596276  2.02123142250531 0.449632533072023  L 2.02123142250531 5.21827535521803  L 0.861995753715499 5.21827535521803  L 0.861995753715499 0.449632533072023  C 0.861995753715499 0.208182263596276  0.683651804670913 0.0270945614894653  0.416135881104034 0.0270945614894653  C 0.148619957537155 0.0270945614894653  0 0.208182263596276  0 0.449632533072023  L 0 5.64081332680059  C 0 7.11969622733954  0.89171974522293 8.35712885840274  2.19957537154989 8.8702106810387  L 1.75371549893843 19.2223909848114  C 1.723991507431 19.7052915237629  1.87261146496815 20.1278294953454  2.22929936305732 20.4296423321901  C 2.52653927813163 20.7918177364037  2.9723991507431 20.9427241548261  3.41825902335456 20.9427241548261  C 3.89384288747346 20.9427241548261  4.30997876857749 20.7616364527193  4.6072186836518 20.4296423321901  C 4.90445859872611 20.0976482116609  5.0828025477707 19.6449289563939  5.0828025477707 19.2223909848114  L 4.66666666666667 8.8702106810387  C 5.9447983014862 8.35712885840274  6.86624203821656 7.11969622733954  6.86624203821656 5.64081332680059  L 6.86624203821656 0.449632533072023  Z " stroke-width="6" stroke="#169bd5" fill="none" transform="matrix(1 0 0 1 888 142 )" mask="url(#clip54)" />
    <path d="M 3.8343949044586 9.08147966682998  L 4.2208067940552 19.2525722684958  C 4.2208067940552 19.4638412542871  4.13163481953291 19.6751102400784  4.01273885350318 19.8561979421852  C 3.71549893842887 20.1580107790299  3.15074309978769 20.1580107790299  2.85350318471338 19.8561979421852  C 2.67515923566879 19.6751102400784  2.64543524416136 19.4638412542871  2.64543524416136 19.2525722684958  L 3.06157112526539 9.08147966682998  C 3.18046709129512 9.08147966682998  3.32908704883227 9.11166095051445  3.447983014862 9.11166095051445  C 3.56687898089172 9.11166095051445  3.71549893842888 9.11166095051445  3.8343949044586 9.08147966682998  Z " stroke-width="6" stroke="#169bd5" fill="none" transform="matrix(1 0 0 1 888 142 )" mask="url(#clip54)" />
    <path d="M 5.91507430997877 6.09353258206761  C 5.70700636942675 7.27060264576188  4.6963906581741 8.23640372366487  3.38853503184713 8.23640372366487  C 2.14012738853503 8.23640372366487  1.07006369426752 7.33096521313082  0.89171974522293 6.09353258206761  L 5.91507430997877 6.09353258206761  Z " stroke-width="6" stroke="#169bd5" fill="none" transform="matrix(1 0 0 1 888 142 )" mask="url(#clip54)" />
  </g>
</svg>