<svg height='100px' width='100px'  fill="#cb0000" xmlns="http://www.w3.org/2000/svg" xmlns:xlink="http://www.w3.org/1999/xlink" version="1.1" x="0px" y="0px" viewBox="0 0 12 12" enable-background="new 0 0 12 12" xml:space="preserve"><g><g><path fill="#cb0000" d="M10.447693,11.402344H1.553162c-0.561523,0-1.063477-0.290039-1.34375-0.776367    c-0.280273-0.485352-0.280273-1.06543,0.000977-1.550781l4.447266-7.702148C4.936951,0.887695,5.43988,0.597656,6.000427,0.597656    s1.063477,0.290039,1.34375,0.775391l4.446289,7.702148c0.280273,0.486328,0.280273,1.066406,0,1.551758    S11.00824,11.402344,10.447693,11.402344z M6.000427,1.597656c-0.095703,0-0.333984,0.026367-0.476562,0.275391L1.075623,9.575195    c-0.143555,0.249023-0.047852,0.46875,0,0.551758s0.19043,0.275391,0.477539,0.275391h8.894531    c0.287109,0,0.428711-0.192383,0.476562-0.275391s0.144531-0.302734,0-0.551758L6.477966,1.873047    C6.334412,1.624023,6.09613,1.597656,6.000427,1.597656z"></path></g><g><path fill="#cb0000" d="M6.085388,7.578125c-0.276367,0-0.5-0.223633-0.5-0.5v-2.75293c0-0.276367,0.223633-0.5,0.5-0.5    s0.5,0.223633,0.5,0.5v2.75293C6.585388,7.354492,6.361755,7.578125,6.085388,7.578125z"></path></g><g><circle fill="#cb0000" cx="6.085185" cy="8.744164" r="0.6"></circle></g></g></svg>