<!-- Generator: Adobe Illustrator 25.2.1, SVG Export Plug-In  -->
<svg version="1.1" xmlns="http://www.w3.org/2000/svg" xmlns:xlink="http://www.w3.org/1999/xlink" x="0px" y="0px" width="87.54px"
	 height="80.92px" viewBox="0 0 87.54 80.92" style="overflow:visible;enable-background:new 0 0 87.54 80.92;"
	 xml:space="preserve">
<style type="text/css">
	.st0{fill:#FFFFFF;stroke:#FFFFFF;stroke-miterlimit:10;}
</style>
<defs>
</defs>
<path class="st0" d="M86.97,50.27l-8.81-21.92c-0.11-0.27-0.32-0.49-0.59-0.6l-22.25-9.09c-0.26-0.1-0.55-0.1-0.82,0l-22.25,9.09
	c-0.27,0.11-0.48,0.33-0.59,0.6l-8.81,21.92c-0.05,0.13-0.08,0.26-0.08,0.4v27.6H2.66v-60.6c0-8.56,6.08-15.01,14.15-15.01
	c7.93,0,14.15,6.44,14.15,14.66v7.11c0,0.6,0.48,1.08,1.08,1.08c0.6,0,1.08-0.48,1.08-1.08v-7.11c0-9.43-7.16-16.81-16.31-16.81
	C7.51,0.5,0.5,7.88,0.5,17.67v61.67c0,0.6,0.48,1.08,1.08,1.08h22.27h0.04h15.87h30.31h15.9c0.59,0,1.08-0.48,1.08-1.08V50.67
	C87.04,50.53,87.02,50.4,86.97,50.27z M68.99,76.96L56.54,66.02l12.45-10.94L68.99,76.96L68.99,76.96z M67.2,78.27h-24.6l12.3-10.81
	L67.2,78.27z M54.91,64.58l-12.3-10.81h24.6L54.91,64.58z M53.28,66.02L40.83,76.96V55.08L53.28,66.02z M84.89,78.27H71.14V52.7
	c0-0.02,0-0.04-0.01-0.06c0-0.04-0.01-0.08-0.01-0.11c0-0.03-0.01-0.07-0.02-0.1c-0.01-0.03-0.02-0.07-0.03-0.1
	c-0.01-0.03-0.03-0.06-0.04-0.1c-0.02-0.03-0.03-0.06-0.05-0.09c-0.02-0.03-0.04-0.06-0.07-0.09c-0.01-0.02-0.02-0.04-0.04-0.05
	c-0.01-0.01-0.02-0.02-0.02-0.02c-0.03-0.03-0.06-0.05-0.08-0.08c-0.03-0.02-0.05-0.04-0.08-0.06c-0.03-0.02-0.06-0.04-0.09-0.06
	c-0.03-0.02-0.06-0.03-0.09-0.05c-0.03-0.02-0.06-0.03-0.1-0.04c-0.03-0.01-0.07-0.02-0.1-0.03c-0.03-0.01-0.06-0.01-0.1-0.02
	c-0.04-0.01-0.07-0.01-0.11-0.01c-0.01,0-0.02,0-0.03,0H39.75c-0.01,0-0.02,0-0.03,0c-0.04,0-0.07,0.01-0.11,0.01
	c-0.03,0.01-0.07,0.01-0.1,0.02c-0.03,0.01-0.06,0.02-0.1,0.03c-0.03,0.01-0.07,0.02-0.1,0.04c-0.03,0.01-0.06,0.03-0.09,0.05
	c-0.03,0.02-0.06,0.04-0.09,0.06c-0.03,0.02-0.05,0.04-0.08,0.06c-0.03,0.03-0.06,0.05-0.08,0.08c-0.01,0.01-0.02,0.01-0.02,0.02
	c-0.01,0.01-0.02,0.03-0.04,0.05c-0.02,0.03-0.05,0.06-0.07,0.09c-0.02,0.03-0.03,0.06-0.05,0.09c-0.01,0.03-0.03,0.06-0.04,0.1
	s-0.02,0.07-0.03,0.1c-0.01,0.03-0.02,0.06-0.02,0.1c-0.01,0.04-0.01,0.08-0.01,0.11c0,0.02-0.01,0.04-0.01,0.06v25.57H24.93V50.88
	l8.56-21.31l21.42-8.75l21.42,8.75l8.56,21.31L84.89,78.27L84.89,78.27z"/>
</svg>
