<svg height='100px' width='100px'  fill="#ffffff" xmlns="http://www.w3.org/2000/svg" xmlns:xlink="http://www.w3.org/1999/xlink" version="1.1" x="0px" y="0px" viewBox="0 0 512 512" style="enable-background:new 0 0 512 512;" xml:space="preserve"><title>Livestock-climatechange-farm-farming-cattle</title><path d="M480,336c0,17.7-14.3,32-32,32h-16c-4.4,0-8-3.6-8-8v-28c0-15.5-12.5-28-28-28c-13.9,0-25.7,10.2-27.7,24H352v16h17.3  c1,5,2.7,9.8,4.9,14.3l1.8,3.6V399c0,20.5,12.8,38.8,32,46v51h16v-48c0.3,0,0.6,0,1,0h15v48h16v-50.3c23.7-7.1,40-28.9,40-53.7v-56  H480z M480,392c0,22.1-17.9,40-40,40h-15c-18.2,0-33-14.8-33-33v-40.9l-3.5-7c-3-5.9-4.5-12.5-4.5-19.2c0-6.6,5.4-12,12-12  s12,5.4,12,12v28c0,13.2,10.8,24,24,24h16c11.8,0,23.2-4.4,32-12.3V392z"></path><rect x="112" y="80" width="16" height="16"></rect><path d="M352,264c0,13.2,10.7,24,24,24c5.9,0,11.6-2.2,16-6.1c9.9,8.8,25,8,33.9-1.8c4-4.4,6.1-10.1,6.1-16V120  c0-15.1-6.1-29.5-16.9-40h8.9c13.2,0,24,10.8,24,24v88h16v-88c0-22.1-17.9-40-40-40H202.5c8.8-11.5,13.6-25.5,13.5-40v-8h-8  c-17.5,0-34.3,6.9-46.6,19.3l-4.7,4.7H151c-3.7-14.1-16.4-24-31-24h-16v16h16c5.7,0,11,3.1,13.8,8h-0.6c-10.6,0-20.8,4.2-28.3,11.7  L60.1,96.5c-12.7,12.7-12.7,33.3,0,45.9c6.1,6.1,14.4,9.5,23,9.5h43.1c14.3,0,25.8,11.6,25.8,25.8V264c0,13.2,10.7,24,24,24  c5.9,0,11.6-2.2,16-6.1c9.9,8.8,25,8,33.9-1.8c4-4.4,6.1-10.1,6.1-16v-41.6c0-2.2,0.2-4.3,0.5-6.4h8.8c2.1,0,4.2,0.8,5.7,2.3  l5.3,5.3c3.5,3.5,7.4,6.5,11.7,9V248h16v-9.3c3.9,0.8,7.9,1.3,11.9,1.3h0.2c4,0,8-0.4,11.9-1.3v9.3h16v-15.4c4.3-2.5,8.2-5.5,11.7-9  l5.3-5.3c1.5-1.5,3.5-2.3,5.7-2.3h9.4V264z M384,264c0,4.4-3.6,8-8,8s-8-3.6-8-8v-58.8c10,6.5,16,17.7,16,29.6V264z M376,80  c22.1,0,40,17.9,40,40v16h-7c-5,0-9-4-9-9c0-6.6-2.6-13-7.3-17.7l-14.1-14.1c-1.7-1.7-2.6-4-2.6-6.3V80z M240,80h76.7l-13.4,13.4  c-4.7,4.7-7.3,11-7.3,17.7c0,5-4,9-9,9h-24c-2.4,0-4.7-1-6.3-2.6l-14.1-14.1c-1.7-1.7-2.6-4-2.6-6.3V80z M342.6,200  c-6.4,0-12.5,2.5-17,7l-5.3,5.3c-7.5,7.5-17.7,11.7-28.3,11.7h-0.2c-10.6,0-20.8-4.2-28.3-11.7l-5.3-5.3c-4.5-4.5-10.6-7-17-7h-2.4  c5.9-9,9.1-19.6,9.1-30.4V152h-16v17.6c0,7.8-2.3,15.5-6.7,22c-6.1,9.1-9.4,19.9-9.3,30.9V264c0,4.4-3.6,8-8,8s-8-3.6-8-8V152h-16  v112c0,4.4-3.6,8-8,8s-8-3.6-8-8v-86.2c0-23.1-18.7-41.8-41.8-41.8H94.9l7.7-11.6l-13.3-8.9l-12.7,19.1c-8.4-3.6-12.2-13.3-8.6-21.7  c0.8-1.9,2-3.7,3.5-5.2L116.3,63c4.5-4.5,10.6-7,17-7h7.4l-10.3,10.3l11.3,11.3l31-31c7.2-7.2,16.5-12.1,26.6-13.9  c-1.8,10.1-6.6,19.3-13.9,26.6l-15,15l11.3,11.3l5.7-5.7H224v17c0,6.6,2.6,13,7.3,17.7l14.1,14.1c4.7,4.7,11,7.3,17.7,7.3h24  c13.8,0,25-11.2,25-25c0-2.4,0.9-4.7,2.6-6.3L339.3,80H360v9c0,6.6,2.6,13,7.3,17.7l14.1,14.1c1.7,1.7,2.6,4,2.6,6.3  c0,13.8,11.2,25,25,25h7v112c0,4.4-3.6,8-8,8s-8-3.6-8-8v-32h-0.1c-1-18.4-11.8-34.9-28.3-43.2c-12-6-19.6-18.2-19.6-31.7V152h-16  v5.2c0,14.1,5.7,27.6,16,37.3v5.5H342.6z"></path><path d="M288,304H119.7c-2.4,0-4.7-1.1-6.2-3l-12.2-15.3C90.3,272,73.6,264,56,264h-8v11.3c0,14.2,5.2,27.9,14.7,38.5l-11,27.6  c-1,2.4-3,4.2-5.5,4.8l-11.9,3C23.5,351.9,16,361.5,16,372.5v1c0,9.6,5.7,18.3,14.5,22.1L72,413.3V472c0,13.2,10.7,24,24,24  c5.9,0,11.6-2.2,16-6.1c9.9,8.8,25,8,33.9-1.8c4-4.4,6.1-10.1,6.1-16v-28.7c0-3.1,0.7-6.1,2.2-8.9c31.6,17,69.4,18,101.8,2.8V472  c0,13.2,10.7,24,24,24c5.9,0,11.6-2.2,16-6.1c9.9,8.8,25,8,33.9-1.8c4-4.4,6.1-10.1,6.1-16V352C336,325.5,314.5,304,288,304z   M288,472c0,4.4-3.6,8-8,8s-8-3.6-8-8v-54.4l6.2,4.2c6.1,4.1,9.8,10.9,9.8,18.2V472z M320,472c0,4.4-3.6,8-8,8s-8-3.6-8-8v-32  c0-12.7-6.3-24.5-16.9-31.5l-21.4-14.3c-6.1-4.1-9.8-10.9-9.8-18.2h-16c0,12.3,6,23.8,16,30.9v12.3c-28.4,16.2-63,17-92.2,2.2  c2.8-5.1,4.2-10.9,4.2-16.7V376h-16v28.7c0,5.1-2,10-5.7,13.7c-6.6,6.6-10.4,15.6-10.3,25V472c0,4.4-3.6,8-8,8c-4.4,0-8-3.6-8-8v-72  h-16v72c0,4.4-3.6,8-8,8s-8-3.6-8-8v-69.3l-51.2-21.9c-2.9-1.3-4.9-4.2-4.8-7.4v-1c0-3.7,2.5-6.9,6.1-7.8l11.9-3  c7.5-1.9,13.6-7.2,16.5-14.4l14.9-37.3l-5.1-5.1c-6.5-6.5-10.7-15-11.9-24.1c9.6,1.9,18.3,7.2,24.4,14.9l12.2,15.3  c4.5,5.7,11.4,9,18.7,9H288c7.1,0,14,2.3,19.5,6.7l-5.3,3.5c-8.9,5.9-14.3,15.9-14.2,26.6V368h16v-11.2c0-5.4,2.7-10.3,7.1-13.3  l6.3-4.2c1.7,4,2.6,8.3,2.6,12.6V472z"></path><rect x="88" y="336" width="16" height="16"></rect></svg>