<svg height='100px' width='100px'  fill="#234075" xmlns="http://www.w3.org/2000/svg" xmlns:xlink="http://www.w3.org/1999/xlink" version="1.1" x="0px" y="0px" viewBox="0 0 32 32" enable-background="new 0 0 32 32" xml:space="preserve"><path d="M25.646,7.939l-1.586-1.586c-0.566-0.566-1.556-0.566-2.121,0L8.646,19.646c-0.06,0.06-0.095,0.133-0.118,0.207  c-0.003,0.01-0.012,0.016-0.014,0.024l-1,4c-0.042,0.17,0.008,0.351,0.132,0.476C7.741,24.448,7.869,24.5,8,24.5  c0.04,0,0.081-0.005,0.121-0.016l4-1c0.009-0.002,0.015-0.01,0.022-0.012c0.076-0.023,0.149-0.059,0.21-0.119L25.646,10.06  C25.93,9.777,26.086,9.4,26.086,9S25.93,8.223,25.646,7.939z M8.688,23.313l0.583-2.334l1.751,1.75L8.688,23.313z M12,22.293  L9.707,20L20,9.707L22.293,12L12,22.293z M24.939,9.354L23,11.293L20.707,9l1.939-1.939c0.188-0.188,0.518-0.188,0.707,0  l1.586,1.586c0.095,0.095,0.146,0.22,0.146,0.354S25.034,9.259,24.939,9.354z"></path></svg>