<?xml version="1.0" encoding="utf-8"?>
<!-- Generator: Adobe Illustrator 24.2.0, SVG Export Plug-In . SVG Version: 6.00 Build 0)  -->
<svg version="1.1" id="Layer_1" xmlns="http://www.w3.org/2000/svg" xmlns:xlink="http://www.w3.org/1999/xlink" x="0px" y="0px"
	 viewBox="0 0 112.5 92.3" style="enable-background:new 0 0 112.5 92.3;" xml:space="preserve">
<style type="text/css">
	.st0{fill:#333333;}
</style>
<path class="st0" d="M16.4,84.6L16.4,84.6H74c0.8,0,1.7-0.1,2.5-0.3c3.1,1.8,6.8,2.8,10.6,2.8c12.1,0,21.9-9.8,21.9-21.9
	s-9.8-21.9-21.9-21.9c-0.6,0-1.3,0-1.9,0.1V6.4c0-1.2-1-2.2-2.2-2.2H25.5c-1.2,0-2.2,1-2.2,2.2V49h-16c-1.2,0-2.2,1-2.2,2.2v22
	C5.2,79.4,10.2,84.4,16.4,84.6z M104.6,65.1c0,9.7-7.9,17.6-17.6,17.6c-9.7,0-17.6-7.9-17.6-17.6c0-9.7,7.9-17.6,17.6-17.6
	C96.7,47.6,104.6,55.4,104.6,65.1z M80.9,8.6v35.6c-9,2.7-15.7,11.1-15.7,21c0,5.9,2.3,11.2,6.1,15.1h-46c1.6-2,2.4-4.4,2.4-6.9
	V51.3l0,0V8.6H80.9z M9.5,53.4h13.9v17.2l0,0v2.8c0,1.9-0.7,3.6-2,4.9c-1.3,1.3-3.1,2-4.9,2c-3.8,0-6.9-3.1-6.9-6.9L9.5,53.4
	L9.5,53.4z"/>
<path class="st0" d="M34.9,30.7h38c1.2,0,2.2-1,2.2-2.2s-1-2.2-2.2-2.2h-38c-1.2,0-2.2,1-2.2,2.2S33.7,30.7,34.9,30.7z"/>
<path class="st0" d="M34.9,21.3h38c1.2,0,2.2-1,2.2-2.2s-1-2.2-2.2-2.2h-38c-1.2,0-2.2,1-2.2,2.2S33.7,21.3,34.9,21.3z"/>
<path class="st0" d="M34.9,40.1h38c1.2,0,2.2-1,2.2-2.2s-1-2.2-2.2-2.2h-38c-1.2,0-2.2,1-2.2,2.2S33.7,40.1,34.9,40.1z"/>
<path class="st0" d="M34.9,49.4h20.6c1.2,0,2.2-1,2.2-2.2s-1-2.2-2.2-2.2H34.9c-1.2,0-2.2,1-2.2,2.2C32.7,48.4,33.7,49.4,34.9,49.4z
	"/>
<path class="st0" d="M87.1,71.8c-1.2,0-2.2-1-2.2-2.2s-1-2.2-2.2-2.2s-2.2,1-2.2,2.2c0,2.8,1.8,5.3,4.4,6.1v0.5c0,1.2,1,2.2,2.2,2.2
	s2.2-1,2.2-2.2v-0.5c2.5-0.9,4.4-3.3,4.4-6.1c0-3.6-2.9-6.5-6.5-6.5c-1.2,0-2.2-1-2.2-2.2s1-2.2,2.2-2.2s2.2,1,2.2,2.2
	s1,2.2,2.2,2.2s2.2-1,2.2-2.2c0-2.8-1.8-5.3-4.4-6.1v-0.5c0-1.2-1-2.2-2.2-2.2s-2.2,1-2.2,2.2v0.5c-2.5,0.9-4.4,3.3-4.4,6.1
	c0,3.6,2.9,6.5,6.5,6.5c1.2,0,2.2,1,2.2,2.2S88.3,71.8,87.1,71.8z"/>
</svg>
