<?xml version="1.0" encoding="utf-8"?>
<!-- Generator: Adobe Illustrator 24.2.0, SVG Export Plug-In . SVG Version: 6.00 Build 0)  -->
<svg version="1.1" id="Layer_1" xmlns="http://www.w3.org/2000/svg" xmlns:xlink="http://www.w3.org/1999/xlink" x="0px" y="0px"
	 viewBox="0 0 32 32.3" style="enable-background:new 0 0 32 32.3;" xml:space="preserve">
<style type="text/css">
	.st0{fill:#FFFFFF;}
</style>
<g>
	<path class="st0" d="M16,31C7.7,31,1,24.3,1,16S7.7,1,16,1s15,6.7,15,15C31,24.3,24.3,31,16,31z M16,3C8.8,3,3,8.8,3,16
		s5.8,13,13,13s13-5.8,13-13C29,8.8,23.2,3,16,3z M14.2,21.7l10-10c0.4-0.4,0.4-1,0-1.4c-0.4-0.4-1-0.4-1.4,0l-9.3,9.3l-4.3-4.3
		c-0.4-0.4-1-0.4-1.4,0c-0.4,0.4-0.4,1,0,1.4c0,0,0,0,0,0l5,5C13.2,22.1,13.8,22.1,14.2,21.7C14.2,21.7,14.2,21.7,14.2,21.7z"/>
</g>
</svg>
