<!-- Generator: Adobe Illustrator 24.2.0, SVG Export Plug-In  -->
<svg version="1.1" xmlns="http://www.w3.org/2000/svg" xmlns:xlink="http://www.w3.org/1999/xlink" x="0px" y="0px" width="49.67px"
	 height="49.67px" viewBox="0 0 49.67 49.67" style="overflow:visible;enable-background:new 0 0 49.67 49.67;"
	 xml:space="preserve">
<style type="text/css">
	.st0{fill:#333333;}
</style>
<defs>
</defs>
<path class="st0" d="M48.84,46.05L27.67,24.84L48.84,3.63c0.9-0.64,1.11-1.89,0.46-2.79s-1.89-1.11-2.79-0.46
	c-0.18,0.13-0.34,0.29-0.46,0.46L24.84,22.01L3.63,0.84C2.73,0.2,1.48,0.4,0.84,1.3c-0.5,0.7-0.5,1.63,0,2.33l21.17,21.21
	L0.84,46.05c-0.9,0.64-1.11,1.89-0.46,2.79c0.64,0.9,1.89,1.11,2.79,0.46c0.18-0.13,0.34-0.29,0.46-0.46l21.21-21.17l21.21,21.17
	c0.64,0.9,1.89,1.11,2.79,0.46s1.11-1.89,0.46-2.79C49.17,46.33,49.02,46.18,48.84,46.05z"/>
</svg>
