<!-- Generator: Adobe Illustrator 24.1.1, SVG Export Plug-In  -->
<svg version="1.1" xmlns="http://www.w3.org/2000/svg" xmlns:xlink="http://www.w3.org/1999/xlink" x="0px" y="0px" width="30px"
	 height="30px" viewBox="0 0 30 30" style="enable-background:new 0 0 30 30;" xml:space="preserve">
<style type="text/css">
	.st0{fill:#2F6699;}
</style>
<defs>
</defs>
<g>
	<path class="st0" d="M15,30C6.7,30,0,23.3,0,15S6.7,0,15,0s15,6.7,15,15C30,23.3,23.3,30,15,30z M15,2C7.8,2,2,7.8,2,15
		s5.8,13,13,13s13-5.8,13-13C28,7.8,22.2,2,15,2z M13.2,20.7l10-10c0.4-0.4,0.4-1,0-1.4c-0.4-0.4-1-0.4-1.4,0l-9.3,9.3l-4.3-4.3
		c-0.4-0.4-1-0.4-1.4,0c-0.4,0.4-0.4,1,0,1.4c0,0,0,0,0,0l5,5C12.2,21.1,12.8,21.1,13.2,20.7C13.2,20.7,13.2,20.7,13.2,20.7z"/>
</g>
</svg>
