<?xml version="1.0" encoding="utf-8"?>
<!-- Generator: Adobe Illustrator 24.3.0, SVG Export Plug-In . SVG Version: 6.00 Build 0)  -->
<svg version="1.1" id="Layer_1" xmlns="http://www.w3.org/2000/svg" xmlns:xlink="http://www.w3.org/1999/xlink" x="0px" y="0px"
	 viewBox="0 0 50 50" style="enable-background:new 0 0 50 50;" xml:space="preserve">
<style type="text/css">
	.st0{fill:#979696;}
	.st1{fill:#FFFFFF;}
</style>
<g>
	<circle class="st0" cx="25.3" cy="24.7" r="23"/>
</g>
<g>
	<path class="st1" d="M34.3,13.7h-2v-2c0-0.6-0.4-1-1-1h-12c-0.6,0-1,0.4-1,1v2h-2c-1.7,0-3,1.3-3,3v2c0,0.6,0.4,1,1,1h1l0.9,16.2
		c0.1,1.6,1.4,2.8,3,2.8h12.2c1.6,0,2.9-1.2,3-2.8l0.9-16.2h1c0.6,0,1-0.4,1-1v-2C37.3,15.1,35.9,13.7,34.3,13.7z M20.3,12.7h10v1
		h-10V12.7z M32.4,35.8c0,0.5-0.5,1-1,1H19.2c-0.5,0-1-0.4-1-1l-0.9-16h16L32.4,35.8z M35.3,17.7h-20v-1c0-0.6,0.4-1,1-1h18
		c0.6,0,1,0.4,1,1V17.7z M20.3,34.7v-13c0-0.6,0.4-1,1-1c0.6,0,1,0.4,1,1v13c0,0.6-0.4,1-1,1C20.7,35.7,20.3,35.3,20.3,34.7z
		 M28.3,34.7v-13c0-0.6,0.4-1,1-1s1,0.4,1,1v13c0,0.6-0.4,1-1,1S28.3,35.3,28.3,34.7z M24.3,34.7v-13c0-0.6,0.4-1,1-1
		c0.6,0,1,0.4,1,1v13c0,0.6-0.4,1-1,1C24.7,35.7,24.3,35.3,24.3,34.7z"/>
</g>
</svg>
