<?xml version="1.0" encoding="utf-8"?>
<svg version="1.1" xmlns:xlink="http://www.w3.org/1999/xlink" width="15px" height="16px" xmlns="http://www.w3.org/2000/svg">
  <g transform="matrix(1 0 0 1 -101 -3164 )">
    <path d="M 5.35866477272727 13.2395833333333  C 5.42258522727273 13.1770833333333  5.45454545454546 13.0972222222222  5.45454545454546 13  L 5.45454545454546 5.66666666666667  C 5.45454545454546 5.56944444444444  5.42258522727273 5.48958333333333  5.35866477272727 5.42708333333333  C 5.29474431818182 5.36458333333333  5.21306818181818 5.33333333333333  5.11363636363636 5.33333333333333  L 4.43181818181818 5.33333333333333  C 4.33238636363636 5.33333333333333  4.25071022727273 5.36458333333333  4.18678977272727 5.42708333333333  C 4.12286931818182 5.48958333333333  4.09090909090909 5.56944444444444  4.09090909090909 5.66666666666667  L 4.09090909090909 13  C 4.09090909090909 13.0972222222222  4.12286931818182 13.1770833333333  4.18678977272727 13.2395833333333  C 4.25071022727273 13.3020833333333  4.33238636363636 13.3333333333333  4.43181818181818 13.3333333333333  L 5.11363636363636 13.3333333333333  C 5.21306818181818 13.3333333333333  5.29474431818182 13.3020833333333  5.35866477272727 13.2395833333333  Z M 8.0859375 13.2395833333333  C 8.14985795454546 13.1770833333333  8.18181818181818 13.0972222222222  8.18181818181818 13  L 8.18181818181818 5.66666666666667  C 8.18181818181818 5.56944444444444  8.14985795454546 5.48958333333333  8.0859375 5.42708333333333  C 8.02201704545455 5.36458333333333  7.94034090909091 5.33333333333333  7.84090909090909 5.33333333333333  L 7.15909090909091 5.33333333333333  C 7.05965909090909 5.33333333333333  6.97798295454546 5.36458333333333  6.9140625 5.42708333333333  C 6.85014204545455 5.48958333333333  6.81818181818182 5.56944444444444  6.81818181818182 5.66666666666667  L 6.81818181818182 13  C 6.81818181818182 13.0972222222222  6.85014204545455 13.1770833333333  6.9140625 13.2395833333333  C 6.97798295454546 13.3020833333333  7.05965909090909 13.3333333333333  7.15909090909091 13.3333333333333  L 7.84090909090909 13.3333333333333  C 7.94034090909091 13.3333333333333  8.02201704545455 13.3020833333333  8.0859375 13.2395833333333  Z M 10.8132102272727 13.2395833333333  C 10.8771306818182 13.1770833333333  10.9090909090909 13.0972222222222  10.9090909090909 13  L 10.9090909090909 5.66666666666667  C 10.9090909090909 5.56944444444444  10.8771306818182 5.48958333333333  10.8132102272727 5.42708333333333  C 10.7492897727273 5.36458333333333  10.6676136363636 5.33333333333333  10.5681818181818 5.33333333333333  L 9.88636363636364 5.33333333333333  C 9.78693181818182 5.33333333333333  9.70525568181818 5.36458333333333  9.64133522727273 5.42708333333333  C 9.57741477272727 5.48958333333333  9.54545454545455 5.56944444444444  9.54545454545455 5.66666666666667  L 9.54545454545455 13  C 9.54545454545455 13.0972222222222  9.57741477272727 13.1770833333333  9.64133522727273 13.2395833333333  C 9.70525568181818 13.3020833333333  9.78693181818182 13.3333333333333  9.88636363636364 13.3333333333333  L 10.5681818181818 13.3333333333333  C 10.6676136363636 13.3333333333333  10.7492897727273 13.3020833333333  10.8132102272727 13.2395833333333  Z M 5.63565340909091 1.44791666666667  L 5.11363636363636 2.66666666666667  L 9.88636363636364 2.66666666666667  L 9.375 1.44791666666667  C 9.32528409090909 1.38541666666667  9.26491477272727 1.34722222222222  9.19389204545455 1.33333333333333  L 5.81676136363636 1.33333333333333  C 5.74573863636364 1.34722222222222  5.68536931818182 1.38541666666667  5.63565340909091 1.44791666666667  Z M 14.9041193181818 2.76041666666667  C 14.9680397727273 2.82291666666667  15 2.90277777777778  15 3  L 15 3.66666666666667  C 15 3.76388888888889  14.9680397727273 3.84375  14.9041193181818 3.90625  C 14.8401988636364 3.96875  14.7585227272727 4  14.6590909090909 4  L 13.6363636363636 4  L 13.6363636363636 13.875  C 13.6363636363636 14.4513888888889  13.4694602272727 14.9496527777778  13.1356534090909 15.3697916666667  C 12.8018465909091 15.7899305555556  12.4005681818182 16  11.9318181818182 16  L 3.06818181818182 16  C 2.59943181818182 16  2.19815340909091 15.796875  1.86434659090909 15.390625  C 1.53053977272727 14.984375  1.36363636363636 14.4930555555556  1.36363636363636 13.9166666666667  L 1.36363636363636 4  L 0.340909090909091 4  C 0.241477272727273 4  0.159801136363636 3.96875  0.0958806818181818 3.90625  C 0.0319602272727273 3.84375  0 3.76388888888889  0 3.66666666666667  L 0 3  C 0 2.90277777777778  0.0319602272727273 2.82291666666667  0.0958806818181818 2.76041666666667  C 0.159801136363636 2.69791666666667  0.241477272727273 2.66666666666667  0.340909090909091 2.66666666666667  L 3.6328125 2.66666666666667  L 4.37855113636364 0.927083333333334  C 4.48508522727273 0.670138888888888  4.67684659090909 0.451388888888888  4.95383522727273 0.270833333333334  C 5.23082386363636 0.0902777777777768  5.51136363636364 0  5.79545454545455 0  L 9.20454545454546 0  C 9.48863636363637 0  9.76917613636364 0.0902777777777768  10.0461647727273 0.270833333333334  C 10.3231534090909 0.451388888888888  10.5149147727273 0.670138888888888  10.6214488636364 0.927083333333334  L 11.3671875 2.66666666666667  L 14.6590909090909 2.66666666666667  C 14.7585227272727 2.66666666666667  14.8401988636364 2.69791666666667  14.9041193181818 2.76041666666667  Z " fill-rule="nonzero" fill="#2f6699" stroke="none" fill-opacity="0.996078431372549" transform="matrix(1 0 0 1 101 3164 )" />
  </g>
</svg>