<?xml version="1.0" encoding="utf-8"?>
<svg version="1.1" xmlns:xlink="http://www.w3.org/1999/xlink" width="20px" height="12px" xmlns="http://www.w3.org/2000/svg">
  <g transform="matrix(1 0 0 1 -136 -26 )">
    <path d="M 19.7995991983968 1.23711340206186  C 19.9331997327989 1.37457044673539  20 1.53264604810996  20 1.71134020618557  C 20 1.89003436426117  19.9331997327989 2.04810996563574  19.7995991983968 2.18556701030928  L 10.4609218436874 11.7938144329897  C 10.3273213092852 11.9312714776632  10.1736806947228 12  10 12  C 9.82631930527722 12  9.67267869071476 11.9312714776632  9.53907815631263 11.7938144329897  L 0.200400801603206 2.18556701030928  C 0.066800267201069 2.04810996563574  0 1.89003436426117  0 1.71134020618557  C 0 1.53264604810996  0.066800267201069 1.37457044673539  0.200400801603206 1.23711340206186  L 1.20240480961924 0.20618556701031  C 1.33600534402138 0.0687285223367682  1.48964595858383 0  1.66332665330661 0  C 1.83700734802939 0  1.99064796259185 0.0687285223367682  2.12424849699399 0.20618556701031  L 10 8.30927835051546  L 17.875751503006 0.20618556701031  C 18.0093520374081 0.0687285223367682  18.1629926519706 0  18.3366733466934 0  C 18.5103540414162 0  18.6639946559786 0.0687285223367682  18.7975951903808 0.20618556701031  L 19.7995991983968 1.23711340206186  Z " fill-rule="nonzero" fill="#ffffff" stroke="none" transform="matrix(1 0 0 1 136 26 )" />
  </g>
</svg>