<?xml version="1.0" encoding="utf-8"?>
<svg version="1.1" xmlns:xlink="http://www.w3.org/1999/xlink" width="18px" height="10px" xmlns="http://www.w3.org/2000/svg">
  <g transform="matrix(1 0 0 1 -1049 -531 )">
    <path d="M 17.8196392785571 1.03092783505155  C 17.939879759519 1.14547537227949  18 1.27720504009164  18 1.42611683848797  C 18 1.57502863688431  17.939879759519 1.70675830469645  17.8196392785571 1.8213058419244  L 9.41482965931864 9.82817869415807  C 9.29458917835671 9.94272623138602  9.1563126252505 10  9 10  C 8.8436873747495 10  8.70541082164329 9.94272623138602  8.58517034068136 9.82817869415807  L 0.180360721442886 1.8213058419244  C 0.0601202404809621 1.70675830469645  0 1.57502863688431  0 1.42611683848797  C 0 1.27720504009164  0.0601202404809621 1.14547537227949  0.180360721442886 1.03092783505155  L 1.08216432865731 0.171821305841925  C 1.20240480961924 0.0572737686139735  1.34068136272545 0  1.49699398797595 0  C 1.65330661322645 0  1.79158316633267 0.0572737686139735  1.91182364729459 0.171821305841925  L 9 6.92439862542955  L 16.0881763527054 0.171821305841925  C 16.2084168336673 0.0572737686139735  16.3466933867735 0  16.503006012024 0  C 16.6593186372746 0  16.7975951903808 0.0572737686139735  16.9178356713427 0.171821305841925  L 17.8196392785571 1.03092783505155  Z " fill-rule="nonzero" fill="#169bd5" stroke="none" transform="matrix(1 0 0 1 1049 531 )" />
  </g>
</svg>