<?xml version="1.0" encoding="utf-8"?>
<!-- Generator: Adobe Illustrator 25.2.0, SVG Export Plug-In . SVG Version: 6.00 Build 0)  -->
<svg version="1.1" id="Layer_1" xmlns="http://www.w3.org/2000/svg" xmlns:xlink="http://www.w3.org/1999/xlink" x="0px" y="0px"
	 viewBox="0 0 100 100" style="enable-background:new 0 0 100 100;" xml:space="preserve">
<style type="text/css">
	.st0{fill:#223F75;}
</style>
<path class="st0" d="M45.3,5c-3.9,0-7.2,3.3-7.2,7.2v1.1h-3.3c-3.3,0-6,2.7-6.1,6h-2.5c-3.6,0-6.5,3-6.5,6.6V86
	c0,3.6,2.9,6.6,6.5,6.6h35.4c1.7,1,3.7,1.7,5.9,1.7c6.4,0,11.6-5.3,11.6-11.9c0-3.6-1.6-6.8-4.1-9V49.6l13.1-13.2
	c0.5-0.6,0.5-1.6,0-2.1l-5.4-5.5c-0.6-0.6-1.5-0.7-2.2,0l-5.5,5.6v-8.4c0-3.6-2.9-6.6-6.5-6.6h-2.1c-0.1-3.3-2.7-6-6-6h-3.3v-1.1
	C57.2,8.3,54,5,50,5L45.3,5z M45.3,8.1H50c2.3,0,4.1,1.8,4.1,4.2v2.6c0,0.8,0.7,1.5,1.5,1.5h4.8c1.7,0,3,1.3,3,3.1v2.6
	c0,1.8-1.3,3.1-3,3.1H34.8c-1.7,0-3-1.4-3-3.1v-2.6c0-1.7,1.3-3.1,3-3.1h4.8c0.8,0,1.5-0.7,1.5-1.5v-2.6C41.2,9.9,43,8.1,45.3,8.1
	L45.3,8.1z M47.7,13.7c-0.8,0-1.4,0.6-1.4,1.4c0,0.8,0.6,1.4,1.4,1.4c0.8,0,1.4-0.6,1.4-1.4C49,14.3,48.4,13.7,47.7,13.7z
	 M26.3,22.4h2.5c0.1,3.2,2.8,5.9,6.1,5.9h25.7c3.2,0,5.9-2.6,6-5.9h2.1c1.9,0,3.5,1.5,3.5,3.5v11.5L57.8,51.8
	c-0.1,0.1-0.2,0.3-0.3,0.5l-4.1,9.6c-0.5,1.1,0.9,2.5,2,2l9.5-4.1c0.2-0.1,0.4-0.2,0.5-0.3l6.8-6.8v18.9c-1.4-0.6-2.9-0.9-4.5-0.9
	c-6.4,0-11.6,5.3-11.6,11.9c0,2.7,0.9,5.1,2.4,7.1H26.3c-1.9,0-3.5-1.6-3.5-3.6V25.9C22.8,23.9,24.4,22.4,26.3,22.4L26.3,22.4z
	 M81.8,31.9l3.3,3.4L63.4,57.1l-5.7,2.4l2.5-5.9L81.8,31.9z M30.9,38.3c-0.8,0-1.5,0.8-1.4,1.6c0,0.8,0.8,1.5,1.6,1.4h32.9
	c0.8,0,1.5-0.7,1.5-1.5s-0.7-1.5-1.5-1.5H31C31,38.3,30.9,38.3,30.9,38.3L30.9,38.3z M30.7,46.4c-0.8,0.1-1.4,0.9-1.4,1.7
	c0.1,0.8,0.9,1.4,1.7,1.4h23.2c0.8,0,1.5-0.7,1.5-1.5s-0.7-1.5-1.5-1.5H31C30.9,46.4,30.8,46.4,30.7,46.4L30.7,46.4z M30.9,55.4
	c-0.8,0-1.5,0.8-1.4,1.6s0.8,1.5,1.6,1.4h17.4c0.8,0,1.5-0.7,1.5-1.5s-0.7-1.5-1.5-1.5H31C31,55.4,30.9,55.4,30.9,55.4L30.9,55.4z
	 M67.6,73.6c4.8,0,8.6,3.9,8.6,8.8c0,4.9-3.8,8.7-8.6,8.7c-4.8,0-8.6-3.9-8.6-8.7C59,77.6,62.8,73.6,67.6,73.6z M67.5,74.8
	c-0.7,0.1-1.4,0.8-1.3,1.6v4.6c0,0-4.6,0-4.6,0c-0.8,0-1.5,0.8-1.4,1.6c0,0.8,0.8,1.5,1.6,1.4h4.5v4.6c0,0.8,0.7,1.5,1.5,1.5
	c0.8,0,1.5-0.7,1.5-1.5v-4.6h4.4c0.8,0,1.5-0.7,1.5-1.5c0-0.8-0.7-1.5-1.5-1.5h-4.4v-4.6C69.2,75.5,68.3,74.7,67.5,74.8L67.5,74.8z"
	/>
</svg>
