<?xml version="1.0" encoding="UTF-8"?>
<svg width="1200pt" height="1200pt" version="1.1" viewBox="0 0 1200 1200" xmlns="http://www.w3.org/2000/svg">
 <path d="m533.17 267.49c-29.398 0-53.371 24.238-53.371 53.844v8.2656h-24.797c-24.391 0-44.457 19.938-45.105 44.398h-18.422c-26.703 0-48.414 22.023-48.414 48.887v448c0 26.863 21.617 49.359 48.414 49.359h264.03c12.926 7.8242 27.852 12.516 43.926 12.516 47.734 0 86.672-39.664 86.672-88.324 0-26.762-11.688-50.848-30.23-67.07v-178.07l97.77-98.48c4.0742-4.1797 4.0742-11.641 0-15.824l-40.383-41.094c-4.168-4.2422-10.961-5.125-16.059 0l-41.328 41.562v-62.582c0-26.949-21.945-48.887-48.648-48.887h-15.824c-0.64453-24.371-20.48-44.398-44.871-44.398h-24.797v-8.2656c0-29.598-23.973-53.836-53.371-53.836zm0 22.672h35.188c16.945 0 30.699 13.57 30.699 31.172v19.602c0 5.9336 5.4023 11.336 11.336 11.336h36.133c12.531 0 22.199 9.8047 22.199 22.906v19.363c0 13.102-9.7695 23.145-22.199 23.145h-191.53c-12.43 0-22.434-10.141-22.434-23.145v-19.363c0-13.004 9.9062-22.906 22.434-22.906h36.133c5.9336 0 11.336-5.4023 11.336-11.336v-19.602c0-17.602 13.754-31.172 30.699-31.172zm17.477 41.562c-5.6172 0-10.156 4.668-10.156 10.391 0 5.7227 4.5352 10.391 10.156 10.391 5.6172 0 10.156-4.668 10.156-10.391 0-5.7227-4.5352-10.391-10.156-10.391zm-159.17 64.945h18.422c1.0898 24.074 20.906 43.691 45.105 43.691h191.53c24.199 0 43.793-19.699 44.871-43.691h15.824c14.375 0 25.977 11.32 25.977 26.215v85.488l-107.22 107.93c-1 1.0195-1.8086 2.2266-2.3633 3.543l-30.23 71.32c-3.5273 8.2656 6.6133 18.406 14.879 14.879l70.613-30.23c1.418-0.59766 2.7109-1.4883 3.7773-2.5977l50.539-51.012v140.75c-10.363-4.4805-21.836-6.8477-33.77-6.8477-47.734 0-86.672 39.668-86.672 88.324 0 19.984 6.6641 38.309 17.711 53.137h-239c-14.281 0-25.738-11.703-25.738-26.684v-448c0-14.98 11.367-26.215 25.742-26.215zm413.75 71.082 24.324 25.035-161.54 162.95-42.508 18.188 18.418-43.691zm-379.51 47.707c-5.9336 0.30859-11.055 5.9922-10.746 11.926 0.30859 5.9336 5.9922 11.055 11.926 10.746h245.14c5.9883 0.085938 11.496-5.3477 11.496-11.336s-5.5078-11.422-11.496-11.336h-245.14c-0.39453-0.019531-0.78906-0.019531-1.1797 0zm-1.1797 59.984c-5.9375 0.61719-10.777 6.582-10.156 12.516 0.61719 5.9375 6.582 10.773 12.52 10.156h173.1c5.9883 0.085938 11.496-5.3477 11.496-11.336 0-5.9883-5.5078-11.422-11.496-11.336h-173.11c-0.78516-0.082031-1.5781-0.082031-2.3633 0zm1.1797 67.07c-5.9336 0.30859-11.055 5.9922-10.746 11.926s5.9922 11.055 11.926 10.746h129.65c5.9883 0.085937 11.496-5.3477 11.496-11.336 0-5.9883-5.5078-11.422-11.496-11.336h-129.65c-0.39453-0.019531-0.78906-0.019531-1.1797 0zm273.71 136.27c35.598 0 64.234 29.367 64.234 65.652 0 36.289-28.637 65.18-64.234 65.18-35.598 0-64.234-28.895-64.234-65.18 0-36.289 28.637-65.652 64.234-65.652zm-1.1797 8.5c-5.5273 0.69531-10.078 6.0039-9.918 11.57v34.008s-34.086-0.019531-34.48 0c-5.9336 0.30859-11.055 5.9922-10.746 11.926 0.30859 5.9336 5.9922 11.055 11.926 10.746h33.297v34.008c-0.085938 5.9883 5.3477 11.496 11.336 11.496 5.9883 0 11.422-5.5078 11.336-11.496v-34.008h33.062c5.9883 0.085937 11.496-5.3477 11.496-11.336 0-5.9883-5.5078-11.422-11.496-11.336h-33.062v-34.008c0.1875-6.5156-6.2852-12.387-12.75-11.57z" fill="#223f75"/>
</svg>
