<!-- Generator: Adobe Illustrator 25.1.0, SVG Export Plug-In  -->
<svg version="1.1" xmlns="http://www.w3.org/2000/svg" xmlns:xlink="http://www.w3.org/1999/xlink" x="0px" y="0px" width="63.8px"
	 height="63.8px" viewBox="0 0 63.8 63.8" style="overflow:visible;enable-background:new 0 0 63.8 63.8;" xml:space="preserve">
<style type="text/css">
	.st0{fill:#169BD5;}
</style>
<defs>
</defs>
<g>
	<g>
		<g>
			<path class="st0" d="M31.9,63.8c-1.2,0-2.3-0.1-3.5-0.2c-3.5-0.4-6.7-1.3-9.8-2.7c-5.7-2.6-10.7-7-14-12.5
				c-3.4-5.6-5-12.3-4.5-18.8c0.3-3.4,1-6.6,2.2-9.5c1.3-3.1,3-6,5.1-8.6C11.4,6.6,17,3,23.2,1.2C26,0.4,28.9,0,31.9,0
				c3.8,0,7.4,0.6,10.8,1.9C48.9,4.2,54.2,8.2,58,13.6c3.7,5.2,5.8,11.7,5.8,18.3c0,1.6-0.1,3.3-0.4,5.1c-0.9,6.2-3.9,12.2-8.4,17
				c-4.4,4.7-10.3,7.9-16.5,9.2C36.2,63.6,34,63.8,31.9,63.8z M28.2,58.3c1.2,0.1,2.4,0.2,3.7,0.2c1.2,0,2.5-0.1,3.7-0.2
				c2.3-0.3,4.5-0.9,6.6-1.8c1.4-0.6,2.8-1.4,4.1-2.2c0.6-0.4,1.2-0.8,1.7-1.2l0.2-0.1l0,0l0,0l0.2-0.1c0.1-0.1,0.2-0.1,0.2-0.2
				c0.3-0.2,0.5-0.4,0.8-0.7c1.1-1,2.1-2,3-3.1c0.2-0.2,0.4-0.5,0.6-0.7l0.4-0.6c0.4-0.5,0.8-1.1,1.2-1.8c0.7-1.2,1.4-2.4,2-3.8
				c0.8-2.1,1.4-4.3,1.8-6.5c0.2-1.2,0.2-2.5,0.2-3.7c0-1.2-0.1-2.5-0.2-3.7c-0.3-2.2-0.9-4.5-1.8-6.6c-0.6-1.4-1.4-2.8-2.2-4.1
				c-0.4-0.6-0.8-1.2-1.2-1.7l-0.2-0.3c-0.1-0.1-0.1-0.2-0.2-0.2c-0.2-0.3-0.4-0.5-0.7-0.8c-1-1.1-2-2.1-3.1-3
				c-0.2-0.2-0.5-0.4-0.7-0.6l-0.5-0.4c-0.5-0.4-1.1-0.8-1.8-1.2c-1.2-0.7-2.4-1.4-3.8-2c-2.1-0.8-4.3-1.4-6.5-1.8
				c-1.2-0.1-2.4-0.2-3.6-0.2c-1.2,0-2.5,0.1-3.7,0.2c-2.3,0.3-4.5,0.9-6.6,1.8c-1.4,0.6-2.8,1.4-4.1,2.2c-0.6,0.4-1.2,0.8-1.7,1.2
				l-0.3,0.2c-0.1,0.1-0.1,0.1-0.2,0.2c-0.3,0.2-0.6,0.5-0.8,0.7c-1.1,0.9-2.1,2-3,3.1c-0.2,0.2-0.4,0.5-0.6,0.7l-0.4,0.6
				c-0.4,0.5-0.8,1.1-1.2,1.8c-0.7,1.2-1.4,2.4-2,3.8c-0.8,2.1-1.4,4.3-1.8,6.6c-0.3,2.4-0.3,4.9,0,7.3c0.3,2.3,0.9,4.5,1.8,6.6
				c0.6,1.4,1.4,2.8,2.2,4.1c0.4,0.6,0.8,1.2,1.2,1.7l0.1,0.2l0,0c0,0,0,0,0,0l0,0l0.1,0.1c0.1,0.1,0.1,0.2,0.2,0.2
				c0.2,0.3,0.4,0.5,0.7,0.8c0.9,1.1,2,2.1,3.1,3c0.2,0.2,0.5,0.4,0.7,0.6l0.2,0.1l0.4,0.3c0.5,0.4,1.1,0.8,1.8,1.2
				c1.2,0.7,2.4,1.4,3.8,2C23.8,57.3,26,57.9,28.2,58.3z"/>
			<path class="st0" d="M58.9,31.9c0,1.3-0.1,2.6-0.3,3.9c0-0.2,0.1-0.4,0.1-0.6c-0.4,2.6-1,5.1-2,7.4c0.1-0.2,0.1-0.4,0.2-0.5
				c-0.6,1.4-1.3,2.7-2,3.9c-0.4,0.6-0.8,1.2-1.2,1.8c-0.1,0.1-0.2,0.3-0.3,0.4c-0.1,0.1-0.1,0.2-0.2,0.2c-0.2,0.3,0.4-0.5,0.1-0.1
				c-0.2,0.3-0.4,0.6-0.7,0.8c-0.9,1.1-2,2.1-3,3.1c-0.3,0.2-0.5,0.4-0.8,0.7c-0.1,0.1-0.3,0.2-0.4,0.3c-0.1,0.1-0.4,0.3,0.1-0.1
				c-0.1,0.1-0.2,0.2-0.3,0.2c-0.6,0.4-1.2,0.8-1.8,1.2c-1.4,0.9-2.8,1.6-4.4,2.3c0.2-0.1,0.4-0.1,0.5-0.2c-2.4,1-4.9,1.7-7.4,2
				c0.2,0,0.4-0.1,0.6-0.1c-2.6,0.3-5.3,0.3-7.9,0c0.2,0,0.4,0.1,0.6,0.1c-2.6-0.4-5.1-1-7.4-2c0.2,0.1,0.4,0.1,0.5,0.2
				c-1.4-0.6-2.7-1.3-3.9-2c-0.6-0.4-1.2-0.8-1.8-1.2c-0.1-0.1-0.3-0.2-0.4-0.3c-0.1-0.1-0.2-0.1-0.2-0.2c-0.3-0.2,0.5,0.4,0.1,0.1
				c-0.3-0.2-0.6-0.4-0.8-0.7c-1.1-0.9-2.1-2-3.1-3c-0.2-0.3-0.4-0.5-0.7-0.8c-0.1-0.1-0.2-0.3-0.3-0.4c-0.1-0.1-0.3-0.4,0.1,0.1
				c-0.1-0.1-0.2-0.2-0.2-0.3c-0.4-0.6-0.8-1.2-1.2-1.8c-0.9-1.4-1.6-2.8-2.3-4.4C7,42.3,7,42.5,7.1,42.7c-1-2.4-1.7-4.9-2-7.4
				c0,0.2,0.1,0.4,0.1,0.6c-0.3-2.6-0.3-5.3,0-7.9c0,0.2-0.1,0.4-0.1,0.6c0.4-2.6,1-5.1,2-7.4C7,21.3,7,21.5,6.9,21.6
				c0.6-1.4,1.3-2.7,2-3.9c0.4-0.6,0.8-1.2,1.2-1.8c0.1-0.1,0.2-0.3,0.3-0.4c0.1-0.1,0.1-0.2,0.2-0.2c0.2-0.3-0.4,0.5-0.1,0.1
				c0.2-0.3,0.4-0.6,0.7-0.8c0.9-1.1,2-2.1,3-3.1c0.3-0.2,0.5-0.4,0.8-0.7c0.1-0.1,0.3-0.2,0.4-0.3c0.1-0.1,0.4-0.3-0.1,0.1
				c0.1-0.1,0.2-0.2,0.3-0.2c0.6-0.4,1.2-0.8,1.8-1.2c1.4-0.9,2.8-1.6,4.4-2.3c-0.2,0.1-0.4,0.1-0.5,0.2c2.4-1,4.9-1.7,7.4-2
				c-0.2,0-0.4,0.1-0.6,0.1c2.6-0.3,5.3-0.3,7.9,0c-0.2,0-0.4-0.1-0.6-0.1c2.6,0.4,5.1,1,7.4,2c-0.2-0.1-0.4-0.1-0.5-0.2
				c1.4,0.6,2.7,1.3,3.9,2c0.6,0.4,1.2,0.8,1.8,1.2c0.1,0.1,0.3,0.2,0.4,0.3c0.1,0.1,0.2,0.1,0.2,0.2c0.3,0.2-0.5-0.4-0.1-0.1
				c0.3,0.2,0.6,0.4,0.8,0.7c1.1,0.9,2.1,2,3.1,3c0.2,0.3,0.4,0.5,0.7,0.8c0.1,0.1,0.2,0.3,0.3,0.4c0.1,0.1,0.3,0.4-0.1-0.1
				c0.1,0.1,0.2,0.2,0.2,0.3c0.4,0.6,0.8,1.2,1.2,1.8c0.9,1.4,1.6,2.8,2.3,4.4c-0.1-0.2-0.1-0.4-0.2-0.5c1,2.4,1.7,4.9,2,7.4
				c0-0.2-0.1-0.4-0.1-0.6C58.8,29.3,58.9,30.6,58.9,31.9c0,1.2,1,2.3,2.2,2.2s2.2-1,2.2-2.2c0-6.4-2-12.9-5.7-18.1
				c-3.8-5.3-9-9.3-15.1-11.5c-6.1-2.3-13-2.5-19.3-0.7c-6,1.7-11.6,5.3-15.6,10.1c-2.1,2.6-3.8,5.4-5.1,8.5c-1.2,3-1.9,6.2-2.2,9.4
				C0,36.1,1.6,42.7,4.9,48.2c3.2,5.3,8.1,9.7,13.8,12.3c3.1,1.4,6.3,2.3,9.7,2.7c3.3,0.4,6.6,0.2,9.9-0.5c6.2-1.3,12-4.5,16.3-9.1
				C59,49.1,62,43.2,63,36.9c0.3-1.7,0.4-3.4,0.4-5c0-1.2-1-2.3-2.2-2.2C59.9,29.7,58.9,30.7,58.9,31.9z"/>
		</g>
	</g>
	<g>
		<g>
			<path class="st0" d="M31.8,47.5c-1.4,0-2.6-1.2-2.6-2.6c0-0.7,0-1.4,0-2.2l0-1V18.9c0-1.4,1.2-2.6,2.6-2.6c0,0,0,0,0,0
				c1.5,0,2.7,1.2,2.7,2.6c0,0.7,0,1.4,0,2.2l0,1v22.8C34.5,46.3,33.4,47.5,31.8,47.5L31.8,47.5z"/>
			<path class="st0" d="M34.1,44.9c0-0.9,0-1.7,0-2.6c0-2.1,0-4.1,0-6.2c0-2.5,0-5,0-7.5c0-2.2,0-4.3,0-6.5c0-1.1,0-2.1,0-3.2
				c0,0,0,0,0,0c0-1.2-1-2.3-2.2-2.2c-1.2,0.1-2.2,1-2.2,2.2c0,0.9,0,1.7,0,2.6c0,2.1,0,4.1,0,6.2c0,2.5,0,5,0,7.5
				c0,2.2,0,4.3,0,6.5c0,1.1,0,2.1,0,3.2c0,0,0,0,0,0c0,1.2,1,2.3,2.2,2.2C33.1,47.1,34.1,46.1,34.1,44.9L34.1,44.9z"/>
		</g>
	</g>
	<g>
		<g>
			<path class="st0" d="M41.7,34.5H18.9c-1.4,0-2.6-1.2-2.6-2.6c0-0.7,0.2-1.3,0.7-1.8c0.5-0.5,1.2-0.8,1.9-0.8c0.4,0,0.7,0,1.1,0
				l2.1,0h22.8c1.4,0,2.6,1.2,2.6,2.6c0,0.7-0.2,1.3-0.7,1.8c-0.5,0.5-1.2,0.8-1.9,0.8c-0.4,0-0.7,0-1.1,0L41.7,34.5z"/>
			<path class="st0" d="M44.9,29.7c-0.9,0-1.7,0-2.6,0c-2.1,0-4.1,0-6.2,0c-2.5,0-5,0-7.5,0c-2.2,0-4.3,0-6.5,0c-1.1,0-2.1,0-3.2,0
				c0,0,0,0,0,0c-1.2,0-2.3,1-2.2,2.2c0.1,1.2,1,2.2,2.2,2.2c0.9,0,1.7,0,2.6,0c2.1,0,4.1,0,6.2,0c2.5,0,5,0,7.5,0
				c2.2,0,4.3,0,6.5,0c1.1,0,2.1,0,3.2,0c0,0,0,0,0,0c1.2,0,2.3-1,2.2-2.2C47.1,30.7,46.1,29.7,44.9,29.7L44.9,29.7z"/>
		</g>
	</g>
</g>
</svg>
