<svg height='100px' width='100px'  fill="#333333" xmlns:dc="http://purl.org/dc/elements/1.1/" xmlns:cc="http://creativecommons.org/ns#" xmlns:rdf="http://www.w3.org/1999/02/22-rdf-syntax-ns#" xmlns:svg="http://www.w3.org/2000/svg" xmlns="http://www.w3.org/2000/svg" xmlns:sodipodi="http://sodipodi.sourceforge.net/DTD/sodipodi-0.dtd" xmlns:inkscape="http://www.inkscape.org/namespaces/inkscape" version="1.1" x="0px" y="0px" viewBox="0 0 100 100"><g transform="translate(0,-952.36218)"><path style="text-indent:0;text-transform:none;direction:ltr;block-progression:tb;baseline-shift:baseline;color:#000000;enable-background:accumulate;" d="m 68.5,960.35788 c -11.335663,0 -20.658524,8.80648 -21.4375,19.93851 l -12.46875,-3.8752 c -0.252924,-0.0719 -0.52011,-0.0933 -0.78125,-0.0625 -0.137082,0.007 -22.40625,6.87536 -22.40625,6.87536 -0.816943,0.25397 -1.4179944,1.08213 -1.40625,1.9376 l 0,57.19045 c 0.0024,1.2469 1.403031,2.2763 2.59375,1.9063 L 34,1037.643 l 21.40625,6.6254 c 0.383775,0.1193 0.803725,0.1193 1.1875,0 l 22,-6.8129 c 0.806919,-0.2509 1.40466,-1.0612 1.40625,-1.9063 l 0,-33.1892 c 0.872394,-1.0437 1.742452,-2.1075 2.5625,-3.18763 4.037649,-5.31822 7.329938,-11.09341 7.4375,-17.31339 3.25e-4,-0.0208 3.25e-4,-0.0417 0,-0.0625 0,-11.839 -9.656859,-21.43859 -21.5,-21.4386 z m 0,4.0002 c 9.674174,0 17.482714,7.75332 17.5,17.40714 -1.74e-4,0.01 1.97e-4,0.0213 0,0.0312 -0.094,4.79612 -2.818431,9.92443 -6.625,14.93826 -3.347044,4.40842 -7.359004,8.65442 -10.875,12.62562 -3.51677,-3.9748 -7.530473,-8.1805 -10.875,-12.59437 -3.798928,-5.01356 -6.531084,-10.17141 -6.625,-14.96946 0,-0.0107 -1.9e-5,-0.0207 0,-0.0312 0.01722,-9.65764 7.825848,-17.40714 17.5,-17.40714 z m 0,7.00036 c -5.775308,0 -10.5,4.72494 -10.5,10.50054 0,5.77559 4.724693,10.50054 10.5,10.50054 5.775293,0 10.5,-4.72495 10.5,-10.50054 0,-5.7756 -4.724707,-10.50054 -10.5,-10.50054 z m 0,4.0002 c 3.613527,0 6.5,2.88661 6.5,6.50034 0,3.61372 -2.886473,6.50033 -6.5,6.50033 -3.613551,0 -6.5,-2.88661 -6.5,-6.50033 0,-3.61373 2.886448,-6.50034 6.5,-6.50034 z m -36.5,5.71904 0,52.97142 -18,5.5629 0,-52.97153 z m 4,0 11.25,3.46893 c 0.802587,4.97084 3.50918,9.63056 6.75,14.00072 0.005,0.007 -0.005,0.0245 0,0.0312 l 0,41.03347 -18,-5.5629 0,-52.97147 z m 22,22.46992 c 3.11564,3.6401 6.351603,7.0382 8.96875,10.0942 0.748203,0.8688 2.283047,0.8688 3.03125,0 1.786405,-2.086 3.861492,-4.3164 6,-6.6878 l 0,27.0951 -18,5.5629 z" fill="#333333" fill-opacity="1" stroke="none" marker="none" visibility="visible" display="inline" overflow="visible"></path></g></svg>