<?xml version="1.0" encoding="utf-8"?>
<svg version="1.1" xmlns:xlink="http://www.w3.org/1999/xlink" width="14px" height="15px" xmlns="http://www.w3.org/2000/svg">
  <g transform="matrix(1 0 0 1 -884 -147 )">
    <path d="M 5.00142045454545 5.712890625  C 5.06107954545455 5.771484375  5.09090909090909 5.84635416666667  5.09090909090909 5.9375  L 5.09090909090909 11.5625  C 5.09090909090909 11.6536458333333  5.06107954545455 11.728515625  5.00142045454545 11.787109375  C 4.94176136363636 11.845703125  4.8655303030303 11.875  4.77272727272727 11.875  L 4.13636363636364 11.875  C 4.04356060606061 11.875  3.96732954545455 11.845703125  3.90767045454545 11.787109375  C 3.84801136363636 11.728515625  3.81818181818182 11.6536458333333  3.81818181818182 11.5625  L 3.81818181818182 5.9375  C 3.81818181818182 5.84635416666667  3.84801136363636 5.771484375  3.90767045454545 5.712890625  C 3.96732954545455 5.654296875  4.04356060606061 5.625  4.13636363636364 5.625  L 4.77272727272727 5.625  C 4.8655303030303 5.625  4.94176136363636 5.654296875  5.00142045454545 5.712890625  Z M 7.546875 5.712890625  C 7.60653409090909 5.771484375  7.63636363636364 5.84635416666667  7.63636363636364 5.9375  L 7.63636363636364 11.5625  C 7.63636363636364 11.6536458333333  7.60653409090909 11.728515625  7.546875 11.787109375  C 7.48721590909091 11.845703125  7.41098484848485 11.875  7.31818181818182 11.875  L 6.68181818181818 11.875  C 6.58901515151515 11.875  6.51278409090909 11.845703125  6.453125 11.787109375  C 6.39346590909091 11.728515625  6.36363636363636 11.6536458333333  6.36363636363636 11.5625  L 6.36363636363636 5.9375  C 6.36363636363636 5.84635416666667  6.39346590909091 5.771484375  6.453125 5.712890625  C 6.51278409090909 5.654296875  6.58901515151515 5.625  6.68181818181818 5.625  L 7.31818181818182 5.625  C 7.41098484848485 5.625  7.48721590909091 5.654296875  7.546875 5.712890625  Z M 10.0923295454545 5.712890625  C 10.1519886363636 5.771484375  10.1818181818182 5.84635416666667  10.1818181818182 5.9375  L 10.1818181818182 11.5625  C 10.1818181818182 11.6536458333333  10.1519886363636 11.728515625  10.0923295454545 11.787109375  C 10.0326704545455 11.845703125  9.95643939393939 11.875  9.86363636363636 11.875  L 9.22727272727273 11.875  C 9.1344696969697 11.875  9.05823863636364 11.845703125  8.99857954545454 11.787109375  C 8.93892045454546 11.728515625  8.90909090909091 11.6536458333333  8.90909090909091 11.5625  L 8.90909090909091 5.9375  C 8.90909090909091 5.84635416666667  8.93892045454546 5.771484375  8.99857954545454 5.712890625  C 9.05823863636364 5.654296875  9.1344696969697 5.625  9.22727272727273 5.625  L 9.86363636363636 5.625  C 9.95643939393939 5.625  10.0326704545455 5.654296875  10.0923295454545 5.712890625  Z M 11.3849431818182 13.4033203125  C 11.4313446969697 13.2828776041667  11.4545454545455 13.1510416666667  11.4545454545455 13.0078125  L 11.4545454545455 3.75  L 2.54545454545455 3.75  L 2.54545454545455 13.0078125  C 2.54545454545455 13.1510416666667  2.5686553030303 13.2828776041667  2.61505681818182 13.4033203125  C 2.66145833333333 13.5237630208333  2.70951704545455 13.6116536458333  2.75923295454545 13.6669921875  C 2.80894886363636 13.7223307291667  2.84375 13.75  2.86363636363636 13.75  L 11.1363636363636 13.75  C 11.15625 13.75  11.1910511363636 13.7223307291667  11.2407670454545 13.6669921875  C 11.2904829545455 13.6116536458333  11.3385416666667 13.5237630208333  11.3849431818182 13.4033203125  Z M 5.25994318181818 1.357421875  L 4.77272727272727 2.5  L 9.22727272727273 2.5  L 8.75 1.357421875  C 8.70359848484849 1.298828125  8.64725378787879 1.26302083333333  8.58096590909091 1.25  L 5.42897727272727 1.25  C 5.36268939393939 1.26302083333333  5.3063446969697 1.298828125  5.25994318181818 1.357421875  Z M 13.9105113636364 2.587890625  C 13.9701704545455 2.646484375  14 2.72135416666667  14 2.8125  L 14 3.4375  C 14 3.52864583333333  13.9701704545455 3.603515625  13.9105113636364 3.662109375  C 13.8508522727273 3.720703125  13.7746212121212 3.75  13.6818181818182 3.75  L 12.7272727272727 3.75  L 12.7272727272727 13.0078125  C 12.7272727272727 13.5481770833333  12.5714962121212 14.0152994791667  12.2599431818182 14.4091796875  C 11.9483901515152 14.8030598958333  11.5738636363636 15  11.1363636363636 15  L 2.86363636363636 15  C 2.42613636363636 15  2.05160984848485 14.8095703125  1.74005681818182 14.4287109375  C 1.42850378787879 14.0478515625  1.27272727272727 13.5872395833333  1.27272727272727 13.046875  L 1.27272727272727 3.75  L 0.318181818181818 3.75  C 0.225378787878788 3.75  0.149147727272727 3.720703125  0.0894886363636364 3.662109375  C 0.0298295454545455 3.603515625  0 3.52864583333333  0 3.4375  L 0 2.8125  C 0 2.72135416666667  0.0298295454545455 2.646484375  0.0894886363636364 2.587890625  C 0.149147727272727 2.529296875  0.225378787878788 2.5  0.318181818181818 2.5  L 3.390625 2.5  L 4.08664772727273 0.869140625000001  C 4.18607954545455 0.628255208333332  4.36505681818182 0.423177083333332  4.62357954545455 0.253906250000001  C 4.88210227272727 0.0846354166666657  5.14393939393939 0  5.40909090909091 0  L 8.59090909090909 0  C 8.85606060606061 0  9.11789772727273 0.0846354166666657  9.37642045454546 0.253906250000001  C 9.63494318181818 0.423177083333332  9.81392045454546 0.628255208333332  9.91335227272727 0.869140625000001  L 10.609375 2.5  L 13.6818181818182 2.5  C 13.7746212121212 2.5  13.8508522727273 2.529296875  13.9105113636364 2.587890625  Z " fill-rule="nonzero" fill="#169bd5" stroke="none" transform="matrix(1 0 0 1 884 147 )" />
  </g>
</svg>