<?xml version="1.0" encoding="UTF-8"?>
<svg width="100pt" height="100pt" version="1.1" viewBox="0 0 100 100" xmlns="http://www.w3.org/2000/svg">
 <g fill="#223f75">
  <path d="m96.418 41.082-12.5-12.5c-0.29297-0.29297-0.69141-0.45703-1.1055-0.45703v-6.25c0-1.2422-0.49219-2.4375-1.3711-3.3164s-2.0742-1.3711-3.3164-1.3711h-36.828c-0.38281 0-0.75391-0.14062-1.0469-0.39062l-8.7656-7.7969c-0.85156-0.76953-1.9609-1.1914-3.1094-1.1875h-20.562c-1.2422 0-2.4375 0.49219-3.3164 1.3711s-1.3711 2.0742-1.3711 3.3164v51.562c0 1.2422 0.49219 2.4375 1.3711 3.3164s2.0742 1.3711 3.3164 1.3711h43.75v18.75c0.003906 2.5859 2.1016 4.6836 4.6875 4.6875h35.938c2.5859-0.003906 4.6836-2.1016 4.6875-4.6875v-45.312c0-0.41406-0.16406-0.8125-0.45703-1.1055zm-12.043-7.6211 7.1641 7.1641h-5.6016c-0.86328 0-1.5625-0.69922-1.5625-1.5625zm-78.125-20.961c0.003906-0.86328 0.69922-1.5586 1.5625-1.5625h20.562c0.38281 0 0.75391 0.14062 1.0469 0.39062l8.7656 7.7969c0.85156 0.76953 1.9609 1.1914 3.1094 1.1875h36.828c0.86328 0.003906 1.5586 0.69922 1.5625 1.5625v6.25h-3.125c0-1.2422-0.49219-2.4375-1.3711-3.3164s-2.0742-1.3711-3.3164-1.3711h-57.812c-1.2422 0-2.4375 0.49219-3.3164 1.3711s-1.3711 2.0742-1.3711 3.3164v10.871l-3.125 14.012zm45.312 53.125h-43.75c-0.39844-0.003906-0.78516-0.15625-1.082-0.42578l6.6016-29.602c0.16016-0.71484 0.79297-1.2266 1.5273-1.2227h36.703zm0.28906-34.375h-36.992c-0.82812 0-1.6445 0.21875-2.3594 0.63672v-3.7617c0.003906-0.86328 0.69922-1.5586 1.5625-1.5625h57.812c0.86328 0.003906 1.5586 0.69922 1.5625 1.5625h-17.188c-1.9805 0.007812-3.7422 1.2578-4.3984 3.125zm41.898 56.25c0 0.86328-0.69922 1.5625-1.5625 1.5625h-35.938c-0.86328 0-1.5625-0.69922-1.5625-1.5625v-54.688c0-0.86328 0.69922-1.5625 1.5625-1.5625h25v7.8125c0.003906 2.5859 2.1016 4.6836 4.6875 4.6875h7.8125z"/>
  <path d="m59.375 46.875h29.688c0.86328 0 1.5625 0.69922 1.5625 1.5625s-0.69922 1.5625-1.5625 1.5625h-29.688c-0.86328 0-1.5625-0.69922-1.5625-1.5625s0.69922-1.5625 1.5625-1.5625z"/>
  <path d="m90.625 57.812c0 0.41406-0.16406 0.8125-0.45703 1.1055s-0.69141 0.45703-1.1055 0.45703h-29.688c-0.86328 0-1.5625-0.69922-1.5625-1.5625s0.69922-1.5625 1.5625-1.5625h29.688c0.41406 0 0.8125 0.16406 1.1055 0.45703s0.45703 0.69141 0.45703 1.1055z"/>
  <path d="m90.625 67.188c0 0.41406-0.16406 0.8125-0.45703 1.1055s-0.69141 0.45703-1.1055 0.45703h-29.688c-0.86328 0-1.5625-0.69922-1.5625-1.5625s0.69922-1.5625 1.5625-1.5625h29.688c0.41406 0 0.8125 0.16406 1.1055 0.45703s0.45703 0.69141 0.45703 1.1055z"/>
 </g>
</svg>
