<?xml version="1.0" encoding="utf-8"?>
<!-- Generator: Adobe Illustrator 24.3.0, SVG Export Plug-In . SVG Version: 6.00 Build 0)  -->
<svg version="1.1"
	 id="Layer_1" xmlns:cc="http://creativecommons.org/ns#" xmlns:dc="http://purl.org/dc/elements/1.1/" xmlns:inkscape="http://www.inkscape.org/namespaces/inkscape" xmlns:rdf="http://www.w3.org/1999/02/22-rdf-syntax-ns#" xmlns:sodipodi="http://sodipodi.sourceforge.net/DTD/sodipodi-0.dtd" xmlns:svg="http://www.w3.org/2000/svg"
	 xmlns="http://www.w3.org/2000/svg" xmlns:xlink="http://www.w3.org/1999/xlink" x="0px" y="0px" viewBox="0 0 74.4 81.2"
	 style="enable-background:new 0 0 74.4 81.2;" xml:space="preserve">
<style type="text/css">
	.st0{fill:#FFFFFF;stroke:#FFFFFF;stroke-width:0.75;stroke-miterlimit:10;}
	.st1{fill:#FCBA19;stroke:#FCBA19;stroke-width:0.75;stroke-miterlimit:10;}
	.st2{fill:#003366;stroke:#FCBA19;stroke-width:0.75;stroke-miterlimit:10;}
</style>
<path class="st0" d="M12.8,5.6c-2.8,0-5,2.2-5,5v52c0,2.8,2.2,5,5,5h17v4.7c0,1.8,1.5,3.3,3.3,3.3h33.5c1.8,0,3.3-1.5,3.3-3.3V50.9
	c0-1.8-1.5-3.3-3.3-3.3H53.8v-27c0-0.3-0.1-0.5-0.3-0.7l-14-14c-0.2-0.2-0.5-0.3-0.7-0.3H12.8z M12.8,7.6h24v13c0,0.6,0.4,1,1,1h14
	v26H33c-1.8,0-3.3,1.5-3.3,3.3v2.8h-4c-0.1,0-0.1,0-0.2,0c-0.6,0.1-1,0.5-0.9,1.1s0.5,1,1.1,0.9h4v10h-17c-1.7,0-3-1.3-3-3v-52
	C9.8,8.9,11.1,7.6,12.8,7.6z M38.8,8l11.6,11.6H38.8V8z M17.8,29.6c-1.6,0-3,1.4-3,3c0,1.6,1.4,3,3,3s3-1.4,3-3
	C20.8,31,19.4,29.6,17.8,29.6z M17.8,31.6c0.6,0,1,0.4,1,1s-0.4,1-1,1s-1-0.4-1-1S17.2,31.6,17.8,31.6z M25.6,31.6
	c-0.6,0.1-1,0.5-0.9,1.1s0.5,1,1.1,0.9h18c0.6,0,1-0.4,1-1c0-0.6-0.4-1-1-1c0,0,0,0,0,0h-18C25.7,31.6,25.7,31.6,25.6,31.6z
	 M17.8,40.6c-1.6,0-3,1.4-3,3s1.4,3,3,3s3-1.4,3-3S19.4,40.6,17.8,40.6z M17.8,42.6c0.6,0,1,0.4,1,1s-0.4,1-1,1s-1-0.4-1-1
	S17.2,42.6,17.8,42.6z M25.6,42.6c-0.6,0.1-1,0.5-0.9,1.1s0.5,1,1.1,0.9h16.4c0.6,0,1-0.4,1-1c0-0.6-0.4-1-1-1c0,0,0,0,0,0H25.8
	C25.7,42.6,25.7,42.6,25.6,42.6z M33,49.6h33.5c0.7,0,1.3,0.5,1.3,1.3v21.5c0,0.7-0.6,1.3-1.3,1.3H33c-0.7,0-1.3-0.6-1.3-1.3V50.9
	C31.8,50.1,32.3,49.6,33,49.6z M17.8,51.6c-1.6,0-3,1.4-3,3c0,1.6,1.4,3,3,3s3-1.4,3-3C20.8,53,19.4,51.6,17.8,51.6z M17.8,53.6
	c0.6,0,1,0.4,1,1c0,0.6-0.4,1-1,1s-1-0.4-1-1C16.8,54.1,17.2,53.6,17.8,53.6z"/>
<path class="st1" d="M44.6,53.6c-0.5,0.1-0.8,0.5-0.8,1v14c0,0.6,0.5,1,1,1c0.2,0,0.3,0,0.5-0.1l13-7c0.5-0.3,0.7-0.9,0.4-1.3
	c-0.1-0.2-0.2-0.3-0.4-0.4l-13-7C45,53.6,44.8,53.6,44.6,53.6z"/>
<polygon class="st2" points="45.8,56.3 55.7,61.6 45.8,66.9 "/>
</svg>
