<?xml version="1.0" encoding="utf-8"?>
<!-- Generator: Adobe Illustrator 25.0.1, SVG Export Plug-In . SVG Version: 6.00 Build 0)  -->
<svg version="1.1" id="Layer_1" xmlns="http://www.w3.org/2000/svg" xmlns:xlink="http://www.w3.org/1999/xlink" x="0px" y="0px"
	 viewBox="0 0 64 67.3" style="enable-background:new 0 0 64 67.3;" xml:space="preserve">
<style type="text/css">
	.st0{fill:#003366;stroke:#FFFFFF;stroke-width:0.75;stroke-miterlimit:10;}
	.st1{fill:#FCBA19;stroke:#FFFFFF;stroke-width:0.75;stroke-miterlimit:10;}
</style>
<g>
	<path class="st0" d="M53,21c2.8,0,5-2.2,5-5v-2c0-2.8-2.2-5-5-5s-5,2.2-5,5v2C48,18.8,50.2,21,53,21z M50,14c0-1.7,1.3-3,3-3
		s3,1.3,3,3v2c0,1.7-1.3,3-3,3s-3-1.3-3-3V14z"/>
	<path class="st0" d="M11,21c2.8,0,5-2.2,5-5v-2c0-2.8-2.2-5-5-5s-5,2.2-5,5v2C6,18.8,8.2,21,11,21z M8,14c0-1.7,1.3-3,3-3
		s3,1.3,3,3v2c0,1.7-1.3,3-3,3s-3-1.3-3-3V14z"/>
	<path class="st0" d="M27,57.7V46c0-3.9-3.1-7-7-7h-4V28c0-2.8-2.2-5-5-5s-5,2.2-5,5v12c0,1.9,0.8,3.7,2.1,5H4V26H2v36h2V47h9
		c1.1,0,2,0.9,2,2v13h2V49c0-0.7-0.2-1.4-0.6-2H19v14c0,0.6,0.4,1,1,1h8c0.6,0,1-0.4,1-1c0-0.2-0.1-0.4-0.2-0.6L27,57.7z M21,60V46
		c0-0.6-0.4-1-1-1h-7c-2.8,0-5-2.2-5-5V28c0-1.7,1.3-3,3-3s3,1.3,3,3v12c0,0.6,0.4,1,1,1h5c2.8,0,5,2.2,5,5v12
		c0,0.2,0.1,0.4,0.2,0.6l1,1.4H21z"/>
	<path class="st0" d="M60,45h-4.1c1.4-1.3,2.1-3.1,2.1-5V28c0-2.8-2.2-5-5-5s-5,2.2-5,5v11h-4c-3.9,0-7,3.1-7,7v11.7l-1.8,2.7
		c-0.3,0.5-0.2,1.1,0.3,1.4c0.2,0.1,0.4,0.2,0.6,0.2h8c0.6,0,1-0.4,1-1V47h2.6c-0.4,0.6-0.6,1.3-0.6,2v13h2V49c0-1.1,0.9-2,2-2h9v15
		h2V26h-2V45z M51,45h-7c-0.6,0-1,0.4-1,1v14h-5.1l1-1.4c0.1-0.2,0.2-0.4,0.2-0.6V46c0-2.8,2.2-5,5-5h5c0.6,0,1-0.4,1-1V28
		c0-1.7,1.3-3,3-3s3,1.3,3,3v12C56,42.8,53.8,45,51,45z"/>
	<path class="st0" d="M44,35h-8.4l3.3-6.6c0.2-0.5,0-1.1-0.4-1.3C38.3,27,38.2,27,38,27H28c-0.4,0-0.7,0.2-0.9,0.6L23.4,35H20v2h11
		v25h2V37h11V35z M33.4,35h-7.8l3-6h7.8L33.4,35z"/>
	<path class="st1" d="M38,22c0.1,0,0.3,0,0.4-0.1c0.4-0.2,0.6-0.5,0.6-0.9v-3h1c2.2,0,4-1.8,4-4V8c0-2.2-1.8-4-4-4H28
		c-2.2,0-4,1.8-4,4h2c0-1.1,0.9-2,2-2h12c1.1,0,2,0.9,2,2v6c0,1.1-0.9,2-2,2h-2c-0.6,0-1,0.4-1,1v1.6l-2.3-2.3l-1.4,1.4l4,4
		C37.5,21.9,37.7,22,38,22z"/>
	<path class="st1" d="M18,12v4c0,2.2,1.8,4,4,4h1v3c0,0.4,0.2,0.8,0.6,0.9C23.7,24,23.9,24,24,24c0.3,0,0.5-0.1,0.7-0.3l3.7-3.7H30
		c2.2,0,4-1.8,4-4v-4c0-2.2-1.8-4-4-4h-8C19.8,8,18,9.8,18,12z M32,12v4c0,1.1-0.9,2-2,2h-2c-0.3,0-0.5,0.1-0.7,0.3L25,20.6V19
		c0-0.6-0.4-1-1-1h-2c-1.1,0-2-0.9-2-2v-4c0-1.1,0.9-2,2-2h8C31.1,10,32,10.9,32,12z"/>
	<rect x="22" y="13" class="st1" width="2" height="2"/>
	<rect x="26" y="13" class="st1" width="4" height="2"/>
	<rect x="34.5" y="8" class="st1" width="4" height="2"/>
	<rect x="39" y="8" class="st1" width="2" height="2"/>
	<rect x="35" y="12" class="st1" width="6" height="1.5"/>
</g>
</svg>
