<?xml version="1.0" encoding="utf-8"?>
<svg version="1.1" xmlns:xlink="http://www.w3.org/1999/xlink" width="30px" height="20px" xmlns="http://www.w3.org/2000/svg">
  <g>
    <path d="M 12 12.5  L 12 14  L 18 14  L 18 12.5  L 16 12.5  L 16 5.5  L 14.21875 5.5  L 11.90625 7.640625  L 13.109375 8.890625  C 13.546875 8.50520833333333  13.8333333333333 8.20833333333333  13.96875 8  L 14 8  L 14 12.5  L 12 12.5  Z M 19.671875 7.78125  C 19.890625 8.53125  20 9.27083333333333  20 10  C 20 10.7291666666667  19.890625 11.46875  19.671875 12.21875  C 19.453125 12.96875  19.1432291666667 13.6666666666667  18.7421875 14.3125  C 18.3411458333333 14.9583333333333  17.8125 15.484375  17.15625 15.890625  C 16.5 16.296875  15.78125 16.5  15 16.5  C 14.21875 16.5  13.5 16.296875  12.84375 15.890625  C 12.1875 15.484375  11.6588541666667 14.9583333333333  11.2578125 14.3125  C 10.8567708333333 13.6666666666667  10.546875 12.96875  10.328125 12.21875  C 10.109375 11.46875  10 10.7291666666667  10 10  C 10 9.27083333333333  10.109375 8.53125  10.328125 7.78125  C 10.546875 7.03125  10.8567708333333 6.33333333333333  11.2578125 5.6875  C 11.6588541666667 5.04166666666666  12.1875 4.515625  12.84375 4.109375  C 13.5 3.703125  14.21875 3.5  15 3.5  C 15.78125 3.5  16.5 3.703125  17.15625 4.109375  C 17.8125 4.515625  18.3411458333333 5.04166666666666  18.7421875 5.6875  C 19.1432291666667 6.33333333333333  19.453125 7.03125  19.671875 7.78125  Z M 25.171875 15.171875  C 25.953125 14.390625  26.8958333333333 14  28 14  L 28 6  C 26.8958333333333 6  25.953125 5.609375  25.171875 4.828125  C 24.390625 4.046875  24 3.10416666666666  24 2  L 6 2  C 6 3.10416666666666  5.609375 4.046875  4.828125 4.828125  C 4.046875 5.609375  3.10416666666667 6  2 6  L 2 14  C 3.10416666666667 14  4.046875 14.390625  4.828125 15.171875  C 5.609375 15.953125  6 16.8958333333333  6 18  L 24 18  C 24 16.8958333333333  24.390625 15.953125  25.171875 15.171875  Z M 29.703125 0.296875000000001  C 29.9010416666667 0.494791666666665  30 0.729166666666665  30 1  L 30 19  C 30 19.2708333333333  29.9010416666667 19.5052083333333  29.703125 19.703125  C 29.5052083333333 19.9010416666667  29.2708333333333 20  29 20  L 1 20  C 0.729166666666667 20  0.494791666666667 19.9010416666667  0.296875 19.703125  C 0.0989583333333333 19.5052083333333  0 19.2708333333333  0 19  L 0 1  C 0 0.729166666666665  0.0989583333333333 0.494791666666665  0.296875 0.296875000000001  C 0.494791666666667 0.0989583333333321  0.729166666666667 0  1 0  L 29 0  C 29.2708333333333 0  29.5052083333333 0.0989583333333321  29.703125 0.296875000000001  Z " fill-rule="nonzero" fill="#333333" stroke="none" />
  </g>
</svg>