<?xml version="1.0" encoding="UTF-8"?>
<svg width="100pt" height="100pt" version="1.1" viewBox="0 0 100 100" xmlns="http://www.w3.org/2000/svg">
 <path d="m37.695 26.746c4.9492 0 8.9648 4.0195 8.9648 8.9648 0 4.0117-2.6484 7.4141-6.2852 8.5586 0.6875 0.19531 1.3438 0.46094 1.9648 0.79297-0.26172 0.79297-0.40234 1.6367-0.40234 2.5156 0 0.20703 0.007812 0.41406 0.023438 0.62109-1.1875-0.90625-2.668-1.4453-4.2656-1.4453-3.8828 0-7.0586 3.1719-7.0586 7.0586v17.996h10.562v2.8516h-7.6641l2.5352 15.059h3.2539l2.0078-11.914c0.10938 0.29297 0.27734 0.55859 0.49609 0.77344 0.38672 0.38672 0.92188 0.625 1.5117 0.625h0.34766l0.16406 0.76562-1.9062 11.32c-0.074218 0.71875-0.67969 1.2773-1.418 1.2773h-5.6562c-0.68359-0.003906-1.2891-0.49609-1.4023-1.1914l-2.8164-16.719h-1.4375c-0.78516 0-1.4258-0.64062-1.4258-1.4258v-19.418c0-4.5195 3.0703-8.3594 7.2305-9.5352-3.6406-1.1406-6.2852-4.5469-6.2852-8.5586 0-4.9492 4.0156-8.9648 8.9688-8.9648zm-17.398 0.46875c-1.6328 0.91406-3.0234-1.5703-1.3906-2.4844l30.402-17.113c0.45312-0.25391 0.98828-0.23438 1.4102 0.007812l30.383 17.105c1.6328 0.91406 0.24219 3.3984-1.3906 2.4844l-29.703-16.723-29.703 16.723zm29.277 62.496h0.85547l2.4062-11.227h-5.668zm0.42969-49.484c4.0586 0 7.3516 3.293 7.3516 7.3516 0 2.6133-1.3633 4.9102-3.418 6.2109 2.3594 0.42969 4.1602 2.5078 4.1602 4.9883v18.285c0 0.78516-0.63672 1.4258-1.4258 1.4258h-0.92578l-2.7539 12.863c-0.10156 0.6875-0.69531 1.2148-1.4102 1.2148h-3.1562c-0.66016-0.003906-1.25-0.46094-1.3906-1.1289l-2.7773-12.945h-0.92187c-0.78516 0-1.4258-0.64063-1.4258-1.4258v-18.285c0-2.4805 1.8008-4.5586 4.1641-4.9883-2.0547-1.3047-3.4219-3.6016-3.4219-6.2109 0-4.0586 3.293-7.3516 7.3516-7.3516zm3.0234 16.332h-6.0469c-1.2188 0-2.2188 1-2.2188 2.2188v16.859h10.484v-16.859c0-1.2188-1-2.2188-2.2188-2.2188zm-3.0234-13.48c-2.4844 0-4.5039 2.0156-4.5039 4.5 0 2.4883 2.0117 4.5039 4.5039 4.5039 2.4844 0 4.5-2.0156 4.5-4.5039 0-2.4844-2.0156-4.5-4.5-4.5zm11.344-21.996c5.4258 0 9.8242 4.3984 9.8242 9.8242 0 4.6094-3.1836 8.4844-7.4688 9.5391 4.8594 1.082 8.5195 5.4375 8.5195 10.613v21.629c0 0.78516-0.63672 1.4258-1.4258 1.4258h-2.3984l-2.8047 17.152c-0.066406 0.72656-0.67578 1.2969-1.418 1.2969h-5.6562c-0.6875-0.003906-1.2891-0.5-1.4023-1.1992l-1.4727-8.9961 0.67969-3.168h0.34766c0.47266 0 0.91016-0.15625 1.2656-0.41406l1.7852 10.93h3.2422l2.5508-15.598h-6.7109v-2.8516h10.562v-20.203c0-4.4102-3.6133-8.0234-8.0234-8.0234-1.4727 0-2.8555 0.40234-4.0469 1.1016-0.39844-0.84375-0.94141-1.6094-1.5938-2.2617l-0.0625-0.0625c1.0195-0.63281 2.1484-1.1016 3.3516-1.3711-4.2891-1.0547-7.4688-4.9297-7.4688-9.543 0-5.4258 4.3984-9.8242 9.8242-9.8242zm0 2.8516c-3.8516 0-6.9727 3.1211-6.9727 6.9727 0 3.8594 3.1172 6.9727 6.9727 6.9727 3.8516 0 6.9727-3.1211 6.9727-6.9727s-3.1211-6.9727-6.9727-6.9727zm-23.648 5.668c-3.3789 0-6.1172 2.7383-6.1172 6.1172s2.7344 6.1172 6.1172 6.1172c3.3867 0 6.1172-2.7305 6.1172-6.1172 0-3.3828-2.7344-6.1172-6.1172-6.1172z" fill="#223f75"/>
</svg>
