<?xml version="1.0" encoding="UTF-8"?>
<svg width="1200pt" height="1200pt" version="1.1" viewBox="0 0 1200 1200" xmlns="http://www.w3.org/2000/svg">
 <path d="m600 0c-330.95 0-600 269.05-600 600s269.05 600 600 600 600-269.05 600-600-269.05-600-600-600zm-37.43 182.4h75.07c49.801-0.19922 95.699 37.785 93.266 88.855-0.082031 0.50781-0.17578 1.0156-0.27734 1.5156l-40.121 419.46v-1.793c-2.2969 48.027-45.699 81.145-92.508 81.273-47.133 0.26562-91.164-32.914-93.473-81.273l-35.227-417.88c-0.007812-0.43359-0.007812-0.87109 0-1.3047-2.4297-51.07 43.469-89.055 93.266-88.855zm-0.20703 70.59c-15.98-0.0625-22.672 9.375-22.402 14.891l-0.27734-1.3086 35.156 419.46c0.097656 0.34766 0.1875 0.69141 0.27344 1.043 0.24219 5.1172 7.3672 14.148 22.402 14.062h0.003906c0.089844-0.003907 0.18359-0.003907 0.27344 0 14.922-0.039063 21.887-8.9922 22.129-14.062 0.082031-0.53125 0.17188-1.0586 0.27734-1.5859l39.844-417.67c0.14844-5.5273-6.2773-14.883-22.129-14.82h-0.27734-75.07 0.003906-0.20703zm37.777 544.51c60.285 0 109.95 49.664 109.95 109.95 0 60.285-49.664 109.95-109.95 109.95s-109.95-49.664-109.95-109.95c0-60.285 49.664-109.95 109.95-109.95zm0 70.59c-22.137 0-39.359 17.223-39.359 39.359 0 22.137 17.223 39.359 39.359 39.359s39.293-17.223 39.293-39.359c0-22.137-17.156-39.359-39.293-39.359z" fill="#de0019"/>
</svg>
