<!-- Generator: Adobe Illustrator 25.1.0, SVG Export Plug-In  -->
<svg version="1.1" xmlns="http://www.w3.org/2000/svg" xmlns:xlink="http://www.w3.org/1999/xlink" x="0px" y="0px" width="74px"
	 height="91.1px" viewBox="0 0 74 91.1" style="overflow:visible;enable-background:new 0 0 74 91.1;" xml:space="preserve">
<style type="text/css">
	.st0{fill:#797979;}
</style>
<defs>
</defs>
<g transform="translate(0,-952.36218)">
	<path class="st0" d="M6.5,1043.4c-0.9,0-1.8-0.4-2.4-1.1c-0.7-0.7-1.1-1.6-1.1-2.5v-75.5c-1.9-1.2-3-3.3-3-5.5
		c0-3.6,2.9-6.5,6.5-6.5s6.5,2.9,6.5,6.5c0,2.2-1.1,4.3-3,5.5v2h60.5c1.3,0,2.6,0.8,3.2,2c0.6,1.2,0.4,2.7-0.5,3.7L61,986.9
		l12.2,14.8c0.8,1,1,2.5,0.5,3.7s-1.8,2-3.2,2H10v32.5c0,0.9-0.4,1.8-1.1,2.5C8.3,1043,7.4,1043.4,6.5,1043.4z M63.1,1000.4
		l-9.3-11.3c-1-1.2-1-3.2,0-4.4l9.3-11.3H10v27H63.1z"/>
	<path class="st0" d="M6.5,952.9c-3.3,0-6,2.7-6,6c0,2.2,1.2,4.2,3,5.2v75.8c0,1.6,1.4,3.1,3,3.1s3-1.5,3-3.1v-33h61
		c1.1,0,2.2-0.7,2.7-1.7c0.5-1,0.3-2.3-0.4-3.2l-12.4-15.1l12.4-15.1c0.7-0.9,0.9-2.2,0.4-3.2c-0.5-1-1.6-1.7-2.7-1.7h-61V964
		c1.8-1,3-3,3-5.2C12.5,955.5,9.8,952.9,6.5,952.9z M9.5,972.9h54.7l-10,12.1c-0.9,1.1-0.9,2.7,0,3.8l10,12.1H9.5V972.9z"/>
</g>
</svg>
