<?xml version="1.0" encoding="utf-8"?>
<svg version="1.1" xmlns:xlink="http://www.w3.org/1999/xlink" width="15px" height="15px" xmlns="http://www.w3.org/2000/svg">
  <g transform="matrix(1 0 0 1 -888 -174 )">
    <path d="M 15 1.40625  C 15 0.62958984375  14.37041015625 0  13.59375 0  L 4.21875 0  C 3.44208984375 0  2.8125 0.62958984375  2.8125 1.40625  L 2.8125 2.8125  L 1.40625 2.8125  C 0.62958984375 2.8125  0 3.44208984375  0 4.21875  L 0 13.59375  C 0 14.37041015625  0.62958984375 15  1.40625 15  L 10.78125 15  C 11.55791015625 15  12.1875 14.37041015625  12.1875 13.59375  L 12.1875 12.1875  L 13.59375 12.1875  C 14.37041015625 12.1875  15 11.55791015625  15 10.78125  L 15 1.40625  Z M 10.78125 13.41796875  C 10.78125 13.5150500536812  10.7025500536812 13.59375  10.60546875 13.59375  L 1.58203125 13.59375  C 1.48494994631881 13.59375  1.40625 13.5150500536812  1.40625 13.41796875  L 1.40625 4.39453125  C 1.40625 4.29744994631881  1.48494994631881 4.21875  1.58203125 4.21875  L 2.8125 4.21875  L 2.8125 10.78125  C 2.8125 11.55791015625  3.44208984375 12.1875  4.21875 12.1875  L 10.78125 12.1875  L 10.78125 13.41796875  Z M 13.59375 10.60546875  C 13.59375 10.7025500536812  13.5150500536812 10.78125  13.41796875 10.78125  L 4.39453125 10.78125  C 4.29744994631881 10.78125  4.21875 10.7025500536812  4.21875 10.60546875  L 4.21875 1.58203125  C 4.21875 1.48494994631881  4.29744994631881 1.40625  4.39453125 1.40625  L 13.41796875 1.40625  C 13.5150500536812 1.40625  13.59375 1.48494994631881  13.59375 1.58203125  L 13.59375 10.60546875  Z " fill-rule="nonzero" fill="#169bd5" stroke="none" transform="matrix(1 0 0 1 888 174 )" />
  </g>
</svg>