<?xml version="1.0" encoding="utf-8"?>
<svg version="1.1" xmlns:xlink="http://www.w3.org/1999/xlink" width="13px" height="17px" xmlns="http://www.w3.org/2000/svg">
  <g transform="matrix(1 0 0 1 -334 -355 )">
    <path d="M 3.61111111111111 5.40909090909091  L 3.61111111111111 7.72727272727273  L 9.38888888888889 7.72727272727273  L 9.38888888888889 5.40909090909091  C 9.38888888888889 4.55587121212121  9.10677083333333 3.82741477272727  8.54253472222222 3.22372159090909  C 7.97829861111111 2.62002840909091  7.29745370370371 2.31818181818182  6.5 2.31818181818182  C 5.7025462962963 2.31818181818182  5.02170138888889 2.62002840909091  4.45746527777778 3.22372159090909  C 3.89322916666667 3.82741477272727  3.61111111111111 4.55587121212121  3.61111111111111 5.40909090909091  Z M 12.6840277777778 8.06534090909091  C 12.8946759259259 8.2907196969697  13 8.56439393939394  13 8.88636363636364  L 13 15.8409090909091  C 13 16.1628787878788  12.8946759259259 16.436553030303  12.6840277777778 16.6619318181818  C 12.4733796296296 16.8873106060606  12.2175925925926 17  11.9166666666667 17  L 1.08333333333333 17  C 0.782407407407408 17  0.52662037037037 16.8873106060606  0.315972222222222 16.6619318181818  C 0.105324074074074 16.436553030303  0 16.1628787878788  0 15.8409090909091  L 0 8.88636363636364  C 0 8.56439393939394  0.105324074074074 8.2907196969697  0.315972222222222 8.06534090909091  C 0.52662037037037 7.83996212121212  0.782407407407408 7.72727272727273  1.08333333333333 7.72727272727273  L 1.44444444444444 7.72727272727273  L 1.44444444444444 5.40909090909091  C 1.44444444444444 3.9280303030303  1.94097222222222 2.65625  2.93402777777778 1.59375  C 3.92708333333333 0.53125  5.11574074074074 0  6.5 0  C 7.88425925925926 0  9.07291666666667 0.53125  10.0659722222222 1.59375  C 11.0590277777778 2.65625  11.5555555555556 3.9280303030303  11.5555555555556 5.40909090909091  L 11.5555555555556 7.72727272727273  L 11.9166666666667 7.72727272727273  C 12.2175925925926 7.72727272727273  12.4733796296296 7.83996212121212  12.6840277777778 8.06534090909091  Z " fill-rule="nonzero" fill="#333333" stroke="none" transform="matrix(1 0 0 1 334 355 )" />
  </g>
</svg>