<!-- Generator: Adobe Illustrator 25.1.0, SVG Export Plug-In  -->
<svg version="1.1" xmlns="http://www.w3.org/2000/svg" xmlns:xlink="http://www.w3.org/1999/xlink" x="0px" y="0px" width="66.8px"
	 height="88.7px" viewBox="0 0 66.8 88.7" style="overflow:visible;enable-background:new 0 0 66.8 88.7;" xml:space="preserve">
<style type="text/css">
	.st0{fill:#333333;}
</style>
<defs>
</defs>
<g>
	<g>
		<path class="st0" d="M4.8,88.7c-2.7,0-4.8-2.2-4.8-4.8v-79C0,2.2,2.2,0,4.8,0h43.7c0.7,0,1.3,0.3,1.8,0.7L66,16.5
			c0.5,0.5,0.7,1.1,0.7,1.7l0,0l0,0.1l0,65.6c0,2.7-2.2,4.8-4.8,4.8H4.8z M61.6,83.6V20.8H50.8c-2.7,0-4.8-2.2-4.8-4.8V5.1H5.1v78.5
			H61.6z M58,15.7l-7-7v7H58z"/>
		<path class="st0" d="M66.2,18.2c0-0.5-0.2-1-0.6-1.4L49.9,1.1c0,0,0,0,0,0c-0.4-0.4-0.9-0.6-1.4-0.6H4.8c-2.4,0-4.3,1.9-4.3,4.3
			v79c0,2.4,1.9,4.3,4.3,4.3h57.1c2.4,0,4.3-1.9,4.3-4.3L66.2,18.2C66.3,18.3,66.2,18.3,66.2,18.2z M50.5,7.5l8.7,8.7h-8.5
			c-0.1,0-0.2-0.1-0.2-0.2L50.5,7.5L50.5,7.5z M62.1,83.9c0,0.1-0.1,0.2-0.2,0.2H4.8c-0.1,0-0.2-0.1-0.2-0.2v-79
			c0-0.1,0.1-0.2,0.2-0.2h41.6V16c0,2.4,1.9,4.3,4.3,4.3h11.4L62.1,83.9L62.1,83.9z"/>
	</g>
</g>
<g>
	<g>
		<path class="st0" d="M15.2,33.2c-1.4,0-2.6-1.1-2.6-2.6s1.1-2.6,2.6-2.6h36.3c1.4,0,2.6,1.1,2.6,2.6s-1.1,2.6-2.6,2.6H15.2z"/>
		<path class="st0" d="M51.5,28.6H15.2c-1.1,0-2.1,0.9-2.1,2.1c0,1.1,0.9,2.1,2.1,2.1h36.3c1.1,0,2.1-0.9,2.1-2.1
			C53.6,29.5,52.7,28.6,51.5,28.6z"/>
	</g>
</g>
<g>
	<g>
		<path class="st0" d="M15.2,45.6c-1.4,0-2.6-1.1-2.6-2.6s1.1-2.6,2.6-2.6h36.3c1.4,0,2.6,1.1,2.6,2.6s-1.1,2.6-2.6,2.6H15.2z"/>
		<path class="st0" d="M51.5,41H15.2c-1.1,0-2.1,0.9-2.1,2.1c0,1.1,0.9,2.1,2.1,2.1h36.3c1.1,0,2.1-0.9,2.1-2.1
			C53.6,41.9,52.7,41,51.5,41z"/>
	</g>
</g>
<g>
	<g>
		<path class="st0" d="M15.2,58c-1.4,0-2.6-1.1-2.6-2.6c0-1.4,1.1-2.6,2.6-2.6h36.3c1.4,0,2.6,1.1,2.6,2.6c0,1.4-1.1,2.6-2.6,2.6
			H15.2z"/>
		<path class="st0" d="M51.5,53.4H15.2c-1.1,0-2.1,0.9-2.1,2.1c0,1.1,0.9,2.1,2.1,2.1h36.3c1.1,0,2.1-0.9,2.1-2.1
			C53.6,54.3,52.7,53.4,51.5,53.4z"/>
	</g>
</g>
<g>
	<g>
		<path class="st0" d="M15.2,70.4c-1.4,0-2.6-1.1-2.6-2.6c0-1.4,1.1-2.6,2.6-2.6h18.2c1.4,0,2.6,1.1,2.6,2.6c0,1.4-1.1,2.6-2.6,2.6
			H15.2z"/>
		<path class="st0" d="M33.4,65.8H15.2c-1.1,0-2.1,0.9-2.1,2.1c0,1.1,0.9,2.1,2.1,2.1h18.2c1.1,0,2.1-0.9,2.1-2.1
			C35.4,66.7,34.5,65.8,33.4,65.8z"/>
	</g>
</g>
</svg>
