<?xml version="1.0" encoding="utf-8"?>
<!-- Generator: Adobe Illustrator 25.2.0, SVG Export Plug-In . SVG Version: 6.00 Build 0)  -->
<svg version="1.1" id="Layer_1" xmlns="http://www.w3.org/2000/svg" xmlns:xlink="http://www.w3.org/1999/xlink" x="0px" y="0px"
	 viewBox="0 0 40 40" style="enable-background:new 0 0 40 40;" xml:space="preserve">
<style type="text/css">
	.st0{fill:#169BD5;}
	.st1{fill:#FFFFFF;}
	.st2{fill-rule:evenodd;clip-rule:evenodd;fill:#FFFFFF;}
</style>
<circle class="st0" cx="20" cy="20" r="20"/>
<path class="st1" d="M50.2,31l2.8-2.6c-0.6-0.9-1-2-1-3.1c0-3.4,3-6.1,6.8-6.1c1.3,0,2.5,0.3,3.5,0.9l2.3-2.1
	c-1.7-0.8-3.7-1.3-5.8-1.3c-8.1,0-14.2,7.8-14.4,8.2c-0.2,0.2-0.2,0.6,0,0.8C44.6,25.9,46.8,28.7,50.2,31z"/>
<path class="st1" d="M73.3,24.9c-0.2-0.2-2.4-3-5.8-5.3l-2.8,2.6c0.6,0.9,1,2,1,3.1c0,3.4-3,6.1-6.8,6.1c-1.3,0-2.5-0.3-3.5-0.9
	l-2.3,2.1c1.7,0.8,3.7,1.3,5.8,1.3c8.1,0,14.2-7.8,14.4-8.2C73.5,25.5,73.5,25.1,73.3,24.9z"/>
<path class="st1" d="M71.6,13.8c-0.3-0.3-0.8-0.3-1.1,0l-24.3,22c-0.3,0.3-0.3,0.7,0,1c0.2,0.1,0.4,0.2,0.6,0.2
	c0.2,0,0.4-0.1,0.6-0.2l24.3-22C71.9,14.5,71.9,14.1,71.6,13.8z"/>
<path class="st1" d="M54.9,25.3c0,0.5,0.1,0.9,0.3,1.3l5.2-4.7c-0.4-0.2-0.9-0.2-1.4-0.2C56.6,21.7,54.9,23.3,54.9,25.3z"/>
<path class="st1" d="M58.9,28.9c2.2,0,4-1.6,4-3.6c0-0.5-0.1-0.9-0.3-1.3l-5.2,4.7C57.9,28.8,58.3,28.9,58.9,28.9z"/>
<g>
	<path class="st2" d="M26.6,19.6c0,1.7-0.7,3.3-1.9,4.5h0c-1.1,1.1-2.7,1.9-4.5,1.9s-3.3-0.7-4.5-1.9c-1.1-1.1-1.9-2.7-1.9-4.5
		c0-1.7,0.7-3.3,1.9-4.5h0c1.1-1.2,2.7-1.9,4.5-1.9c1.7,0,3.3,0.7,4.5,1.9C25.9,16.2,26.6,17.8,26.6,19.6z M11.7,25.1
		c2.5,1.6,5.4,2.7,8.6,2.7c3.2,0,6.1-1.1,8.6-2.7c2.4-1.5,4.4-3.5,6.2-5.5c-2-2.2-4.5-4.4-7.3-6c-2.4-1.4-5-2.3-7.5-2.3
		s-5.1,0.9-7.5,2.3c-2.8,1.6-5.3,3.8-7.3,6C7.3,21.6,9.3,23.6,11.7,25.1z"/>
</g>
<circle class="st2" cx="20.3" cy="19.6" r="3.8"/>
</svg>
