<!-- Generator: Adobe Illustrator 25.1.0, SVG Export Plug-In  -->
<svg version="1.1" xmlns="http://www.w3.org/2000/svg" xmlns:xlink="http://www.w3.org/1999/xlink" x="0px" y="0px" width="88.9px"
	 height="87.4px" viewBox="0 0 88.9 87.4" style="overflow:visible;enable-background:new 0 0 88.9 87.4;" xml:space="preserve">
<style type="text/css">
	.st0{fill:#333333;}
</style>
<defs>
</defs>
<path class="st0" d="M8.8,87.4c-1.4,0-2.6-1.1-2.6-2.6V46.5l-2.1,1.6c-0.4,0.3-1,0.5-1.5,0.5C1.1,48.6,0,47.4,0,46V33.6
	c0-0.8,0.4-1.6,1-2L43,0.5c0.4-0.3,1-0.5,1.5-0.5s1.1,0.2,1.5,0.5l9.9,7.3V2.6C55.9,1.1,57,0,58.4,0H74c1.4,0,2.6,1.1,2.6,2.6v20.6
	l11.4,8.4c0.6,0.5,1,1.2,1,2V46c0,0.6-0.2,1.1-0.5,1.5c-0.5,0.6-1.2,1-2,1l0,0c-0.6,0-1.1-0.2-1.5-0.5l-2.1-1.6v38.4
	c0,1.4-1.1,2.6-2.6,2.6H8.8z M77.6,82.3V42.7L44.5,18.1L11.3,42.7v39.6h4.2v-30c0-1.4,1.1-2.6,2.6-2.6h21.7c1.4,0,2.6,1.1,2.6,2.6
	v30H77.6z M37.3,82.3V54.8H20.6v27.5H37.3z M5.1,40.9L7,39.5l0.1-0.1l0.1-0.1l35.7-26.4c0.4-0.3,1-0.5,1.5-0.5s1.1,0.2,1.5,0.5
	l35.6,26.3c0.2,0.1,0.3,0.2,0.4,0.3l1.8,1.3v-6L44.5,5.7L5.1,34.9V40.9z M71.4,19.2V5.1H61v6.3L71.4,19.2z"/>
<path class="st0" d="M49.1,73.4c-1.4,0-2.6-1.1-2.6-2.6V50.7c0-1.4,1.1-2.6,2.6-2.6h20.2c1.4,0,2.6,1.1,2.6,2.6v20.2
	c0,1.4-1.1,2.6-2.6,2.6H49.1z M66.8,68.3v-4.2H62v4.2H66.8z M56.9,68.3v-4.2h-5.2v4.2H56.9z M66.8,59v-5.8H62V59H66.8z M56.9,59
	v-5.8h-5.2V59H56.9z"/>
</svg>
