<?xml version="1.0" encoding="UTF-8"?>
<svg width="100pt" height="100pt" version="1.1" viewBox="0 0 100 100" xmlns="http://www.w3.org/2000/svg">
 <g fill="#223f75">
  <path d="m93.469 26.23c0-0.87109-0.71094-1.5781-1.5781-1.5781l-83.789-0.003906c-0.87109 0-1.5781 0.71094-1.5781 1.5781v47.539c0 0.87109 0.71094 1.5781 1.5781 1.5781 0.87109 0 1.5781-0.71094 1.5781-1.5781v-45.957h82.219c0.87109 0 1.5703-0.70703 1.5703-1.5781z"/>
  <path d="m86.961 19.828c0-0.87109-0.71094-1.5781-1.5781-1.5781h-83.793c-0.87109 0-1.5781 0.71094-1.5781 1.5781v47.539c0 0.87109 0.71094 1.5781 1.5781 1.5781 0.87109 0 1.5781-0.71094 1.5781-1.5781l0.003906-45.969h82.219c0.85938 0 1.5703-0.69922 1.5703-1.5703z"/>
  <path d="m98.41 31.059h-83.789c-0.87109 0-1.5781 0.71094-1.5781 1.5781v47.539c0 0.87109 0.71094 1.5781 1.5781 1.5781h83.789c0.87109 0 1.5781-0.71094 1.5781-1.5781v-47.547c-0.007812-0.86719-0.70703-1.5703-1.5781-1.5703zm-82.219 17.133c7.3594-0.73828 13.238-6.6094 13.98-13.98h52.68c0.73828 7.3594 6.6094 13.238 13.98 13.98v16.43c-7.3711 0.73828-13.238 6.6094-13.98 13.98h-52.68c-0.73828-7.3594-6.6094-13.238-13.98-13.98zm80.637-3.1797c-5.6211-0.71094-10.09-5.1797-10.801-10.801h10.801zm-69.84-10.801c-0.71094 5.6211-5.1797 10.09-10.801 10.801v-10.801zm-10.797 33.59c5.6211 0.71094 10.09 5.1797 10.801 10.801h-10.801zm69.84 10.801c0.71094-5.6211 5.1797-10.09 10.801-10.801v10.801z"/>
  <path d="m56.512 72.551c7.2891 0 13.219-7.2383 13.219-16.148 0-8.9141-5.9297-16.141-13.219-16.141-7.293 0-13.211 7.2383-13.211 16.137 0 8.9023 5.918 16.152 13.211 16.152zm0-29.141c5.5508 0 10.059 5.8281 10.059 13s-4.5117 13-10.059 13c-5.5508 0-10.059-5.8281-10.059-13-0.003906-7.1719 4.5078-13 10.059-13z"/>
 </g>
</svg>
