<!-- Generator: Adobe Illustrator 25.1.0, SVG Export Plug-In  -->
<svg version="1.1" xmlns="http://www.w3.org/2000/svg" xmlns:xlink="http://www.w3.org/1999/xlink" x="0px" y="0px" width="47.1px"
	 height="69.4px" viewBox="0 0 47.1 69.4" style="overflow:visible;enable-background:new 0 0 47.1 69.4;" xml:space="preserve">
<style type="text/css">
	.st0{fill:#333333;}
</style>
<defs>
</defs>
<g>
	<path class="st0" d="M47.1,15.2C47.1,6.6,42.6,0,37,0S26.9,6.6,26.9,15.2c0,6.1,2.3,11.6,5.9,13.9l-1.4,34.4c-0.1,1.6,0.4,3,1.6,4
		c1,1.2,2.5,1.7,4,1.7c1.6,0,3-0.6,4-1.7c1-1.2,1.6-2.6,1.6-4l-1.4-34.4C44.8,26.7,47.1,21.2,47.1,15.2z M39,27
		c-0.4,0.3-0.9,0.7-0.7,1.3l1.4,35.3c0,0.7-0.3,1.4-0.7,2c-1,1-2.9,1-3.9,0c-0.6-0.6-0.7-1.3-0.7-2l1.4-35.3c0-0.6-0.3-1.2-0.7-1.3
		c-3-1.6-5.2-6.4-5.2-11.9c0-6.6,3.3-12.3,7.2-12.3s7.2,5.6,7.2,12.3C44.2,20.5,42.1,25.4,39,27z"/>
	<path class="st0" d="M21.5,0c-0.9,0-1.4,0.6-1.4,1.4v15.8h-3.8V1.4c0-0.9-0.6-1.4-1.4-1.4c-0.9,0-1.4,0.6-1.4,1.4v15.8H9.7V1.4
		C9.7,0.6,9.1,0,8.2,0C7.4,0,6.8,0.6,6.8,1.4v15.8H2.9V1.4C2.9,0.6,2.3,0,1.4,0S0,0.6,0,1.4v17.2c0,4.9,3,9,7.4,10.7L5.9,63.6
		c-0.1,1.6,0.4,3,1.6,4c1,1.2,2.5,1.7,4,1.7c1.6,0,3-0.6,4-1.7s1.6-2.6,1.6-4l-1.4-34.3c4.3-1.7,7.4-5.8,7.4-10.7V1.4
		C23,0.6,22.3,0,21.5,0z M14.2,63.7c0,0.7-0.3,1.4-0.7,2c-1,1-2.9,1-3.9,0c-0.6-0.6-0.7-1.3-0.7-2l1.4-33.7c0.4,0,0.9,0.1,1.3,0.1
		s0.9,0,1.3-0.1L14.2,63.7z M11.4,27.2c-4.2,0-7.8-3-8.4-7.1h16.9C19.2,24,15.8,27.2,11.4,27.2z"/>
</g>
</svg>
