<svg height='100px' width='100px'  fill="#169bd5" xmlns:dc="http://purl.org/dc/elements/1.1/" xmlns:cc="http://creativecommons.org/ns#" xmlns:rdf="http://www.w3.org/1999/02/22-rdf-syntax-ns#" xmlns:svg="http://www.w3.org/2000/svg" xmlns="http://www.w3.org/2000/svg" xmlns:sodipodi="http://sodipodi.sourceforge.net/DTD/sodipodi-0.dtd" xmlns:inkscape="http://www.inkscape.org/namespaces/inkscape" viewBox="0 0 8.4666667 8.4666669" version="1.1" x="0px" y="0px"><svg:g><svg:path style="color:#000000;font-style:normal;font-variant:normal;font-weight:normal;font-stretch:normal;font-size:medium;line-height:normal;font-family:sans-serif;font-variant-ligatures:normal;font-variant-position:normal;font-variant-caps:normal;font-variant-numeric:normal;font-variant-alternates:normal;font-feature-settings:normal;text-indent:0;text-align:start;text-decoration:none;text-decoration-line:none;text-decoration-style:solid;text-decoration-color:#000000;letter-spacing:normal;word-spacing:normal;text-transform:none;writing-mode:lr-tb;direction:ltr;text-orientation:mixed;dominant-baseline:auto;baseline-shift:baseline;text-anchor:start;white-space:normal;shape-padding:0;clip-rule:nonzero;display:inline;overflow:visible;visibility:visible;opacity:1;isolation:auto;mix-blend-mode:normal;color-interpolation:sRGB;color-interpolation-filters:linearRGB;solid-color:#000000;solid-opacity:1;vector-effect:none;fill:#169bd5;fill-opacity:1;fill-rule:nonzero;stroke:none;stroke-width:0.52916664;stroke-linecap:round;stroke-linejoin:round;stroke-miterlimit:4;stroke-dasharray:none;stroke-dashoffset:0;stroke-opacity:1;paint-order:stroke fill markers;color-rendering:auto;image-rendering:auto;shape-rendering:auto;text-rendering:auto;enable-background:accumulate" d="M 4.8301807,-9.8578786e-4 A 0.26460979,0.26460979 0 0 0 4.6565479,0.07704421 L 0.07853128,4.6550592 a 0.26460979,0.26460979 0 0 0 0,0.375171 l 3.35741962,3.359485 a 0.26460979,0.26460979 0 0 0 0.3751685,0 L 8.389136,3.8096342 a 0.26460979,0.26460979 0 0 0 0.073898,-0.22686 L 8.0160312,0.67080721 A 0.26460979,0.26460979 0 0 0 7.795374,0.45014921 l -2.9119671,-0.447001 a 0.26460979,0.26460979 0 0 0 -0.053226,-0.004099998 z M 4.9361172,0.54575021 7.5220065,0.94417621 7.9204319,3.5300642 3.6235352,7.8269602 0.6392204,4.8426462 Z M 6.4104443,1.1338282 c -0.5069919,0 -0.9239726,0.416981 -0.9239726,0.923975 0,0.506993 0.4169807,0.921907 0.9239726,0.921907 0.5069946,0 0.9219089,-0.414914 0.9219089,-0.921907 0,-0.506994 -0.4149143,-0.923975 -0.9219089,-0.923975 z m 0,0.529167 c 0.2210117,0 0.3948086,0.173796 0.3948086,0.394808 0,0.22101 -0.1737969,0.394291 -0.3948086,0.394291 -0.2210118,0 -0.39429,-0.173281 -0.39429,-0.394291 0,-0.221012 0.1732782,-0.394808 0.39429,-0.394808 z M 3.627152,2.8603382 v 0.26355 0.06666 c -0.052591,0.0089 -0.1047856,0.01896 -0.1550273,0.03411 -0.1175861,0.0343 -0.2134261,0.0762 -0.2873216,0.130741 -0.095091,0.06792 -0.1704076,0.154469 -0.2263431,0.257865 -0.054851,0.102839 -0.084233,0.217008 -0.084233,0.337448 0,0.132412 0.03515,0.256327 0.1018038,0.367419 0.069077,0.110525 0.1709049,0.199272 0.2986881,0.261483 0.1290558,0.06034 0.346194,0.126325 0.6583574,0.205155 0.2287931,0.05759 0.3745812,0.111421 0.41393,0.136943 0.069718,0.04604 0.097668,0.09745 0.097668,0.1757 0,0.08896 -0.035311,0.161089 -0.1193747,0.232544 -0.078449,0.06538 -0.2078487,0.103352 -0.39429,0.103352 -0.1836632,0 -0.3192277,-0.04063 -0.4139274,-0.118855 -0.094131,-0.0789 -0.1521513,-0.190853 -0.1741514,-0.347783 l -0.00775,-0.05271 H 3.0674974 2.7806917 l 0.013438,0.07235 c 0.048929,0.275624 0.1688677,0.550446 0.3576003,0.700733 0.1238329,0.0977 0.2848927,0.158007 0.4754218,0.189135 v 0.07183 0.264066 h 0.5296853 v -0.264066 -0.06253 c 0.1163293,-0.01642 0.2259197,-0.04493 0.3271096,-0.08888 h 0.00155 c 0.1639728,-0.07288 0.2924466,-0.176261 0.3808571,-0.310576 0.088889,-0.134181 0.134874,-0.280541 0.134874,-0.433565 0,-0.153721 -0.037759,-0.287622 -0.1131702,-0.396358 -0.074171,-0.106939 -0.1765777,-0.190404 -0.3048926,-0.24443 v 0.0021 C 4.4587189,4.3589812 4.2494626,4.2930502 3.9485811,4.2127102 3.7418489,4.1563302 3.6140631,4.1179802 3.579609,4.1052232 3.5145401,4.0784532 3.4701721,4.0467692 3.444735,4.0132392 v -0.0015 c -0.02699,-0.03432 -0.039275,-0.06726 -0.039275,-0.109554 0,-0.06694 0.028961,-0.123488 0.1018037,-0.179834 0.065169,-0.05041 0.1908889,-0.08372 0.3787881,-0.08372 0.1559322,0 0.2682928,0.03479 0.3436488,0.0956 0.07892,0.0626 0.1255791,0.147067 0.1426262,0.26355 l 0.00775,0.05064 H 4.9231976 L 4.9113125,3.9780992 C 4.8837032,3.8107952 4.8334112,3.6230472 4.7495648,3.5093942 4.6703856,3.4003012 4.5487751,3.3192202 4.3919645,3.2597972 4.3190189,3.2318602 4.2399693,3.2117052 4.1568373,3.1967512 v -0.07286 -0.26355 z"></svg:path></svg:g></svg>