<?xml version="1.0" encoding="UTF-8"?>
<svg width="100pt" height="100pt" version="1.1" viewBox="0 0 100 100" xmlns="http://www.w3.org/2000/svg">
 <g fill="#223f75">
  <path d="m13.715 23.527v72.305h72.57v-91.664h-53.207zm18.445-14.027v13.113h-13.109zm51 83.207h-66.32v-66.969h18.445v-18.445h47.875z"/>
  <path d="m24.176 30.645h51.648v3.125h-51.648z"/>
  <path d="m24.176 38.293h51.648v3.125h-51.648z"/>
  <path d="m24.176 45.945h51.648v3.125h-51.648z"/>
  <path d="m24.176 53.598h51.648v3.125h-51.648z"/>
  <path d="m52.879 73.184h-1.3164v-2.6016h3.0938v-3.125h-3.0938v-0.89062h-3.125v0.89062h-0.82031c-0.67578 0-1.2773 0.11719-1.7852 0.34375-0.51953 0.23438-0.94531 0.5625-1.2734 0.98828-0.28906 0.375-0.49609 0.80469-0.61328 1.2695-0.10937 0.42578-0.16406 0.90625-0.16406 1.4297v0.79297c0 0.52344 0.054688 1.0039 0.16406 1.4141 0.11719 0.48047 0.32813 0.91406 0.61719 1.2852 0.32422 0.41797 0.75391 0.75391 1.2734 0.98828 0.50781 0.22656 1.1055 0.34375 1.7812 0.34375h0.82031v2.7266h-2.8008v3.125h2.8008v0.89063h3.125v-0.89063h1.3164c1.9258 0 3.2188-1.457 3.2188-3.6289v-1.7188c0-2.1758-1.2969-3.6328-3.2188-3.6328zm-5.2617 0c-0.33203 0-0.47656-0.058594-0.58594-0.12109-0.011719-0.015625-0.035156-0.042969-0.058594-0.13672-0.03125-0.11719-0.066406-0.32422-0.066406-0.64453v-0.79297c0-0.32422 0.035156-0.53125 0.070312-0.66016 0.019532-0.074219 0.039063-0.10938 0.14063-0.17578 0.023437-0.011719 0.16797-0.070313 0.5-0.070313h0.82031v2.6016zm5.3555 5.3477c0 0.21484-0.042968 0.41016-0.082031 0.50781h-0.011719-1.3164v-2.7266h1.3281c0.039063 0.10156 0.078125 0.28906 0.078125 0.5v1.7188z"/>
  <path d="m50 62.383c-6.8555 0-12.43 5.5742-12.43 12.43s5.5742 12.43 12.43 12.43c6.8516 0 12.43-5.5742 12.43-12.43s-5.5781-12.43-12.43-12.43zm0 21.73c-5.1328 0-9.3047-4.1758-9.3047-9.3047s4.1758-9.3047 9.3047-9.3047 9.3047 4.1758 9.3047 9.3047c0 5.1328-4.1719 9.3047-9.3047 9.3047z"/>
 </g>
</svg>
