<?xml version="1.0" encoding="UTF-8"?>
<svg width="100pt" height="100pt" version="1.1" viewBox="0 0 100 100" xmlns="http://www.w3.org/2000/svg">
 <g fill="#223f75">
  <path d="m35.398 20.398h-10.598c-1.1016 0-2 0.89844-2 2 0 1.1016 0.89844 2 2 2h10.602c1.1016 0 2-0.89844 2-2-0.003906-1.0977-0.90234-2-2.0039-2z"/>
  <path d="m75.5 20.398h-32c-1.1016 0-2 0.89844-2 2 0 1.1016 0.89844 2 2 2h32c1.1016 0 2-0.89844 2-2 0-1.0977-0.89844-2-2-2z"/>
  <path d="m35.398 30.699h-10.598c-1.1016 0-2 0.89844-2 2 0 1.1016 0.89844 2 2 2h10.602c1.1016 0 2-0.89844 2-2-0.003906-1.1992-0.90234-2-2.0039-2z"/>
  <path d="m75.5 30.699h-32c-1.1016 0-2 0.89844-2 2 0 1.1016 0.89844 2 2 2h32c1.1016 0 2-0.89844 2-2 0-1.1992-0.89844-2-2-2z"/>
  <path d="m35.398 41.102h-10.598c-1.1016 0-2 0.89844-2 2 0 1.1016 0.89844 2 2 2h10.602c1.1016 0 2-0.89844 2-2-0.003906-1.1016-0.90234-2-2.0039-2z"/>
  <path d="m75.5 41.102h-32c-1.1016 0-2 0.89844-2 2 0 1.1016 0.89844 2 2 2h32c1.1016 0 2-0.89844 2-2 0-1.1016-0.89844-2-2-2z"/>
  <path d="m97.301 89.699-11.602-22.199c-0.30078-0.69922-1-1.1016-1.6992-1.1016h-32.699v-8.3008h31.398c1.1016 0 2-0.89844 2-2v-46.699c0-1.1016-0.89844-2-2-2h-67.598c-1.1016 0-2 0.89844-2 2v46.801c0 1.1016 0.89844 2 2 2h32.301v8.3008h-30.402c-0.69922 0-1.3984 0.39844-1.6992 1l-12.5 22.102c-0.30078 0.60156-0.30078 1.3984 0 2 0.30078 0.60156 1 1 1.6992 1h91.102c0.69922 0 1.3008-0.39844 1.6992-1 0.30078-0.60156 0.30078-1.3008 0-1.9023zm-80.301-78.301h63.699v42.898l-63.699 0.003906zm-9.1016 77.203 10.398-18.398 30.898 0.10156h0.10156 33.398l9.5 18.199-84.297-0.003906z"/>
  <path d="m28.5 77.898h5.1992c1.1016 0 2-0.89844 2-2 0-1.1016-0.89844-2-2-2h-5.1992c-1.1016 0-2 0.89844-2 2 0 1.1016 0.89844 2 2 2z"/>
  <path d="m41.301 77.898h5.1992c1.1016 0 2-0.89844 2-2 0-1.1016-0.89844-2-2-2h-5.1992c-1.1016 0-2 0.89844-2 2 0 1.1016 0.89844 2 2 2z"/>
  <path d="m54 77.898h5.1992c1.1016 0 2-0.89844 2-2 0-1.1016-0.89844-2-2-2h-5.1992c-1.1016 0-2 0.89844-2 2 0 1.1016 0.89844 2 2 2z"/>
  <path d="m67.102 77.898h5.1992c1.1016 0 2-0.89844 2-2 0-1.1016-0.89844-2-2-2h-5.1992c-1.1016 0-2 0.89844-2 2 0 1.1016 0.89844 2 2 2z"/>
  <path d="m78.398 80.898h-5.1992c-1.1016 0-2 0.89844-2 2 0 1.1016 0.89844 2 2 2h5.1992c1.1016 0 2-0.89844 2-2 0-1.0977-0.89844-2-2-2z"/>
  <path d="m27.301 80.898h-5.1992c-1.1016 0-2 0.89844-2 2 0 1.1016 0.89844 2 2 2h5.1992c1.1016 0 2-0.89844 2-2 0-1.0977-0.90234-2-2-2z"/>
  <path d="m40.102 80.898h-5.1992c-1.1016 0-2 0.89844-2 2 0 1.1016 0.89844 2 2 2h5.1992c1.1016 0 2-0.89844 2-2 0-1.0977-0.90234-2-2-2z"/>
  <path d="m52.801 80.898h-5.1992c-1.1016 0-2 0.89844-2 2 0 1.1016 0.89844 2 2 2h5.1992c1.1016 0 2-0.89844 2-2 0-1.0977-0.90234-2-2-2z"/>
  <path d="m65.898 80.898h-5.1992c-1.1016 0-2 0.89844-2 2 0 1.1016 0.89844 2 2 2h5.1992c1.1016 0 2-0.89844 2-2-0.097657-1.0977-0.89844-2-2-2z"/>
 </g>
</svg>
