<?xml version="1.0" encoding="utf-8"?>
<svg version="1.1" xmlns:xlink="http://www.w3.org/1999/xlink" width="20px" height="20px" xmlns="http://www.w3.org/2000/svg">
  <g transform="matrix(1 0 0 1 -559 -395 )">
    <path d="M 19.55078125 11.7903645833333  C 19.6332465277778 11.8728298611111  19.6744791666667 11.9704861111111  19.6744791666667 12.0833333333333  C 19.6744791666667 12.1267361111111  19.6701388888889 12.1571180555556  19.6614583333333 12.1744791666667  C 19.1059027777778 14.5008680555556  17.9427083333333 16.38671875  16.171875 17.83203125  C 14.4010416666667 19.27734375  12.3263888888889 20  9.94791666666667 20  C 8.68055555555556 20  7.45442708333333 19.7612847222222  6.26953125 19.2838541666667  C 5.08463541666667 18.8064236111111  4.02777777777778 18.125  3.09895833333333 17.2395833333333  L 1.41927083333333 18.9192708333333  C 1.25434027777778 19.0842013888889  1.05902777777778 19.1666666666667  0.833333333333333 19.1666666666667  C 0.607638888888889 19.1666666666667  0.412326388888889 19.0842013888889  0.247395833333333 18.9192708333333  C 0.0824652777777778 18.7543402777778  0 18.5590277777778  0 18.3333333333333  L 0 12.5  C 0 12.2743055555556  0.0824652777777778 12.0789930555556  0.247395833333333 11.9140625  C 0.412326388888889 11.7491319444444  0.607638888888889 11.6666666666667  0.833333333333333 11.6666666666667  L 6.66666666666667 11.6666666666667  C 6.89236111111111 11.6666666666667  7.08767361111111 11.7491319444444  7.25260416666667 11.9140625  C 7.41753472222222 12.0789930555556  7.5 12.2743055555556  7.5 12.5  C 7.5 12.7256944444444  7.41753472222222 12.9210069444444  7.25260416666667 13.0859375  L 5.46875 14.8697916666667  C 6.08506944444445 15.4427083333333  6.78385416666667 15.8854166666667  7.56510416666667 16.1979166666667  C 8.34635416666667 16.5104166666667  9.15798611111111 16.6666666666667  10 16.6666666666667  C 11.1631944444444 16.6666666666667  12.2482638888889 16.3845486111111  13.2552083333333 15.8203125  C 14.2621527777778 15.2560763888889  15.0694444444444 14.4791666666667  15.6770833333333 13.4895833333333  C 15.7725694444444 13.3420138888889  16.0026041666667 12.8342013888889  16.3671875 11.9661458333333  C 16.4366319444444 11.7664930555556  16.5668402777778 11.6666666666667  16.7578125 11.6666666666667  L 19.2578125 11.6666666666667  C 19.3706597222222 11.6666666666667  19.4683159722222 11.7078993055556  19.55078125 11.7903645833333  Z M 19.7526041666667 1.08072916666667  C 19.9175347222222 1.24565972222222  20 1.44097222222222  20 1.66666666666667  L 20 7.5  C 20 7.72569444444444  19.9175347222222 7.92100694444444  19.7526041666667 8.0859375  C 19.5876736111111 8.25086805555556  19.3923611111111 8.33333333333333  19.1666666666667 8.33333333333333  L 13.3333333333333 8.33333333333333  C 13.1076388888889 8.33333333333333  12.9123263888889 8.25086805555556  12.7473958333333 8.0859375  C 12.5824652777778 7.92100694444444  12.5 7.72569444444444  12.5 7.5  C 12.5 7.27430555555555  12.5824652777778 7.07899305555555  12.7473958333333 6.9140625  L 14.5442708333333 5.1171875  C 13.2595486111111 3.92795138888889  11.7447916666667 3.33333333333333  10 3.33333333333333  C 8.83680555555556 3.33333333333333  7.75173611111111 3.61545138888889  6.74479166666667 4.1796875  C 5.73784722222222 4.74392361111111  4.93055555555556 5.52083333333333  4.32291666666667 6.51041666666667  C 4.22743055555556 6.65798611111111  3.99739583333333 7.16579861111111  3.6328125 8.03385416666667  C 3.56336805555556 8.23350694444444  3.43315972222222 8.33333333333333  3.2421875 8.33333333333333  L 0.651041666666667 8.33333333333333  C 0.538194444444444 8.33333333333333  0.440538194444444 8.29210069444444  0.358072916666667 8.20963541666667  C 0.275607638888889 8.12717013888889  0.234375 8.02951388888889  0.234375 7.91666666666667  L 0.234375 7.82552083333333  C 0.798611111111111 5.49913194444444  1.97048611111111 3.61328125  3.75 2.16796875  C 5.52951388888889 0.72265625  7.61284722222222 0  10 0  C 11.2673611111111 0  12.5 0.240885416666667  13.6979166666667 0.72265625  C 14.8958333333333 1.20442708333333  15.9592013888889 1.88368055555555  16.8880208333333 2.76041666666667  L 18.5807291666667 1.08072916666667  C 18.7456597222222 0.915798611111109  18.9409722222222 0.833333333333333  19.1666666666667 0.833333333333333  C 19.3923611111111 0.833333333333333  19.5876736111111 0.915798611111109  19.7526041666667 1.08072916666667  Z " fill-rule="nonzero" fill="#169bd5" stroke="none" transform="matrix(1 0 0 1 559 395 )" />
  </g>
</svg>