<?xml version="1.0" encoding="utf-8"?>
<svg version="1.1" xmlns:xlink="http://www.w3.org/1999/xlink" width="20px" height="20px" xmlns="http://www.w3.org/2000/svg">
  <g transform="matrix(1 0 0 1 -26 -245 )">
    <path d="M 20 2.14285714285714  C 20 0.959375  19.040625 0  17.8571428571429 0  L 2.14285714285714 0  C 0.959375 0  0 0.959375  0 2.14285714285714  L 0 17.8571428571429  C 0 19.040625  0.959375 20  2.14285714285714 20  L 17.8571428571429 20  C 19.040625 20  20 19.040625  20 17.8571428571429  L 20 2.14285714285714  Z M 17.8571428571429 2.14285714285714  L 17.8571428571429 17.8571428571429  L 2.14285714285714 17.8571428571429  L 2.14285714285714 2.14285714285714  L 17.8571428571429 2.14285714285714  Z M 16.2591071428571 6.30825892857143  C 16.4674553571429 6.51834821428571  16.4661160714286 6.85754464285714  16.2560714285714 7.06589285714286  L 8.55120535714286 14.7089285714286  C 8.34116071428571 14.9172767857143  8.00196428571429 14.9159375  7.79361607142857 14.7058928571429  L 3.74089285714286 10.6203571428571  C 3.53254464285714 10.4103125  3.53388392857143 10.0711160714286  3.74397321428571 9.86272321428572  L 4.75821428571429 8.85665178571429  C 4.96825892857143 8.64830357142857  5.30745535714286 8.64964285714286  5.51580357142857 8.85973214285714  L 8.18508928571429 11.5506696428571  L 14.4954464285714 5.29102678571429  C 14.7054910714286 5.08267857142857  15.0446875 5.08401785714286  15.2530357142857 5.2940625  L 16.2591071428571 6.30825892857143  Z " fill-rule="nonzero" fill="#31b0e6" stroke="none" transform="matrix(1 0 0 1 26 245 )" />
  </g>
</svg>