<?xml version="1.0" encoding="utf-8"?>
<!-- Generator: Adobe Illustrator 24.3.0, SVG Export Plug-In . SVG Version: 6.00 Build 0)  -->
<svg version="1.1"
	 id="Layer_1" xmlns:cc="http://creativecommons.org/ns#" xmlns:dc="http://purl.org/dc/elements/1.1/" xmlns:inkscape="http://www.inkscape.org/namespaces/inkscape" xmlns:rdf="http://www.w3.org/1999/02/22-rdf-syntax-ns#" xmlns:sodipodi="http://sodipodi.sourceforge.net/DTD/sodipodi-0.dtd" xmlns:svg="http://www.w3.org/2000/svg"
	 xmlns="http://www.w3.org/2000/svg" xmlns:xlink="http://www.w3.org/1999/xlink" x="0px" y="0px" viewBox="0 0 100 100.8"
	 style="enable-background:new 0 0 100 100.8;" xml:space="preserve">
<style type="text/css">
	.st0{fill:#FFFFFF;}
	.st1{fill:#FCBA19;}
	.st2{fill:#333333;}
</style>
<path class="st0" d="M50,6C26.8,6,8,24.8,8,48c0,8.8,2.8,16.9,7.4,23.7L8.2,87.2c-0.5,1,0,2.2,1,2.7c0.6,0.3,1.2,0.2,1.7,0l14.9-7.4
	c0.9,0.8,2,1.7,3.2,2.4c1,0.5,2.2,0.2,2.7-0.7c0.5-1,0.2-2.2-0.7-2.7c-0.9-0.5-2.5-1.9-3.8-2.9c-0.6-0.5-1.4-0.5-2.1-0.2l-10.8,5.4
	l5.2-11.3c0.3-0.7,0.2-1.4-0.2-2C14.7,64.1,12,56.4,12,48c0-21,17-38,38-38s38,17,38,38c0,21-17,38-38,38c-4.3,0-8.5-0.6-12.3-1.9
	c-1-0.4-2.2,0.2-2.5,1.2s0.2,2.2,1.2,2.5l0,0c4.4,1.5,9,2.1,13.7,2.1c23.2,0,42-18.8,42-42S73.2,6,50,6z"/>
<path class="st1" d="M50,18c-11,0-20,8.9-20,19.8c0,6.4,2.4,9.9,4.4,12.6c2,2.7,3.6,4.6,3.6,9.6c0,1.1,0.9,2,2,2h20c1.1,0,2-0.9,2-2
	c0-5,1.6-6.8,3.6-9.6c2-2.7,4.4-6.2,4.4-12.6C70,26.9,61,18,50,18z"/>
<path class="st2" d="M50,22c8.9,0,16,7.1,16,15.8c0,5.5-1.6,7.5-3.6,10.2c-1.7,2.3-3.7,5.3-4.2,9.9H52V42.7c2.3-0.8,4-3.1,4-5.7
	c0-3.3-2.7-6-6-6s-6,2.7-6,6c0,2.6,1.7,4.8,4,5.7V58h-6.2c-0.5-4.7-2.5-7.6-4.2-9.9c-2-2.7-3.6-4.8-3.6-10.2C34,29.1,41.1,22,50,22z
	"/>
<circle class="st2" cx="50" cy="37" r="2"/>
<path class="st1" d="M41.3,66c-1.1,0.1-2,1-1.9,2.1s1,2,2.1,1.9h17c1.1,0,2-0.9,2-2c0-1.1-0.9-2-2-2c0,0,0,0-0.1,0h-17
	C41.4,66,41.4,66,41.3,66z"/>
<path class="st1" d="M45.3,74c-1.1,0.1-2,1-1.9,2.1s1,2,2.1,1.9h9c1.1,0,2-0.9,2-2c0-1.1-0.9-2-2-2c0,0,0,0-0.1,0h-9
	C45.4,74,45.4,74,45.3,74z"/>
</svg>
