<?xml version="1.0" encoding="utf-8"?>
<!-- Generator: Adobe Illustrator 25.2.0, SVG Export Plug-In . SVG Version: 6.00 Build 0)  -->
<svg version="1.1" id="Layer_1" xmlns="http://www.w3.org/2000/svg" xmlns:xlink="http://www.w3.org/1999/xlink" x="0px" y="0px"
	 viewBox="0 0 1200 1200" style="enable-background:new 0 0 1200 1200;" xml:space="preserve">
<style type="text/css">
	.st0{fill:#FFFFFF;}
	.st1{fill:#FAB919;}
</style>
<g>
	<path class="st0" d="M1102.5,787.5H1065v-600c0-5-2-9.7-5.5-13.3c-3.5-3.5-8.3-5.5-13.3-5.5H183.8c-5,0-9.7,2-13.3,5.5
		c-3.5,3.5-5.5,8.3-5.5,13.3v600h-37.5c-9.9,0-19.5,3.9-26.5,11c-7,7-11,16.6-11,26.5c0,24.9,9.9,48.7,27.5,66.3
		c17.6,17.6,41.4,27.5,66.3,27.5h862.5c24.9,0,48.7-9.9,66.3-27.5c17.6-17.6,27.5-41.4,27.5-66.3c0-9.9-3.9-19.5-11-26.5
		C1122,791.4,1112.4,787.5,1102.5,787.5L1102.5,787.5z M202.5,206.3h825v525h-825V206.3z M202.5,768.8h825v18.8H746.3
		c-5,0-9.8,1.9-13.3,5.4L701.1,825H528.9l-31.9-32.1c-3.5-3.5-8.3-5.5-13.3-5.4H202.5L202.5,768.8z M1046.3,881.3H183.8
		c-14.9,0-29.2-5.9-39.8-16.5c-10.6-10.5-16.5-24.9-16.5-39.8h348.6l31.9,32.1c3.5,3.5,8.3,5.5,13.3,5.4h187.5c5,0,9.8-1.9,13.3-5.4
		l31.9-32.1h348.6c0,14.9-5.9,29.2-16.5,39.8C1075.5,875.3,1061.2,881.3,1046.3,881.3L1046.3,881.3z"/>
	<path class="st0" d="M933.8,300H446.3c-6.7,0-12.9,3.6-16.2,9.4c-3.3,5.8-3.3,12.9,0,18.8c3.4,5.8,9.5,9.4,16.2,9.4h487.5
		c6.7,0,12.9-3.6,16.2-9.4c3.3-5.8,3.3-12.9,0-18.8C946.6,303.6,940.4,300,933.8,300z"/>
	<path class="st1" d="M333.8,412.5c-14.9,0-29.2,5.9-39.8,16.5c-10.6,10.5-16.5,24.9-16.5,39.8c0,14.9,5.9,29.2,16.5,39.8
		c10.5,10.6,24.9,16.5,39.8,16.5s29.2-5.9,39.8-16.5c10.6-10.5,16.5-24.9,16.5-39.8s-5.9-29.2-16.5-39.8
		C363,418.4,348.7,412.5,333.8,412.5z M333.8,487.5c-5,0-9.7-2-13.3-5.5c-3.5-3.5-5.5-8.3-5.5-13.3s2-9.7,5.5-13.3
		c3.5-3.5,8.3-5.5,13.3-5.5s9.7,2,13.3,5.5c3.5,3.5,5.5,8.3,5.5,13.3s-2,9.7-5.5,13.3C343.5,485.5,338.7,487.5,333.8,487.5z"/>
	<path class="st0" d="M333.8,562.5c-14.9,0-29.2,5.9-39.8,16.5c-10.6,10.5-16.5,24.9-16.5,39.8s5.9,29.2,16.5,39.8
		c10.5,10.6,24.9,16.5,39.8,16.5s29.2-5.9,39.8-16.5c10.6-10.5,16.5-24.9,16.5-39.8s-5.9-29.2-16.5-39.8
		C363,568.4,348.7,562.5,333.8,562.5z M333.8,637.5c-5,0-9.7-2-13.3-5.5c-3.5-3.5-5.5-8.3-5.5-13.3s2-9.7,5.5-13.3
		c3.5-3.5,8.3-5.5,13.3-5.5s9.7,2,13.3,5.5c3.5,3.5,5.5,8.3,5.5,13.3s-2,9.7-5.5,13.3C343.5,635.5,338.7,637.5,333.8,637.5z"/>
	<path class="st0" d="M446.3,487.5H615c6.7,0,12.9-3.6,16.2-9.4c3.3-5.8,3.3-12.9,0-18.8c-3.4-5.8-9.5-9.4-16.2-9.4H446.3
		c-6.7,0-12.9,3.6-16.2,9.4c-3.3,5.8-3.3,12.9,0,18.8C433.4,483.9,439.6,487.5,446.3,487.5z"/>
	<path class="st0" d="M652.5,600H446.3c-6.7,0-12.9,3.6-16.2,9.4c-3.3,5.8-3.3,12.9,0,18.8c3.4,5.8,9.5,9.4,16.2,9.4h206.2
		c6.7,0,12.9-3.6,16.2-9.4c3.3-5.8,3.3-12.9,0-18.8C665.4,603.6,659.2,600,652.5,600z"/>
	<path class="st1" d="M885.2,506.3l43.1-42.9c3.4-3.1,5.5-7.4,5.9-12c0.4-4.6-0.8-9.1-3.5-12.9c-2.7-3.7-6.7-6.3-11.2-7.3l-225-56.2
		c-4.3-1.3-9-0.9-13.1,0.9c-4.1,1.9-7.4,5.2-9.2,9.2c-1.9,4.1-2.2,8.7-0.9,13.1l56.2,225c1.1,4.3,3.6,8.2,7.2,10.8s8,3.9,12.5,3.5
		c4.4-0.4,8.6-2.3,11.8-5.5l43.5-43.1l61.7,61.9c3.5,3.6,8.3,5.5,13.3,5.5s9.8-2,13.3-5.5l56.2-56.2c3.6-3.5,5.5-8.3,5.5-13.3
		s-2-9.8-5.5-13.3L885.2,506.3z M877.5,611.1l-61.7-61.9c-3.5-3.6-8.3-5.5-13.3-5.5s-9.8,2-13.3,5.5l-32.8,32.1l-40.7-162.6
		l161.8,41.4l-32.8,32.8c-3.6,3.5-5.5,8.3-5.5,13.3s2,9.8,5.5,13.3l62.6,61.7L877.5,611.1z"/>
	<path class="st0" d="M333.8,262.5c-14.9,0-29.2,5.9-39.8,16.5c-10.6,10.5-16.5,24.9-16.5,39.8s5.9,29.2,16.5,39.8
		c10.5,10.6,24.9,16.5,39.8,16.5s29.2-5.9,39.8-16.5c10.6-10.5,16.5-24.9,16.5-39.8s-5.9-29.2-16.5-39.8
		C363,268.4,348.7,262.5,333.8,262.5z M333.8,337.5c-5,0-9.7-2-13.3-5.5c-3.5-3.5-5.5-8.3-5.5-13.3s2-9.7,5.5-13.3
		c3.5-3.5,8.3-5.5,13.3-5.5s9.7,2,13.3,5.5c3.5,3.5,5.5,8.3,5.5,13.3s-2,9.7-5.5,13.3C343.5,335.5,338.7,337.5,333.8,337.5z"/>
</g>
</svg>
