<?xml version="1.0" encoding="utf-8"?>
<svg version="1.1" xmlns:xlink="http://www.w3.org/1999/xlink" width="7px" height="21px" xmlns="http://www.w3.org/2000/svg">
  <defs>
    <mask fill="white" id="clip180">
      <path d="M 4.96938205386077 8.80984811366977  C 6.20840317353894 8.08549730524253  7 6.42552670259677  7 4.61464968152866  C 7 2.01905928466438  5.45122360040228 0.0270945614894653  3.52385741423623 0.0270945614894653  C 1.59649122807018 0.0270945614894653  0.0477148284724546 2.01905928466438  0.0477148284724546 4.61464968152866  C 0.0477148284724546 6.45570798628123  0.839311654933512 8.115678588927  2.07833277461169 8.80984811366977  L 1.59649122807018 19.1922097011269  C 1.56207397474578 19.6751102400784  1.73416024136775 20.0976482116609  2.14716728126048 20.3994610485056  C 2.49133981450441 20.7616364527193  3.00759861437032 20.9125428711416  3.52385741423623 20.9125428711416  C 4.07453346742653 20.9125428711416  4.55637501396804 20.7314551690348  4.90054754721198 20.3994610485056  C 5.24472008045592 20.037285644292  5.45122360040228 19.6147476727095  5.45122360040228 19.1922097011269  L 4.96938205386077 8.80984811366977  Z M 6.03631690691697 4.58446839784419  C 6.00189965359258 6.21425771680549  5.27913733378031 7.69314061734444  4.2122024807241 8.17604115629593  C 4.07453346742653 8.26658500734934  3.90244720080456 8.38731014208721  3.97128170745334 8.56839784419402  L 4.45312325399486 19.2223909848114  C 4.45312325399486 19.4336599706026  4.34987149402168 19.6449289563939  4.2122024807241 19.8260166585007  C 3.86802994748016 20.1278294953454  3.21410213431668 20.1278294953454  2.86992960107274 19.8260166585007  C 2.66342608112638 19.6449289563939  2.62900882780199 19.4336599706026  2.62900882780199 19.2223909848114  L 3.1108503743435 8.56839784419402  C 3.1108503743435 8.38731014208721  3.00759861437032 8.2062224399804  2.86992960107274 8.17604115629593  C 1.83741200134093 7.69314061734444  1.08023242820426 6.24443900048995  1.08023242820426 4.58446839784419  C 1.08023242820426 2.59250367466928  2.21600178790926 0.872170504654579  3.55827466756062 0.872170504654579  C 4.90054754721197 0.872170504654579  6.03631690691697 2.56232239098481  6.03631690691697 4.58446839784419  Z " fill-rule="evenodd" />
    </mask>
  </defs>
  <g transform="matrix(1 0 0 1 -895 -91 )">
    <path d="M 4.96938205386077 8.80984811366977  C 6.20840317353894 8.08549730524253  7 6.42552670259677  7 4.61464968152866  C 7 2.01905928466438  5.45122360040228 0.0270945614894653  3.52385741423623 0.0270945614894653  C 1.59649122807018 0.0270945614894653  0.0477148284724546 2.01905928466438  0.0477148284724546 4.61464968152866  C 0.0477148284724546 6.45570798628123  0.839311654933512 8.115678588927  2.07833277461169 8.80984811366977  L 1.59649122807018 19.1922097011269  C 1.56207397474578 19.6751102400784  1.73416024136775 20.0976482116609  2.14716728126048 20.3994610485056  C 2.49133981450441 20.7616364527193  3.00759861437032 20.9125428711416  3.52385741423623 20.9125428711416  C 4.07453346742653 20.9125428711416  4.55637501396804 20.7314551690348  4.90054754721198 20.3994610485056  C 5.24472008045592 20.037285644292  5.45122360040228 19.6147476727095  5.45122360040228 19.1922097011269  L 4.96938205386077 8.80984811366977  Z M 6.03631690691697 4.58446839784419  C 6.00189965359258 6.21425771680549  5.27913733378031 7.69314061734444  4.2122024807241 8.17604115629593  C 4.07453346742653 8.26658500734934  3.90244720080456 8.38731014208721  3.97128170745334 8.56839784419402  L 4.45312325399486 19.2223909848114  C 4.45312325399486 19.4336599706026  4.34987149402168 19.6449289563939  4.2122024807241 19.8260166585007  C 3.86802994748016 20.1278294953454  3.21410213431668 20.1278294953454  2.86992960107274 19.8260166585007  C 2.66342608112638 19.6449289563939  2.62900882780199 19.4336599706026  2.62900882780199 19.2223909848114  L 3.1108503743435 8.56839784419402  C 3.1108503743435 8.38731014208721  3.00759861437032 8.2062224399804  2.86992960107274 8.17604115629593  C 1.83741200134093 7.69314061734444  1.08023242820426 6.24443900048995  1.08023242820426 4.58446839784419  C 1.08023242820426 2.59250367466928  2.21600178790926 0.872170504654579  3.55827466756062 0.872170504654579  C 4.90054754721197 0.872170504654579  6.03631690691697 2.56232239098481  6.03631690691697 4.58446839784419  Z " fill-rule="nonzero" fill="#169bd5" stroke="none" transform="matrix(1 0 0 1 895 91 )" />
    <path d="M 4.96938205386077 8.80984811366977  C 6.20840317353894 8.08549730524253  7 6.42552670259677  7 4.61464968152866  C 7 2.01905928466438  5.45122360040228 0.0270945614894653  3.52385741423623 0.0270945614894653  C 1.59649122807018 0.0270945614894653  0.0477148284724546 2.01905928466438  0.0477148284724546 4.61464968152866  C 0.0477148284724546 6.45570798628123  0.839311654933512 8.115678588927  2.07833277461169 8.80984811366977  L 1.59649122807018 19.1922097011269  C 1.56207397474578 19.6751102400784  1.73416024136775 20.0976482116609  2.14716728126048 20.3994610485056  C 2.49133981450441 20.7616364527193  3.00759861437032 20.9125428711416  3.52385741423623 20.9125428711416  C 4.07453346742653 20.9125428711416  4.55637501396804 20.7314551690348  4.90054754721198 20.3994610485056  C 5.24472008045592 20.037285644292  5.45122360040228 19.6147476727095  5.45122360040228 19.1922097011269  L 4.96938205386077 8.80984811366977  Z " stroke-width="6" stroke="#169bd5" fill="none" transform="matrix(1 0 0 1 895 91 )" mask="url(#clip180)" />
    <path d="M 6.03631690691697 4.58446839784419  C 6.00189965359258 6.21425771680549  5.27913733378031 7.69314061734444  4.2122024807241 8.17604115629593  C 4.07453346742653 8.26658500734934  3.90244720080456 8.38731014208721  3.97128170745334 8.56839784419402  L 4.45312325399486 19.2223909848114  C 4.45312325399486 19.4336599706026  4.34987149402168 19.6449289563939  4.2122024807241 19.8260166585007  C 3.86802994748016 20.1278294953454  3.21410213431668 20.1278294953454  2.86992960107274 19.8260166585007  C 2.66342608112638 19.6449289563939  2.62900882780199 19.4336599706026  2.62900882780199 19.2223909848114  L 3.1108503743435 8.56839784419402  C 3.1108503743435 8.38731014208721  3.00759861437032 8.2062224399804  2.86992960107274 8.17604115629593  C 1.83741200134093 7.69314061734444  1.08023242820426 6.24443900048995  1.08023242820426 4.58446839784419  C 1.08023242820426 2.59250367466928  2.21600178790926 0.872170504654579  3.55827466756062 0.872170504654579  C 4.90054754721197 0.872170504654579  6.03631690691697 2.56232239098481  6.03631690691697 4.58446839784419  Z " stroke-width="6" stroke="#169bd5" fill="none" transform="matrix(1 0 0 1 895 91 )" mask="url(#clip180)" />
  </g>
</svg>