<?xml version="1.0" encoding="utf-8"?>
<!-- Generator: Adobe Illustrator 24.2.1, SVG Export Plug-In . SVG Version: 6.00 Build 0)  -->
<svg version="1.1" id="Layer_2_1_" xmlns="http://www.w3.org/2000/svg" xmlns:xlink="http://www.w3.org/1999/xlink" x="0px" y="0px"
	 viewBox="0 0 155 42" style="enable-background:new 0 0 155 42;" xml:space="preserve">
<style type="text/css">
	.st0{fill:#FDB913;}
	.st1{fill:#FFFFFF;}
	.st2{fill:#4C81AF;}
	.st3{fill:none;}
</style>
<rect x="75.2" y="40.4" class="st0" width="68.8" height="0.8"/>
<path class="st1" d="M8.6,34.8c9.7,0,23.2,5.5,33,5.5c7,0,13.8-1.9,17.7-4.6C61.7,19.5,50.5,4.4,34.4,2c-16-2.4-30.9,8.4-33.6,24.4
	c-0.2,1.4-0.4,2.9-0.4,4.4c0,1.7,0.1,3.3,0.4,4.9C3.4,35.2,6,34.9,8.6,34.8z"/>
<polygon class="st0" points="49.1,23.9 50.3,24.4 52.9,22.6 "/>
<path class="st0" d="M5.5,21.9l-3.1-1.1l0.2-0.4L6,21.6l0,0l0.5-0.3l0.2-0.1l-3.7-1.6l0.2-0.4l8.4,3.4l0.3-0.1l-8.4-4.1L3.6,18
	l8.9,4.1l0.1-0.1L4,17.2l0.2-0.4l12.4,6.8c0.1-0.2,0.3-0.5,0.4-0.7c-2.9-2.8-6-5.4-9.3-7.8c3.4,2.2,6.9,4.2,10.5,6
	c0.2-0.2,0.4-0.4,0.5-0.7L8.2,11.2l0.3-0.3l8.6,7.3l-7.9-7.9l0.3-0.3l8.9,8.6L10,9.3l0.3-0.3l7.7,8.2l-7-8.8l0.3-0.3l9,10.9
	c0.2-0.2,0.4-0.4,0.7-0.5c-1.7-3.6-3.6-7.2-5.7-10.6c2.3,3.3,4.8,6.5,7.4,9.5c0.3-0.1,0.5-0.3,0.8-0.4l0,0L17.1,4.4l0.4-0.2l5.2,10
	L18.3,3.9l0.4-0.2l5,11.3L19.5,3.4l0.4-0.2l4,10.5L20.7,3l0.4-0.1l4.2,13.4l0,0c0.3-0.1,0.6-0.2,0.9-0.3c-0.2-4-0.6-8-1.3-12
	c0.9,3.9,2,7.7,3.3,11.5l0.9-0.1l0,0l-1.1-14h0.4l1.1,11.2L29.2,1.5h0.4l0.4,12.4l0.4-12.4H31l-0.2,11.2l1-11.2h0.4l-1.1,14l0,0
	l0.9,0.1c1.3-3.8,2.4-7.6,3.3-11.5C34.6,8,34.2,11.9,34,15.9l0.8,0.3L39,2.8L39.4,3l-3.2,10.8l4-10.5l0.4,0.2l-4.2,11.6l5-11.3
	l0.4,0.2l-4.3,10.3l5.2-10L43,4.4L36.8,17l0,0c0.3,0.1,0.5,0.3,0.8,0.4c2.6-3,5.1-6.2,7.4-9.5c-2.1,3.4-3.9,6.9-5.6,10.6
	c0.2,0.2,0.5,0.4,0.7,0.6l8.9-10.8l0.3,0.3l-7,8.8l7.7-8.2l0.3,0.3l-8.3,9.2l8.9-8.6l0.3,0.3l-7.9,7.9l8.6-7.3l0.3,0.3l-10.5,9.2
	l0,0c0.2,0.2,0.4,0.4,0.5,0.6c3.6-1.8,7-3.8,10.4-6c-3.2,2.4-6.3,5-9.2,7.7c0.1,0.2,0.3,0.6,0.5,0.8L55.9,17l0.2,0.4l-9.8,5.5
	l10.2-4.7l0.2,0.4l-9.5,4.6l0.2,0.1l9.6-3.9l0.2,0.4l-9,3.8l0.2,0.1l6-2l0.9-0.6l0.3,0.2l2-0.6l0.2,0.4L56,21.5l2.4,1.9l0.8,0.4
	C55.3,7.7,39.2-2.3,23,1.6C11.8,4.3,3.1,13.2,0.7,24.5l0.1,0l0.4-0.2l0.2-0.1L5.5,21.9z"/>
<path class="st2" d="M0.5,36.3c2.7-0.5,5.4-0.8,8.1-0.9c9.7,0,23.2,5.5,33,5.5c7.2,0,14.2-2,18-4.8c0.7-4.1,0.6-8.2-0.4-12.2
	l-4.1-2.3l-4.8,3.3l-3.3-1.2c-1.1,0.5-7.8,5-7.8,5l-2.6-1.9L34,26.3l-3.7-2.7l-4.2,2.9c0,0-4.7,2.7-4.9,2.7s-5.7-4.4-5.7-4.4
	L13,22.1c-0.4,0.3-2.2,1.1-2.2,1.1h-0.1L9,22.7l-2-1.1l-6.2,2.8l-0.1,0C-0.2,28.4-0.2,32.4,0.5,36.3z"/>
<path class="st1" d="M131.2,11L131.2,11L131.2,11h0.6c0.6,0,0.7,0,0.7,1.7v6.1c0,1.4,0,1.4-0.6,1.4h-0.5h-0.1l-0.1,0
	c-0.2,0.2-0.2,0.6,0,0.8l0.1,0.1h0.1h4.4h0.1c0.2-0.1,0.2-0.3,0.2-0.5c0-0.2-0.1-0.3-0.2-0.4l-0.1,0l0,0h-0.5c-0.7,0-0.8,0-0.8-1.7
	v-2.2c0-0.1,0-0.1,0-0.2h5.5c0.2,0,0.4,0,0.6,0c0,0.1,0,0.1,0,0.2v2.6c0,1.4,0,1.4-0.7,1.4h-0.4h-0.1l-0.1,0.1
	c-0.2,0.2-0.2,0.6,0,0.8l0.1,0.1h0.1h4.3l0,0c0.2-0.1,0.2-0.3,0.2-0.5c0-0.2-0.1-0.3-0.2-0.4h-0.1h-0.1h-0.5
	c-0.7-0.1-0.7-0.1-0.7-1.6v-5.9c0-1.6,0-1.6,0.7-1.7h0.4c0.2-0.1,0.4-0.4,0.3-0.6c0-0.2-0.2-0.3-0.4-0.4h-4.2h-0.1
	c-0.2,0.1-0.2,0.3-0.2,0.5c0,0.2,0.1,0.3,0.2,0.4h0.1h0.1h0.4c0.8,0,0.8,0,0.8,1.7v1.9c0,0.1,0,0.1,0,0.2h-5.5c-0.2,0-0.4,0-0.6,0
	c0-0.1,0-0.1,0-0.2v-1.9c0-1.6,0-1.6,0.7-1.7h0.4c0.2-0.1,0.4-0.4,0.3-0.6c0-0.2-0.2-0.3-0.4-0.4h-4.3h-0.1
	c-0.2,0.1-0.2,0.3-0.2,0.5C131,10.7,131.1,10.9,131.2,11z M87.8,20.2h-0.7l0,0l-0.1,0l0,0l0,0c-0.2,0.2-0.2,0.6,0,0.8l0.1,0.1h0.1h5
	l0.1-0.1c0.2-0.2,0.2-0.6,0-0.8l0,0l0,0l-0.1,0l0,0h-0.7c-0.7,0-0.7,0-0.7-0.9v-2.8c0-0.2,0-0.3,0-0.5h0.2c1.2,0,1.2,0,1.7,1l2,3.6
	v0.1c0.2,0.4,0.5,0.6,0.9,0.6h2.3l0.1-0.1c0.3-0.3,0.3-0.6,0.1-0.8l-0.1-0.1h-0.1H97c-0.4-0.1-0.5-0.4-0.8-0.8l-0.1-0.1l-1.6-2.8
	l-0.1-0.1v-0.1c-0.1-0.2-0.3-0.5-0.5-0.7c1.4-0.2,2.4-1.4,2.5-2.8c0-2.1-2.1-2.8-3.9-2.8h-5.3c-0.1,0-0.2,0-0.3,0.1
	c-0.1,0.1-0.1,0.2-0.1,0.3v0.1c0,0.1,0,0.3,0.1,0.4c0.1,0.1,0.2,0.1,0.4,0.1h0.3c0.9,0.1,0.9,0.1,0.9,1v7.3
	C88.5,20.1,88.5,20.1,87.8,20.2z M90.5,11.9c0-0.9,0-0.9,1.2-0.9c1.6,0,2.4,0.6,2.4,2c0,0.6-0.3,1.2-0.7,1.5
	c-0.6,0.3-1.2,0.5-1.9,0.5h-0.8c-0.2,0-0.3,0-0.3,0L90.5,11.9z M134.3,29.9c1.2-0.5,1.8-2,1.3-3.2c-0.3-0.6-0.8-1.1-1.4-1.3
	c-1-0.3-2-0.5-3-0.5h-0.3c-1.6,0-2.9,0-4,0.1l0,0c-0.1,0-0.3,0.1-0.3,0.3c-0.1,0.2,0,0.5,0.1,0.7l0,0h0.1h0.6c0.5,0,0.6,0.1,0.6,1.3
	v6.1c0,1.6,0.1,1.7-0.7,1.8H127c-0.1,0-0.2,0-0.2,0.1c-0.1,0.1-0.2,0.3-0.2,0.4c0,0.2,0.1,0.3,0.2,0.4h0.1h0.1h4.4
	c3.3,0,5.2-1.3,5.2-3.5C136.5,31.4,135.6,30.2,134.3,29.9L134.3,29.9z M130.3,26.2L130.3,26.2c0.3-0.1,0.5-0.1,0.7-0.1h0.1
	c1.1,0,2.5,0.5,2.5,1.9c0,1-0.4,1.7-2.7,1.8h-0.7v-3.4C130.3,26.3,130.3,26.2,130.3,26.2L130.3,26.2z M131.8,35.3h-0.2
	c-0.4,0-0.7-0.1-1-0.4c-0.3-0.5-0.4-1-0.3-1.5v-2.5c0.3-0.1,0.6-0.1,0.8-0.1c2.8,0,3.4,1.3,3.4,2.5C134.5,34.9,133,35.3,131.8,35.3
	L131.8,35.3z M104,12.3L104,12.3L104,12.3c0.1,0.2,0.3,0.3,0.5,0.3c0.1,0,0.2,0,0.3-0.1l0,0l0,0v-0.1l0,0l0,0c0.1-0.4,0.4-0.7,0.7-1
	c0.6-0.3,1.2-0.4,1.9-0.3h1.1V19c0,1.1,0,1.1-0.6,1.2h-0.6l-0.2,0.1H107l0,0c-0.2,0.2-0.2,0.6,0,0.8c0,0,0,0,0,0l0.1,0h0.1h4.6h0.1
	c0.2-0.1,0.2-0.3,0.2-0.5c0-0.2-0.1-0.3-0.2-0.4l-0.1-0.1l0,0h-0.5c-0.7,0-0.7,0-0.7-1.6v-0.1v-7.2v-0.3h1.5
	c0.6-0.1,1.2,0.1,1.8,0.4c0.2,0.3,0.3,0.6,0.3,0.9v0.1l0.1,0.1c0.1,0.1,0.3,0.2,0.4,0.2c0.2,0,0.3-0.1,0.4-0.2l0.1-0.1v-0.1
	c0-0.8,0.1-1.6,0.2-2.4V9.8l0.1-0.2h-0.8l-0.1,0.1v0.1c-0.2,0.3-0.2,0.3-1,0.3h-6.8c-0.8,0-1-0.1-1.1-0.3l0,0l0,0l-0.1-0.1l0,0l0,0
	c-0.2-0.1-0.4-0.1-0.5,0l0,0l0,0l-0.1,0.1l0,0l0,0c-0.1,0.8-0.3,1.6-0.6,2.3l0,0v0.1L104,12.3z M116.7,20.2h-0.6l-0.1,0.1
	c-0.2,0.2-0.2,0.6,0,0.8c0,0,0,0,0,0l0.1,0.1v0h4.6l0,0l0.1,0c0.1-0.1,0.2-0.3,0.2-0.5c0-0.2-0.1-0.3-0.2-0.4l0,0h-0.5
	c-0.8,0-0.8,0-0.8-1.7v-5.8c0-1.7,0-1.7,0.8-1.8h0.5c0.2-0.1,0.4-0.4,0.3-0.6c0-0.2-0.2-0.3-0.4-0.4h-4.6l0,0
	c-0.2,0.1-0.2,0.3-0.2,0.5c0,0.2,0.1,0.3,0.2,0.4l0,0h0.5c0.8,0,0.8,0,0.8,1.8v5.8C117.5,20.1,117.5,20.1,116.7,20.2L116.7,20.2z
	 M99.3,20.2h-0.6l-0.1,0.1c-0.2,0.2-0.2,0.6,0,0.8c0,0,0,0,0,0l0,0l0,0l0.1,0.1l0,0h4.5l0,0l0.1,0c0.2-0.1,0.2-0.3,0.2-0.5
	c0-0.2-0.1-0.3-0.2-0.4l0,0h-0.6c-0.8,0-0.8,0-0.8-1.7v-5.7c0-1.7,0-1.7,0.8-1.8h0.5c0.2-0.1,0.4-0.4,0.3-0.6c0-0.2-0.2-0.3-0.4-0.4
	h-4.5h-0.1c-0.2,0.1-0.2,0.3-0.2,0.5c0,0.2,0.1,0.3,0.2,0.4l0,0h0.5c0.8,0,0.8,0,0.8,1.8v5.8C100.1,20.1,100.1,20.1,99.3,20.2
	L99.3,20.2z M122.3,20.8L122.3,20.8c1,0.5,2,0.7,3,0.7h0.2c2.6,0,4.3-1.3,4.4-3.2c0-1.4-0.8-2.4-2.5-3.4l-1.5-0.8
	c-0.7-0.4-1.4-1-1.4-1.7c0-1,0.7-1.5,2-1.5h0.3c1,0,1.8,0.7,2,1.6v0.1l0.1,0.1c0.1,0.1,0.3,0.1,0.4,0.1c0.1,0,0.3,0,0.4-0.1l0,0
	l0.1-0.1v-0.2c0-0.7-0.1-1.4-0.4-2.1v-0.1v-0.1h-0.2c-0.2,0-0.4,0-0.6-0.1c-0.6-0.1-1.2-0.2-1.8-0.2l0,0c-2.9,0-4.2,1.5-4.2,3.1
	c0.1,1.3,1,2.5,2.2,3l1.8,1c1.3,0.7,1.4,1.4,1.4,2s-0.6,1.5-2.1,1.5h-0.2c-1.3,0-2.5-0.9-2.9-2.2c-0.1-0.2-0.2-0.3-0.4-0.3l0,0
	c-0.2,0-0.4,0.1-0.5,0.2l-0.1,0.1v0.1C121.9,19.2,122.1,20,122.3,20.8L122.3,20.8z M154.5,35.4L154.5,35.4l-0.7-0.1
	c-0.4-0.1-0.6-0.7-0.8-1.2l-0.1-0.2l-3.6-8.6c-0.1-0.2-0.2-0.4-0.5-0.4c-0.4,0-0.5,0.4-0.6,0.5l-3.5,8.5c-0.2,0.4-0.4,0.8-0.6,1.2
	c-0.1,0.1-0.3,0.1-0.4,0.2h-0.8l-0.1,0.1c-0.2,0.2-0.2,0.6,0,0.8l0.1,0.1h3.8h0.1c0.2-0.2,0.2-0.6,0-0.8h-0.1h-0.1h-0.6
	c-0.3,0-0.5-0.2-0.5-0.3c0-0.3,0.1-0.6,0.2-0.8l0.5-1.3c0-0.1,0.1-0.2,0.1-0.3c0.1-0.2,0.1-0.2,0.5-0.2h2.4c0.5,0,0.5,0,0.7,0.4
	c0,0.1,0.1,0.2,0.1,0.3l0.6,1.3c0.1,0.2,0.2,0.4,0.2,0.6c0,0.1-0.1,0.3-0.6,0.3h-0.6l-0.1,0.1c-0.2,0.2-0.2,0.6,0,0.8c0,0,0,0,0,0
	l0.1,0.1h0.1h4.5l0.1-0.1c0.3-0.2,0.3-0.5,0.2-0.8C154.6,35.5,154.5,35.5,154.5,35.4L154.5,35.4z M149.3,31.4h-2.4
	c0.4-1,0.9-2.4,1.2-3C148.4,29,149,30.3,149.3,31.4C149.4,31.3,149.4,31.3,149.3,31.4L149.3,31.4z M110.9,25.2L110.9,25.2h-0.1h-4
	l-0.1,0.1c-0.2,0.2-0.2,0.6,0,0.9l0.1,0.1h0.1h0.5c0.2,0,0.4,0,0.5,0.1c0.2,1.7,0.2,3.4,0.2,5.1c0,2.9-1.6,4-3.1,4
	c-2.2,0-3.2-1.2-3.2-4v-3.9c0-1.3,0-1.3,0.7-1.4h0.4l0,0h0.1c0.2-0.1,0.3-0.4,0.2-0.6c0-0.2-0.2-0.3-0.4-0.3h-4.1h-0.1
	c-0.2,0.1-0.2,0.3-0.2,0.5c0,0.2,0.1,0.3,0.2,0.4l0,0h0.1h0.4c0.7,0,0.7,0,0.7,1.6v3.9c0,2,0.5,3.2,1.4,4c0.9,0.6,1.9,0.9,3,1h0.5
	c1.2,0,2.4-0.5,3.3-1.3c1-1.1,1.4-2.6,1.3-4c0,0,0-3.9,0.2-5c0.1-0.1,0.3-0.2,0.5-0.2h0.5h0.1h0.1h0.1c0.1-0.1,0.2-0.3,0.2-0.4
	C111,25.5,111,25.3,110.9,25.2L110.9,25.2z M125.8,35.3H125c-0.2,0-0.4,0-0.6-0.1c-0.1-0.1-0.1-0.1-0.2-0.4l0,0c0-0.2,0-0.4,0-0.5
	s0-7.1,0-7.2c0-0.4,0-0.7,0.1-0.9s0.3-0.1,0.4-0.1h0.7h0.1c0.1-0.1,0.2-0.2,0.2-0.3c0,0,0-0.5-0.1-0.6h-0.1h-2.6
	c-0.3,0-0.6,0.1-0.7,0.3l-3.7,7.7l-3.3-7.6c-0.1-0.3-0.3-0.5-0.6-0.5H112c-0.1,0-0.3,0.1-0.3,0.2c0,0,0,0,0,0c0,0.2,0,0.7,0.2,0.7
	h0.8c0.3,0,0.4,0,0.5,0.1s0.1,0.3,0,0.7l-0.6,7.5c0,0.8-0.1,0.9-0.7,1h-0.8l-0.1,0c-0.2,0.2-0.2,0.6-0.1,0.9l0.1,0.1h3.8h0.1l0,0
	c0.2-0.2,0.2-0.6,0.1-0.9l-0.1-0.1h-0.8c-0.3,0-0.5-0.1-0.7-0.3c-0.2-0.4-0.3-0.8-0.2-1.2l0.5-6.4l3.4,8.4V36
	c0.1,0.2,0.2,0.4,0.4,0.4c0.2,0,0.4-0.1,0.4-0.3l0,0l0,0l0,0l3.9-8.7v6.9c0,0.2,0,0.4,0,0.5l0,0c0,0.3-0.1,0.3-0.2,0.3
	c-0.2,0.1-0.4,0.2-0.6,0.2h-0.8l-0.1,0.1c-0.2,0.3-0.2,0.6,0,0.9l0.1,0.1h5l0.1-0.1C125.9,36,125.9,35.7,125.8,35.3L125.8,35.3z
	 M75.2,9.3L75.2,9.3h0.8c0.6,0,0.7,0,0.7,1.5l0.1,7.2c0,1.9,0,1.9-0.9,2l-0.4,0.1h-0.1l0,0c-0.2,0.2-0.2,0.6,0,0.9l0,0l0,0h0.1l0,0
	h4.9c3.7,0,5.8-1.4,5.8-4c0-1.7-1.2-3.1-2.9-3.4c1.1-0.4,1.8-1.4,1.8-2.6c0-1.2-0.7-2.2-1.8-2.6c-1-0.4-2.1-0.6-3.1-0.6h-0.5
	c-1.9,0-3.3,0.1-4.5,0.2c-0.2,0-0.3,0.1-0.3,0.3c-0.1,0.2,0,0.5,0.2,0.7L75.2,9.3z M83.7,17.6c0,1.9-1.6,2.3-3,2.3h-0.2
	c-0.4,0-0.9-0.2-1.2-0.4c-0.3-0.5-0.4-1.2-0.4-1.8v-2.8c0,0,0-0.1,0-0.1c0.3-0.1,0.6-0.1,0.9-0.1C83.2,14.7,83.7,16.5,83.7,17.6z
	 M78.9,9.3L78.9,9.3c0.2-0.1,0.5-0.1,0.7-0.1h0.2c1.3,0,2.8,0.6,2.8,2.2c0,1.2-0.5,2-3,2.1h-0.4c-0.1,0-0.2,0-0.3,0v-0.2V9.5
	C78.9,9.5,78.9,9.4,78.9,9.3z M99.1,33.5c-0.1-0.1-0.2-0.1-0.4-0.1c-0.1,0-0.2,0-0.3,0.1l0,0v0.1c-0.2,0.6-0.6,1.1-1.1,1.5
	c-0.6,0.2-1.1,0.2-1.7,0.2H95c-0.5,0.1-1.1,0-1.5-0.2c-0.2-0.2-0.3-0.5-0.3-1.5v-5.6c0-1.6,0.1-1.6,0.8-1.7h0.5l0,0
	c0.2-0.1,0.3-0.4,0.3-0.6c0-0.2-0.2-0.4-0.4-0.4h-4.5h-0.1c-0.1,0.1-0.2,0.3-0.2,0.5c0,0.2,0.1,0.3,0.2,0.4l0,0h0.5
	c0.9,0,0.9,0,0.9,1.7v5.8c0,1.6,0,1.6-0.8,1.7h-0.6l-0.1,0.1c-0.2,0.2-0.2,0.6,0,0.8l0.1,0.1h0.1h8.6l0.1-0.1v0
	c0.3-0.7,0.6-1.5,0.8-2.3C99.3,33.6,99.2,33.5,99.1,33.5z M76.6,32.5c-0.1,0-0.2,0-0.3,0.1h-0.1l-0.1,0.1c-0.5,1.6-2,2.6-3.6,2.6
	h-0.2c-3.3,0-5.6-2.5-5.6-6c0-4.1,2.7-5.6,5.2-5.6c2.1,0,3.3,0.9,3.7,2.6v0.1l0.1,0.1c0.1,0.1,0.3,0.2,0.5,0.2
	c0.2,0,0.3-0.1,0.5-0.2l0,0l0.1-0.1v-0.1v0c-0.2-1.2-0.3-2.4-0.3-2.8v-0.3h-0.4c-0.1,0-0.3,0-0.4-0.1c-1.2-0.3-2.3-0.5-3.5-0.5H72
	c-1.9,0-3.7,0.6-5.2,1.7c-1.6,1.3-2.6,3.3-2.5,5.4c-0.1,2.2,1,4.3,2.9,5.6c1.4,0.9,3,1.4,4.7,1.3h0.3c1.1,0,2.1-0.2,3.2-0.5
	c0.2-0.1,0.4-0.1,0.7-0.2h0.1l0.1-0.1c0.5-0.9,0.9-1.8,1-2.8V33v-0.1C77,32.7,76.8,32.6,76.6,32.5z M141.2,26.2h0.5
	c0.2-0.1,0.4-0.4,0.3-0.6c0-0.2-0.2-0.4-0.4-0.4h-4.4h-0.1c-0.2,0.1-0.2,0.3-0.2,0.5c0,0.2,0.1,0.3,0.2,0.4l0,0h0.5
	c0.8,0,0.8,0,0.8,1.8v5.7c0,1.6,0,1.6-0.8,1.7h-0.5v0.1c-0.2,0.2-0.2,0.6,0,0.8c0,0,0,0,0,0l0.1,0.1h0.1h4.5h0.1
	c0.1-0.1,0.2-0.3,0.2-0.5c0-0.2-0.1-0.3-0.2-0.4l0,0h-0.5c-0.8,0-0.8,0-0.8-1.7v-5.7C140.4,26.2,140.5,26.2,141.2,26.2z M88.3,26.6
	c-1.2-1.2-2.9-1.9-4.6-1.8h-0.3c-3.3,0-6,2.7-6,6c0,2.8,2.2,5.7,6.3,5.7h0.2c3.3,0,5.9-2.6,5.9-5.9c0,0,0,0,0,0
	C89.9,29.1,89.3,27.7,88.3,26.6z M83.9,35.4c-1.6,0-4.2-1.1-4.2-5.2c0-3.2,2-4.4,3.7-4.4c3.1,0,4.2,2.8,4.2,5.2v0.1
	C87.5,33.2,86.5,35.4,83.9,35.4z"/>
<rect class="st3" width="155" height="42"/>
</svg>
