<?xml version="1.0" encoding="utf-8"?>
<!-- Generator: Adobe Illustrator 24.3.0, SVG Export Plug-In . SVG Version: 6.00 Build 0)  -->
<svg version="1.1" id="Layer_1" xmlns="http://www.w3.org/2000/svg" xmlns:xlink="http://www.w3.org/1999/xlink" x="0px" y="0px"
	 viewBox="0 0 100 96.4" style="enable-background:new 0 0 100 96.4;" xml:space="preserve">
<style type="text/css">
	.st0{fill:#FFFFFF;}
</style>
<g>
	<g>
		<path class="st0" d="M86.2,86.5H13.8c-3.2,0-6-1.6-7.6-4.4c-1.6-2.7-1.6-6,0-8.7l36.2-62.8C44,7.9,46.8,6.2,50,6.2l0,0
			c3.2,0,6,1.6,7.6,4.4l36.2,62.8c1.6,2.7,1.6,6,0,8.7C92.2,84.9,89.4,86.5,86.2,86.5z M11.9,76.7c-0.6,1-0.2,1.9,0,2.2
			c0.2,0.3,0.8,1.1,1.9,1.1h72.5c1.1,0,1.7-0.8,1.9-1.1c0.2-0.3,0.6-1.2,0-2.2L51.9,13.9c-0.6-1-1.5-1.1-1.9-1.1s-1.3,0.1-1.9,1.1
			L11.9,76.7z"/>
		<path class="st0" d="M50,62.7c-1.8,0-3-1.5-3-3.3V31.9c0-1.8,1.2-3.3,3-3.3s3,1.5,3,3.3v27.5C53,61.2,51.8,62.7,50,62.7z"/>
		<circle class="st0" cx="50" cy="71.2" r="3.9"/>
	</g>
</g>
</svg>
