<?xml version="1.0" encoding="utf-8"?>
<!-- Generator: Adobe Illustrator 24.1.3, SVG Export Plug-In . SVG Version: 6.00 Build 0)  -->
<svg version="1.1" id="Layer_1" xmlns="http://www.w3.org/2000/svg" xmlns:xlink="http://www.w3.org/1999/xlink" x="0px" y="0px"
	 viewBox="0 0 100 96.8" style="enable-background:new 0 0 100 96.8;" xml:space="preserve">
<style type="text/css">
	.st0{fill:#245079;}
	.st1{fill:#FCBA19;}
</style>
<path class="st0" d="M51.5,13.6c-4.7,4.7-6.8,10.9-6.4,17c-2.1-0.5-4.2-0.7-6.3-0.7C22.9,29.9,10,42.7,10,58.4s12.9,28.5,28.8,28.5
	c5.9,0,11.6-1.8,16.4-5.1c2.3,1.5,10.6,6,16.7-0.6c0.2-0.2,0.3-0.6,0.2-0.9c-0.1-0.3-0.3-0.6-0.6-0.7c-0.1,0-8.5-3.5-7.2-8
	c1.5-3.2,2.8-7.2,3.1-10.3c0-0.2,0.7-5.1-0.4-10c6.1,0.1,12.1-2.2,16.5-6.7c4.2-4.2,6.5-9.8,6.4-15.8c-0.1-5.9-2.4-11.5-6.7-15.7
	C74.4,4.7,60.2,4.8,51.5,13.6z M65.5,61.1c-0.3,2.9-1.4,6.7-2.9,9.7c0,0,0,0.1-0.1,0.1c-1.6,5,4.2,8.5,7,9.9
	c-5.8,4.7-13.3-0.8-13.7-1c-0.4-0.3-0.8-0.3-1.2,0c-4.6,3.3-10.1,5.1-15.8,5.1C24,84.9,12,73,12,58.4s12-26.5,26.8-26.5
	c2.2,0,4.4,0.3,6.5,0.8c0.7,4.3,2.7,8.5,6,11.9c0.1,0.1,0.3,0.3,0.4,0.4c0.5,0.6,0.7,1.2,0.6,1.8c-0.3,1.3-2.1,2.3-2.8,2.6
	c-0.4,0.2-0.6,0.5-0.6,0.9s0.2,0.8,0.6,0.9c2.1,1,4,1.4,5.6,1.4c3.1,0,5.1-1.3,6-2.1c1.2,0.4,2.5,0.6,3.8,0.8
	C66.2,55.9,65.5,61,65.5,61.1z M82.1,43.3c-5.5,5.5-13.5,7.4-20.9,5.1c-0.4-0.1-0.8,0-1,0.3c-0.1,0.1-2.9,2.9-8,1.4
	c0.9-0.7,1.8-1.6,2.1-2.8c0.2-0.8,0.2-2.1-1-3.6c0,0,0-0.1-0.1-0.1c-0.1-0.1-0.3-0.3-0.4-0.4C45.1,35.2,45.2,22.9,53,15
	c7.9-8,20.9-8.1,28.9-0.3C85.8,18.5,88,23.6,88,29C88,34.4,86,39.5,82.1,43.3z"/>
<path class="st0" d="M76.6,24h-18c-0.6,0-1,0.4-1,1s0.4,1,1,1h18c0.6,0,1-0.4,1-1S77.1,24,76.6,24z"/>
<path class="st0" d="M76.6,33.5h-18c-0.6,0-1,0.4-1,1s0.4,1,1,1h18c0.6,0,1-0.4,1-1S77.1,33.5,76.6,33.5z"/>
<path class="st1" d="M53.2,65.3l-3.8-2.5c-1.3-0.9-3-0.9-4.3-0.2l-3.2,1.5c-0.1,0.1-0.3,0.1-0.4,0l-0.6-0.3c-2.1-1-5.2-2.6-7.5-7.7
	c-0.1-0.1-0.1-0.3,0.1-0.5l1.4-2.8c0.8-1.3,0.8-2.8,0.1-4.1l-2.5-4.4c-1.1-1.9-3.4-2.6-5.3-1.6c-2.8,1.4-4.2,3.7-4,6.4
	c0,1.4-0.2,23,24.2,25.1c0.1,0,0.7,0.1,1.6,0.1c1.6,0,3.9-0.4,4.8-2.3l0.8-1.4C55.5,68.9,55,66.5,53.2,65.3z M52.7,69.7l-0.9,1.5
	c-0.8,1.7-4.2,1.2-4.4,1.1C24.3,70.4,25,50.1,25.1,49.2c0,0,0-0.1,0-0.1c-0.2-2,0.8-3.5,2.9-4.5c0.3-0.1,0.6-0.2,0.9-0.2
	c0.7,0,1.4,0.4,1.8,1l2.5,4.4c0.4,0.6,0.4,1.4-0.1,2.1l-1.4,2.8c-0.4,0.7-0.5,1.5-0.1,2.3c2.6,5.7,6.2,7.5,8.4,8.6l0.5,0.3
	c0.8,0.4,1.6,0.4,2.3,0l3.2-1.5c0.7-0.4,1.6-0.4,2.2,0.1l3.8,2.5C53,67.6,53.3,68.8,52.7,69.7z"/>
</svg>
