<?xml version="1.0" encoding="utf-8"?>
<!-- Generator: Adobe Illustrator 24.1.2, SVG Export Plug-In . SVG Version: 6.00 Build 0)  -->
<svg version="1.1" id="Layer_1" xmlns="http://www.w3.org/2000/svg" xmlns:xlink="http://www.w3.org/1999/xlink" x="0px" y="0px"
	 viewBox="0 0 70 87.5" style="enable-background:new 0 0 70 87.5;" xml:space="preserve">
<style type="text/css">
	.st0{fill:#FFFFFF;}
	.st1{fill:#FCBA19;}
</style>
<g>
	<g>
		<path class="st0" d="M8.8,8.6v64h50v-64H8.8z M56.8,70.6h-46v-60h46V70.6z"/>
	</g>
	<g>
		<rect x="15.8" y="17.6" class="st0" width="21" height="2"/>
	</g>
	<g>
		<rect x="15.8" y="26.6" class="st0" width="21" height="2"/>
	</g>
	<g>
		<rect x="15.8" y="35.6" class="st0" width="13" height="2"/>
	</g>
	<g>
		<path class="st1" d="M25.8,53.2h-1.1v-5.4h3.6v-2h-3.6v-2.2h-2v2.2h-0.4c-2.5,0-4.6,2.1-4.6,4.6v0.2c0,2.5,2.1,4.6,4.6,4.6h0.4
			v5.4h-3.6v2h3.6v3h2v-3h1.1c2.2,0,3.9-1.7,3.9-3.9v-1.6C29.8,54.9,28,53.2,25.8,53.2z M22.3,53.2c-3.5,0-3.5-5.4,0-5.4h0.4v5.4
			H22.3z M27.8,58.7c0,2.3-2.9,1.9-3,1.9v-5.4h1.1C28.3,55.2,27.7,58.3,27.8,58.7z"/>
	</g>
	<g>
		<polygon class="st0" points="51.5,15.6 50,14.2 45.3,18.9 44,17.4 42.5,18.8 45.3,21.7 		"/>
	</g>
	<g>
		<polygon class="st0" points="51.5,23.6 50,22.2 45.3,26.9 44,25.4 42.5,26.8 45.3,29.7 		"/>
	</g>
	<g>
		<polygon class="st0" points="51.5,31.6 50,30.2 45.3,34.9 44,33.4 42.5,34.8 45.3,37.7 		"/>
	</g>
	<g>
		<rect x="39.8" y="49.6" class="st0" width="13" height="2"/>
	</g>
	<g>
		<path class="st0" d="M33.8,66.6h19v-8h-19V66.6z M35.8,60.6h15v4h-15V60.6z"/>
	</g>
</g>
</svg>
