<?xml version="1.0" encoding="utf-8"?>
<!-- Generator: Adobe Illustrator 24.2.2, SVG Export Plug-In . SVG Version: 6.00 Build 0)  -->
<svg version="1.1" id="Layer_1" xmlns="http://www.w3.org/2000/svg" xmlns:xlink="http://www.w3.org/1999/xlink" x="0px" y="0px"
	 viewBox="0 0 100 101.3" style="enable-background:new 0 0 100 101.3;" xml:space="preserve">
<style type="text/css">
	.st0{fill:#245079;}
	.st1{fill:#FCBA19;}
</style>
<path class="st0" d="M34.7,87.6C34.7,87.6,34.7,87.6,34.7,87.6c0-0.9,0.8-1.7,1.7-1.7c0.9,0,1.7,0.8,1.7,1.7c0,0.2,0,0.3,0,0.5
	c0.1,2.8,2.5,5,5.4,4.9c2.8-0.1,5-2.5,4.9-5.4V49c0-0.9,0.8-1.7,1.7-1.7s1.7,0.8,1.7,1.7v38.6c0,4.7-3.8,8.5-8.5,8.5
	C38.5,96.1,34.7,92.3,34.7,87.6z"/>
<path class="st1" d="M0,54.2C0,28.5,20.9,7.6,46.6,7.6h6.8c25.7,0,46.6,20.9,46.6,46.6v1.7h-3.3l-0.5-1c-0.9-1.9-2.4-3.5-4.4-4.4
	c-4.3-1.9-9.4,0-11.3,4.4l-0.5,1h-2.7l-0.5-1c-0.9-1.9-2.4-3.5-4.4-4.4c-4.3-1.9-9.4,0-11.3,4.4l-0.5,1h-2.7l-0.4-1
	c-0.9-2-2.4-3.5-4.4-4.4c-4.3-1.9-9.4,0.1-11.3,4.4l-0.4,1h-2.7l-0.5-1C37.5,53,36,51.4,34,50.5c-4.3-1.9-9.4,0-11.3,4.4l-0.4,1
	h-2.7l-0.4-1c-0.9-1.9-2.4-3.5-4.4-4.4c-4.3-1.9-9.4,0-11.3,4.4l-0.4,1H0L0,54.2z M78.7,51.3c0.2-0.3,0.4-0.6,0.7-0.8
	c4.4-4.9,12-5.4,16.9-1C93.9,27.6,75.4,11,53.4,11h-6.8C24.7,11,6.3,27.4,3.7,49.1C3.8,49,4,48.9,4.2,48.8c5.3-4,12.8-2.8,16.8,2.5
	c0.7-0.9,1.5-1.8,2.5-2.5c5.3-4,12.8-2.8,16.8,2.5c0.7-0.9,1.5-1.8,2.5-2.5c5.3-4,12.8-2.8,16.8,2.5c2.3-3.1,5.8-4.9,9.6-4.9
	C72.9,46.4,76.5,48.2,78.7,51.3z"/>
<path class="st1" d="M49.6,3.9c1.7,0,3.1,1.4,3.1,3.1v1.5l0,0h-6.1l0,0V6.9c0,0,0,0,0,0C46.5,5.2,47.9,3.9,49.6,3.9L49.6,3.9
	C49.6,3.9,49.6,3.9,49.6,3.9z"/>
<path class="st1" d="M78.7,55c-0.9,0-1.7-0.8-1.7-1.7c0-13.5-4.7-24.9-14.2-34c-4.2-4.1-9.1-7.4-14.4-9.8l0,0
	c-0.9-0.3-1.3-1.3-1-2.2c0.3-0.9,1.3-1.3,2.2-1c5.7,2.5,10.9,6,15.4,10.4c10,9.5,15.6,22.8,15.4,36.6l0,0C80.4,54.2,79.7,55,78.7,55
	C78.7,55,78.7,55,78.7,55z"/>
<path class="st1" d="M19.4,53.3C19.3,39.6,24.9,26.5,34.8,17c4.5-4.4,9.7-8,15.4-10.7c0.1,0,0.1-0.1,0.2-0.1
	c0.9-0.3,1.9,0.2,2.2,1.1c0.3,0.9-0.2,1.9-1.1,2.2c-0.3,0.1-28.7,12.3-28.7,43.8c0,0.9-0.8,1.7-1.7,1.7C20.2,55,19.5,54.2,19.4,53.3
	z"/>
<path class="st1" d="M59.6,54.5C59.6,54.5,59.6,54.5,59.6,54.5c-0.9-0.1-1.7-0.9-1.6-1.8c0-0.3,1.5-30.4-9.6-42.7
	c-0.6-0.7-0.5-1.7,0.1-2.3c0.7-0.7,1.8-0.6,2.4,0c12,13.3,10.5,43.8,10.5,45.1C61.3,53.8,60.6,54.6,59.6,54.5L59.6,54.5z"/>
<path class="st1" d="M38.7,52.9c-0.1-1.3-1.5-31.8,10.5-45.1c0,0,0-0.1,0.1-0.1c0.7-0.7,1.7-0.7,2.4,0c0.7,0.7,0.7,1.7,0,2.4
	c-11.1,12.3-9.6,42.4-9.6,42.7c0.1,0.9-0.7,1.7-1.6,1.8h-0.1C39.5,54.5,38.7,53.8,38.7,52.9z"/>
</svg>
