<!-- Generator: Adobe Illustrator 24.1.2, SVG Export Plug-In  -->
<svg version="1.1" xmlns="http://www.w3.org/2000/svg" xmlns:xlink="http://www.w3.org/1999/xlink" x="0px" y="0px" width="50px"
	 height="64px" viewBox="0 0 50 64" style="overflow:visible;enable-background:new 0 0 50 64;" xml:space="preserve">
<style type="text/css">
	.st0{fill:#FFFFFF;}
	.st1{fill:#FCBA19;}
</style>
<defs>
</defs>
<g>
	<g>
		<path class="st0" d="M0,0v64h50V0H0z M48,62H2V2h46V62z"/>
	</g>
	<g>
		<rect x="7" y="9" class="st0" width="21" height="2"/>
	</g>
	<g>
		<rect x="7" y="18" class="st0" width="21" height="2"/>
	</g>
	<g>
		<rect x="7" y="27" class="st0" width="13" height="2"/>
	</g>
	<g>
		<path class="st1" d="M17.1,44.6H16v-5.4h3.6v-2H16V35h-2v2.2h-0.4c-2.5,0-4.6,2.1-4.6,4.6V42c0,2.5,2.1,4.6,4.6,4.6H14V52h-3.6v2
			H14v3h2v-3h1.1c2.2,0,3.9-1.7,3.9-3.9v-1.6C21,46.3,19.2,44.6,17.1,44.6z M13.6,44.6c-3.5,0-3.5-5.4,0-5.4H14v5.4H13.6z M19,50.1
			c0,2.3-2.9,1.9-3,1.9v-5.4h1.1C19.6,46.6,18.9,49.7,19,50.1z"/>
	</g>
	<g>
		<polygon class="st0" points="42.7,7 41.3,5.6 36.6,10.3 35.2,8.8 33.8,10.2 36.6,13.1 		"/>
	</g>
	<g>
		<polygon class="st0" points="42.7,15 41.3,13.6 36.6,18.3 35.2,16.8 33.8,18.2 36.6,21.1 		"/>
	</g>
	<g>
		<polygon class="st0" points="42.7,23 41.3,21.6 36.6,26.3 35.2,24.8 33.8,26.2 36.6,29.1 		"/>
	</g>
	<g>
		<rect x="31" y="41" class="st0" width="13" height="2"/>
	</g>
	<g>
		<path class="st0" d="M25,58h19v-8H25V58z M27,52h15v4H27V52z"/>
	</g>
</g>
</svg>
