<?xml version="1.0" encoding="utf-8"?>
<!-- Generator: Adobe Illustrator 24.3.0, SVG Export Plug-In . SVG Version: 6.00 Build 0)  -->
<svg version="1.1" id="Layer_1" xmlns="http://www.w3.org/2000/svg" xmlns:xlink="http://www.w3.org/1999/xlink" x="0px" y="0px"
	 viewBox="0 0 36 32.1" style="enable-background:new 0 0 36 32.1;" xml:space="preserve">
<style type="text/css">
	.st0{fill:#FFFFFF;}
</style>
<path class="st0" d="M35.4,10.2l-17-6.6c-0.2-0.1-0.5-0.1-0.7,0l-17,6.6C0.2,10.4,0,11,0.2,11.5c0.1,0.2,0.2,0.4,0.5,0.5L6.7,15v7.9
	c0.1,1.3,0.8,2.4,1.9,3c2.2,1.5,5.9,2.2,9.5,2.2s7.3-0.8,9.5-2.2c1.1-0.6,1.8-1.7,1.9-3V15l1.9-1v9.4c0.2,0.5,0.7,0.8,1.3,0.6
	c0.3-0.1,0.5-0.3,0.6-0.6V13.1l2.3-1.2c0.5-0.2,0.7-0.8,0.4-1.3C35.9,10.5,35.7,10.3,35.4,10.2L35.4,10.2z M3.3,11.2L18,5.5
	l14.7,5.7l-13.2,6.6L18,18.6l-1.6-0.7L3.3,11.2z M27.5,20v3c0,1.4-3.6,3.3-9.5,3.3s-9.5-2-9.5-3.4v-7l4.6,2.3l2.9,1.5l1.5,0.8
	c0.3,0.1,0.6,0.1,0.9,0l1.6-0.8l3-1.5l4.6-2.3L27.5,20z"/>
</svg>
