<svg id="Layer_1" data-name="Layer 1" xmlns="http://www.w3.org/2000/svg" viewBox="0 0 413.55 300"><defs><style>.cls-1{fill:#fff;}.cls-2{fill:#fcba19;}</style></defs><title>users</title><path class="cls-1" d="M300,282.79c28.55,0,56.57-34.55,56.57-69.76,0-40.64-20.09-63-56.57-63s-56.58,22.38-56.58,63C243.42,248.23,271.45,282.79,300,282.79Zm0-125.1c32,0,48.89,19.14,48.89,55.35,0,33.43-26.88,62.08-48.89,62.08S251.11,246.46,251.11,213C251.11,176.82,268,157.68,300,157.68ZM300,288c-50.84,0-80,29.16-80,80v82h7.68V368c0-46.63,25.68-72.31,72.32-72.31s72.32,25.68,72.32,72.31v82H380V368C380,317.11,350.84,288,300,288ZM195.52,302c19,0,37.62-22.82,37.62-46.07,0-26.54-13.71-41.76-37.62-41.76s-37.63,15.22-37.63,41.76C157.9,279.14,176.54,302,195.52,302Zm0-80.15c19.87,0,29.94,11.46,29.94,34.07,0,20.31-16.74,38.39-29.94,38.39s-29.94-18.07-29.94-38.39C165.58,233.28,175.66,221.82,195.52,221.82Zm0,84.85c-33.45,0-52.63,19.18-52.63,52.63v52.56h7.68V359.29c0-29,16-44.95,44.95-44.95,8.69,0,16.32,1.44,22.67,4.27l3.13-7C214,308.33,205.3,306.67,195.52,306.67Zm-70.09,8.51c11.85,0,23.49-14.07,23.49-28.4,0-16.45-8.56-25.89-23.49-25.89s-23.49,9.44-23.49,25.89C101.95,301.11,113.58,315.17,125.44,315.17Zm0-46.61c10.63,0,15.8,6,15.8,18.21,0,11-8.84,20.72-15.8,20.72s-15.81-9.75-15.81-20.72C109.63,274.52,114.8,268.57,125.44,268.57Zm-32.21,84v30.57h7.68V352.6c0-20.27,13.34-24.53,24.53-24.53a31.37,31.37,0,0,1,12,2.1l2.93-7.1a39,39,0,0,0-14.9-2.68C105.27,320.39,93.22,332.43,93.22,352.6ZM404.48,302c19,0,37.63-22.82,37.63-46.07,0-26.54-13.71-41.76-37.62-41.76s-37.62,15.22-37.62,41.76C366.86,279.14,385.49,302,404.48,302Zm0-80.15c19.87,0,29.94,11.46,29.94,34.07,0,20.31-16.74,38.39-29.94,38.39s-29.94-18.07-29.94-38.39C374.54,233.28,384.61,221.82,404.48,221.82Zm0,84.85c-9.77,0-18.46,1.66-25.8,4.93l3.13,7c6.35-2.83,14-4.27,22.67-4.27,29,0,44.95,16,44.95,44.95v52.56h7.68V359.29C457.11,325.85,437.92,306.67,404.48,306.67Zm70.08,8.51c11.86,0,23.49-14.07,23.49-28.4,0-16.45-8.56-25.89-23.49-25.89s-23.48,9.44-23.48,25.89C451.08,301.11,462.71,315.17,474.56,315.17Zm0-46.61c10.64,0,15.81,6,15.81,18.21,0,11-8.84,20.72-15.81,20.72s-15.8-9.75-15.8-20.72C458.76,274.52,463.93,268.57,474.56,268.57Zm0,51.82a39,39,0,0,0-14.89,2.68l2.93,7.1a31.39,31.39,0,0,1,12-2.1c11.19,0,24.53,4.26,24.53,24.53v30.57h7.68V352.6C506.77,332.43,494.73,320.39,474.56,320.39Z" transform="translate(-93.22 -150)"/><path class="cls-2" d="M332.74,329.07a19,19,0,0,0-27.56,0L300,334.43,294.82,329a19,19,0,0,0-27.56,0,23.47,23.47,0,0,0,0,32.27L300,395.42l32.74-34.08A23.47,23.47,0,0,0,332.74,329.07Z" transform="translate(-93.22 -150)"/></svg>