<!-- Generator: Adobe Illustrator 22.1.0, SVG Export Plug-In  -->
<svg version="1.1"
	 xmlns="http://www.w3.org/2000/svg" xmlns:xlink="http://www.w3.org/1999/xlink" xmlns:a="http://ns.adobe.com/AdobeSVGViewerExtensions/3.0/"
	 x="0px" y="0px" width="302.5px" height="324.3px" viewBox="0 0 302.5 324.3"
	 style="overflow:scroll;enable-background:new 0 0 302.5 324.3;" xml:space="preserve">
<style type="text/css">
	.st0{fill:#245079;}
	.st1{fill:#FCBA19;}
</style>
<defs>
</defs>
<path class="st0" d="M153.3,132.8c28.6,0,56.6-34.6,56.6-69.8c0-40.6-20.1-63-56.6-63c-36.5,0-56.6,22.4-56.6,63
	C96.7,98.2,124.7,132.8,153.3,132.8z M153.3,7.7c32,0,48.9,19.1,48.9,55.3c0,33.4-26.9,62.1-48.9,62.1S104.4,96.5,104.4,63
	C104.4,26.8,121.3,7.7,153.3,7.7z M153.3,138c-50.8,0-80,2.2-80,53v-3.5H81v3.5c0-46.6,25.7-45.3,72.3-45.3s72.3-1.3,72.3,45.3v-3.5
	h7.7v3.5C233.3,140.1,204.1,138,153.3,138z"/>
<path class="st1" d="M298.2,316h-17.7V200.6c0-9.5-7.3-17.3-16.4-17.3H38.5c-9.1,0-16.4,7.8-16.4,17.3v115H4.3
	c-2.6,0-4.3,1.7-4.3,4.3s1.7,4.3,4.3,4.3h293.9c2.6,0,4.3-1.7,4.3-4.3S300.8,316,298.2,316z M30.7,200.6c0-4.8,3.5-8.6,7.8-8.6
	h225.6c4.3,0,7.8,3.9,7.8,8.6v115H30.7V200.6z"/>
<path class="st1" d="M151.3,236.5c-9.5,0-17.3,7.8-17.3,17.3s7.8,17.3,17.3,17.3s17.3-7.8,17.3-17.3S160.8,236.5,151.3,236.5z
	 M151.3,262.4c-4.8,0-8.6-3.9-8.6-8.6s3.9-8.6,8.6-8.6s8.6,3.9,8.6,8.6S156,262.4,151.3,262.4z"/>
</svg>
