<?xml version="1.0" encoding="utf-8"?>
<svg version="1.1" xmlns:xlink="http://www.w3.org/1999/xlink" width="23px" height="23px" xmlns="http://www.w3.org/2000/svg">
  <g transform="matrix(1 0 0 1 -56 -431 )">
    <path d="M 23 11.5  C 23 5.14870766129032  17.8512923387097 0  11.5 0  C 5.14870766129032 0  0 5.14870766129032  0 11.5  C 0 17.8512923387097  5.14870766129032 23  11.5 23  C 17.8512923387097 23  23 17.8512923387097  23 11.5  Z M 2.2258064516129 11.5  C 2.2258064516129 6.37452419354839  6.37373588709677 2.2258064516129  11.5 2.2258064516129  C 16.6254758064516 2.2258064516129  20.7741935483871 6.37373588709677  20.7741935483871 11.5  C 20.7741935483871 16.6254758064516  16.6262641129032 20.7741935483871  11.5 20.7741935483871  C 6.37452419354839 20.7741935483871  2.2258064516129 16.6262641129032  2.2258064516129 11.5  Z M 17.9982883064516 9.053375  C 18.2164173387097 8.83691532258065  18.2178084677419 8.48458870967742  18.0013951612903 8.26641330645161  L 16.9563790322581 7.21295766129032  C 16.7399657258065 6.99478225806452  16.3876391129032 6.99334475806452  16.1694637096774 7.20980443548387  L 9.61483467741935 13.7117560483871  L 6.84222177419355 10.9166532258065  C 6.62580846774194 10.6984778225806  6.27348185483871 10.6970403225806  6.0553064516129 10.9134536290323  L 5.00180443548387 11.9584697580645  C 4.78362903225807 12.1748830645161  4.78219153225806 12.5272096774194  4.99865120967742 12.7454314516129  L 9.20825403225806 16.9891169354839  C 9.42466733870968 17.2072923387097  9.7769939516129 17.2087298387097  9.99516935483871 16.9922701612903  L 17.9982883064516 9.053375  Z " fill-rule="nonzero" fill="#000000" stroke="none" fill-opacity="0.349019607843137" transform="matrix(1 0 0 1 56 431 )" />
  </g>
</svg>