<?xml version="1.0" encoding="utf-8"?>
<svg version="1.1" xmlns:xlink="http://www.w3.org/1999/xlink" width="17px" height="17px" xmlns="http://www.w3.org/2000/svg">
  <g transform="matrix(1 0 0 1 -306 -20 )">
    <path d="M 8.48289738430583 0  C 13.1625150905433 0  16.9571408450704 3.79689516129032  16.9657947686117 8.48392540322581  C 16.9744486921529 13.1671512096774  13.1628571428571 16.9966754032258  8.48905432595573 16.9999657258065  C 6.47043259557344 17.0014052419355  4.61623541247485 16.2963165322581  3.15912676056338 15.117935483871  C 2.78023541247485 14.8115241935484  2.75191348088531 14.2425383064516  3.09622334004024 13.8975342741935  L 3.48161368209256 13.5113669354839  C 3.77608651911469 13.2163004032258  4.2462032193159 13.1840141129032  4.57245271629779 13.4433669354839  C 5.64598390342052 14.2969657258065  7.0045814889336 14.8064516129032  8.48289738430583 14.8064516129032  C 11.9617404426559 14.8064516129032  14.7766599597586 11.9853084677419  14.7766599597586 8.5  C 14.7766599597586 5.01414314516129  11.9611931589537 2.19354838709677  8.48289738430583 2.19354838709677  C 6.8132032193159 2.19354838709677  5.29671428571429 2.84369556451613  4.17071227364185 3.90492741935484  L 5.90676458752515 5.64447983870968  C 6.25155331991952 5.98996370967742  6.00736217303823 6.58064516129032  5.51980080482898 6.58064516129032  L 0.54728370221328 6.58064516129032  C 0.245012072434608 6.58064516129032  0 6.33513911290323  0 6.03225806451613  L 0 1.04971572580645  C 0 0.561171370967742  0.589492957746479 0.316487903225807  0.934281690140845 0.6619375  L 2.62306237424547 2.35412298387097  C 4.14598189134809 0.895790322580645  6.21002816901408 0  8.48289738430583 0  Z M 9.62565995975855 11.3284778225806  C 9.98354929577465 11.6073669354839  10.4992957746479 11.5427943548387  10.7776579476861 11.1841834677419  L 11.1136559356137 10.7513004032258  C 11.3920181086519 10.392689516129  11.3275412474849 9.8758689516129  10.9696519114688 9.59697983870968  L 9.57746478873239 8.51196169354839  L 9.57746478873239 4.93548387096774  C 9.57746478873239 4.48117943548387  9.20992957746479 4.11290322580645  8.75653923541248 4.11290322580645  L 8.2092555331992 4.11290322580645  C 7.75586519114688 4.11290322580645  7.38832997987928 4.48117943548387  7.38832997987928 4.93548387096774  L 7.38832997987928 9.5848125  L 9.62565995975855 11.3284778225806  Z " fill-rule="nonzero" fill="#333333" stroke="none" transform="matrix(1 0 0 1 306 20 )" />
  </g>
</svg>