<?xml version="1.0" encoding="utf-8"?>
<!-- Generator: Adobe Illustrator 24.2.2, SVG Export Plug-In . SVG Version: 6.00 Build 0)  -->
<svg version="1.1" id="Layer_1" xmlns="http://www.w3.org/2000/svg" xmlns:xlink="http://www.w3.org/1999/xlink" x="0px" y="0px"
	 viewBox="0 0 50 64.3" style="enable-background:new 0 0 50 64.3;" xml:space="preserve">
<style type="text/css">
	.st0{fill:#234075;stroke:#234075;stroke-width:1.3;stroke-miterlimit:10;}
</style>
<g>
	<g>
		<g>
			<path class="st0" d="M24.8,25.9c-6.2,0-11.2-5-11.2-11.2c0-6.2,5-11.2,11.2-11.2s11.2,5,11.2,11.2C35.9,20.9,30.9,25.9,24.8,25.9
				z M24.8,4C18.8,4,14,8.8,14,14.7c0,5.9,4.8,10.7,10.7,10.7s10.7-4.8,10.7-10.7C35.5,8.8,30.7,4,24.8,4z"/>
			<path class="st0" d="M4.7,58.7c-0.1,0-0.2-0.1-0.2-0.2v-7.4l0-0.1c0-11.2,9.1-20.3,20.3-20.3c11.2,0,20.3,9.1,20.3,20.3l0,7.4
				c0,0.1-0.1,0.2-0.2,0.2H4.7z M24.8,31.2c-10.9,0-19.8,8.9-19.8,19.8v0.1l0,0.1l0,7.1h39.6l0-7l0-0.1l0-0.2
				C44.6,40.1,35.7,31.2,24.8,31.2z"/>
		</g>
	</g>
</g>
</svg>
