<?xml version="1.0" encoding="utf-8"?>
<svg version="1.1" xmlns:xlink="http://www.w3.org/1999/xlink" width="14px" height="8px" xmlns="http://www.w3.org/2000/svg">
  <g transform="matrix(1 0 0 1 -1050 -92 )">
    <path d="M 13.8597194388778 0.824742268041237  C 13.9532398129593 0.916380297823594  14 1.02176403207331  14 1.14089347079038  C 14 1.26002290950744  13.9532398129593 1.36540664375716  13.8597194388778 1.45704467353952  L 7.32264529058116 7.86254295532646  C 7.22912491649967 7.95418098510882  7.12157648630595 8  7 8  C 6.87842351369406 8  6.77087508350033 7.95418098510882  6.67735470941884 7.86254295532646  L 0.140280561122244 1.45704467353952  C 0.0467601870407483 1.36540664375716  0 1.26002290950744  0 1.14089347079038  C 0 1.02176403207331  0.0467601870407483 0.916380297823594  0.140280561122244 0.824742268041237  L 0.841683366733467 0.13745704467354  C 0.935203740814964 0.0458190148911788  1.04275217100868 0  1.16432865731463 0  C 1.28590514362057 0  1.3934535738143 0.0458190148911788  1.48697394789579 0.13745704467354  L 7 5.53951890034364  L 12.5130260521042 0.13745704467354  C 12.6065464261857 0.0458190148911788  12.7140948563794 0  12.8356713426854 0  C 12.9572478289913 0  13.064796259185 0.0458190148911788  13.1583166332665 0.13745704467354  L 13.8597194388778 0.824742268041237  Z " fill-rule="nonzero" fill="#333333" stroke="none" transform="matrix(1 0 0 1 1050 92 )" />
  </g>
</svg>